<svg width="16" height="282" viewBox="0 0 16 282" fill="none" xmlns="http://www.w3.org/2000/svg">
<path opacity="0.7" d="M12 281.44L11.706 281.44L11.496 280.152L1.304 280.152L1.108 281.44L0.8 281.44L0.8 277.324L1.108 277.324L1.304 278.612L11.664 278.612L11.664 274.426L8.584 273.278L8.584 272.9L12 272.9L12 281.44ZM12.14 267.555C12.14 268.245 11.986 268.871 11.678 269.431C11.3607 269.991 10.9173 270.434 10.348 270.761C9.77867 271.087 9.12067 271.251 8.374 271.251C7.62733 271.251 6.974 271.092 6.414 270.775C5.84467 270.448 5.406 270.014 5.098 269.473C4.78067 268.922 4.622 268.311 4.622 267.639C4.622 267.051 4.75267 266.523 5.014 266.057C5.27533 265.59 5.63933 265.226 6.106 264.965C6.56333 264.703 7.09067 264.568 7.688 264.559L7.688 269.711L9.074 269.711C9.89533 269.711 10.5627 269.529 11.076 269.165C11.58 268.791 11.832 268.255 11.832 267.555C11.832 266.911 11.65 266.341 11.286 265.847C10.922 265.352 10.4507 265.049 9.872 264.937L9.872 264.615C10.5627 264.745 11.1133 265.077 11.524 265.609C11.9347 266.141 12.14 266.789 12.14 267.555ZM7.338 266.099C6.526 266.099 5.924 266.225 5.532 266.477C5.13067 266.729 4.93 267.121 4.93 267.653C4.93 268.278 5.14933 268.763 5.588 269.109C6.02667 269.454 6.61 269.65 7.338 269.697L7.338 266.099ZM12.14 259.077C12.14 259.749 11.986 260.36 11.678 260.911C11.3607 261.462 10.9173 261.9 10.348 262.227C9.76933 262.544 9.11133 262.703 8.374 262.703C7.63667 262.703 6.98333 262.544 6.414 262.227C5.84467 261.9 5.406 261.462 5.098 260.911C4.78067 260.36 4.622 259.749 4.622 259.077C4.622 258.405 4.78067 257.794 5.098 257.243C5.406 256.692 5.84467 256.258 6.414 255.941C6.98333 255.614 7.63667 255.451 8.374 255.451C9.11133 255.451 9.76933 255.614 10.348 255.941C10.9173 256.258 11.3607 256.692 11.678 257.243C11.986 257.794 12.14 258.405 12.14 259.077ZM11.832 259.077C11.832 258.386 11.58 257.868 11.076 257.523C10.572 257.168 9.90467 256.991 9.074 256.991L7.674 256.991C6.84333 256.991 6.18067 257.168 5.686 257.523C5.182 257.868 4.93 258.386 4.93 259.077C4.93 259.768 5.182 260.29 5.686 260.645C6.18067 260.99 6.84333 261.163 7.674 261.163L9.074 261.163C9.90467 261.163 10.572 260.99 11.076 260.645C11.58 260.29 11.832 259.768 11.832 259.077ZM11.72 253.778L11.58 252.798L5.168 252.798L5.028 253.778L4.748 253.778L4.748 251.398L6.26 251.398C5.756 251.053 5.35933 250.647 5.07 250.18C4.77133 249.713 4.622 249.209 4.622 248.668C4.622 247.996 4.79 247.469 5.126 247.086C5.462 246.694 5.96133 246.498 6.624 246.498L11.58 246.498L11.72 245.518L12 245.518L12 248.738L11.72 248.738L11.58 247.898L6.652 247.898C6.16666 247.898 5.79333 247.996 5.532 248.192C5.26133 248.388 5.126 248.691 5.126 249.102C5.126 249.531 5.28466 249.947 5.602 250.348C5.91 250.74 6.29266 251.09 6.75 251.398L11.58 251.398L11.72 250.558L12 250.558L12 253.778L11.72 253.778ZM12.14 241.881C12.14 242.478 11.986 242.968 11.678 243.351C11.3607 243.734 10.894 243.925 10.278 243.925C9.40066 243.925 8.78 243.556 8.416 242.819C8.04266 242.082 7.856 241.228 7.856 240.257L7.856 239.319L6.778 239.319C6.29266 239.319 5.91933 239.375 5.658 239.487C5.38733 239.59 5.20066 239.753 5.098 239.977C4.986 240.201 4.93 240.504 4.93 240.887C4.93 241.326 5.01866 241.652 5.196 241.867C5.364 242.082 5.59266 242.189 5.882 242.189C6.15266 242.189 6.33 242.058 6.414 241.797C6.64733 241.797 6.85266 241.886 7.03 242.063C7.20733 242.24 7.296 242.45 7.296 242.693C7.296 242.954 7.226 243.164 7.086 243.323C6.93666 243.482 6.71266 243.561 6.414 243.561C5.87266 243.561 5.43866 243.29 5.112 242.749C4.78533 242.208 4.622 241.531 4.622 240.719C4.622 238.852 5.434 237.919 7.058 237.919L11.062 237.919C11.2673 237.919 11.426 237.877 11.538 237.793C11.6407 237.7 11.692 237.569 11.692 237.401C11.692 237.242 11.6407 237.116 11.538 237.023C11.426 236.93 11.2767 236.883 11.09 236.883L11.09 236.589C11.4167 236.589 11.6733 236.696 11.86 236.911C12.0467 237.116 12.14 237.406 12.14 237.779C12.14 238.208 12.0187 238.572 11.776 238.871C11.524 239.16 11.1367 239.31 10.614 239.319C11.09 239.543 11.4633 239.888 11.734 240.355C12.0047 240.812 12.14 241.321 12.14 241.881ZM11.524 241.111C11.524 240.859 11.4493 240.602 11.3 240.341C11.1507 240.07 10.936 239.842 10.656 239.655C10.3667 239.468 10.0213 239.356 9.62 239.319L8.164 239.319L8.164 240.257C8.164 241.022 8.33666 241.596 8.682 241.979C9.018 242.352 9.494 242.539 10.11 242.539C10.6233 242.539 10.9873 242.418 11.202 242.175C11.4167 241.932 11.524 241.578 11.524 241.111ZM11.72 235.548L11.58 234.568L5.168 234.568L5.028 235.548L4.748 235.548L4.748 233.168L5.826 233.168C5.02333 232.58 4.622 231.917 4.622 231.18C4.622 230.825 4.71533 230.512 4.902 230.242C5.07933 229.971 5.336 229.836 5.672 229.836C5.91466 229.836 6.12 229.915 6.288 230.074C6.44666 230.232 6.526 230.442 6.526 230.704C6.526 231.002 6.40933 231.245 6.176 231.432C6.04533 231.329 5.90533 231.278 5.756 231.278C5.59733 231.278 5.47133 231.334 5.378 231.446C5.27533 231.548 5.224 231.688 5.224 231.866C5.224 232.062 5.31733 232.262 5.504 232.468C5.68133 232.673 5.96133 232.906 6.344 233.168L11.58 233.168L11.72 232.048L12 232.048L12 235.548L11.72 235.548ZM12.14 225.221C12.14 225.884 11.986 226.467 11.678 226.971C11.3607 227.475 10.922 227.867 10.362 228.147C9.79266 228.427 9.13 228.567 8.374 228.567C7.618 228.567 6.96 228.427 6.4 228.147C5.83066 227.867 5.392 227.475 5.084 226.971C4.776 226.467 4.622 225.884 4.622 225.221C4.622 224.68 4.76666 224.208 5.056 223.807C5.336 223.406 5.72333 223.088 6.218 222.855L1.22 222.855L1.08 223.835L0.799997 223.835L0.799997 221.455L11.58 221.455L11.72 220.475L12 220.475L12 222.855L10.544 222.855C11.0387 223.088 11.4307 223.406 11.72 223.807C12 224.208 12.14 224.68 12.14 225.221ZM11.79 225.081C11.79 224.67 11.6733 224.302 11.44 223.975C11.1973 223.639 10.88 223.373 10.488 223.177C10.0867 222.972 9.65266 222.864 9.186 222.855L7.576 222.855C7.10933 222.864 6.68 222.972 6.288 223.177C5.88666 223.373 5.56933 223.639 5.336 223.975C5.09333 224.302 4.972 224.67 4.972 225.081C4.972 226.378 5.87266 227.027 7.674 227.027L9.074 227.027C10.8847 227.027 11.79 226.378 11.79 225.081ZM12.14 215.259C12.14 215.931 11.986 216.542 11.678 217.093C11.3607 217.643 10.9173 218.082 10.348 218.409C9.76933 218.726 9.11133 218.885 8.374 218.885C7.63666 218.885 6.98333 218.726 6.414 218.409C5.84466 218.082 5.406 217.643 5.098 217.093C4.78066 216.542 4.622 215.931 4.622 215.259C4.622 214.587 4.78066 213.975 5.098 213.425C5.406 212.874 5.84466 212.44 6.414 212.123C6.98333 211.796 7.63666 211.633 8.374 211.633C9.11133 211.633 9.76933 211.796 10.348 212.123C10.9173 212.44 11.3607 212.874 11.678 213.425C11.986 213.975 12.14 214.587 12.14 215.259ZM11.832 215.259C11.832 214.568 11.58 214.05 11.076 213.705C10.572 213.35 9.90466 213.173 9.074 213.173L7.674 213.173C6.84333 213.173 6.18066 213.35 5.686 213.705C5.182 214.05 4.93 214.568 4.93 215.259C4.93 215.949 5.182 216.472 5.686 216.827C6.18066 217.172 6.84333 217.345 7.674 217.345L9.074 217.345C9.90466 217.345 10.572 217.172 11.076 216.827C11.58 216.472 11.832 215.949 11.832 215.259ZM12.14 202.34C12.14 203.003 11.986 203.586 11.678 204.09C11.3607 204.594 10.922 204.986 10.362 205.266C9.79266 205.546 9.13 205.686 8.374 205.686C7.618 205.686 6.96 205.546 6.4 205.266C5.83066 204.986 5.392 204.594 5.084 204.09C4.776 203.586 4.622 203.003 4.622 202.34C4.622 201.799 4.76666 201.327 5.056 200.926C5.336 200.525 5.72333 200.207 6.218 199.974L1.22 199.974L1.08 200.954L0.799996 200.954L0.799996 198.574L11.58 198.574L11.72 197.594L12 197.594L12 199.974L10.544 199.974C11.0387 200.207 11.4307 200.525 11.72 200.926C12 201.327 12.14 201.799 12.14 202.34ZM11.79 202.2C11.79 201.789 11.6733 201.421 11.44 201.094C11.1973 200.758 10.88 200.492 10.488 200.296C10.0867 200.091 9.65266 199.983 9.186 199.974L7.576 199.974C7.10933 199.983 6.68 200.091 6.288 200.296C5.88666 200.492 5.56933 200.758 5.336 201.094C5.09333 201.421 4.972 201.789 4.972 202.2C4.972 203.497 5.87266 204.146 7.674 204.146L9.074 204.146C10.8847 204.146 11.79 203.497 11.79 202.2ZM12.14 193.917C12.14 194.515 11.986 195.005 11.678 195.387C11.3607 195.77 10.894 195.961 10.278 195.961C9.40066 195.961 8.78 195.593 8.416 194.855C8.04266 194.118 7.856 193.264 7.856 192.293L7.856 191.355L6.778 191.355C6.29266 191.355 5.91933 191.411 5.658 191.523C5.38733 191.626 5.20066 191.789 5.098 192.013C4.986 192.237 4.93 192.541 4.93 192.923C4.93 193.362 5.01866 193.689 5.196 193.903C5.364 194.118 5.59266 194.225 5.882 194.225C6.15266 194.225 6.33 194.095 6.414 193.833C6.64733 193.833 6.85266 193.922 7.03 194.099C7.20733 194.277 7.296 194.487 7.296 194.729C7.296 194.991 7.226 195.201 7.086 195.359C6.93666 195.518 6.71266 195.597 6.414 195.597C5.87266 195.597 5.43866 195.327 5.112 194.785C4.78533 194.244 4.622 193.567 4.622 192.755C4.622 190.889 5.434 189.955 7.058 189.955L11.062 189.955C11.2673 189.955 11.426 189.913 11.538 189.829C11.6407 189.736 11.692 189.605 11.692 189.437C11.692 189.279 11.6407 189.153 11.538 189.059C11.426 188.966 11.2767 188.919 11.09 188.919L11.09 188.625C11.4167 188.625 11.6733 188.733 11.86 188.947C12.0467 189.153 12.14 189.442 12.14 189.815C12.14 190.245 12.0187 190.609 11.776 190.907C11.524 191.197 11.1367 191.346 10.614 191.355C11.09 191.579 11.4633 191.925 11.734 192.391C12.0047 192.849 12.14 193.357 12.14 193.917ZM11.524 193.147C11.524 192.895 11.4493 192.639 11.3 192.377C11.1507 192.107 10.936 191.878 10.656 191.691C10.3667 191.505 10.0213 191.393 9.62 191.355L8.164 191.355L8.164 192.293C8.164 193.059 8.33666 193.633 8.682 194.015C9.018 194.389 9.494 194.575 10.11 194.575C10.6233 194.575 10.9873 194.454 11.202 194.211C11.4167 193.969 11.524 193.614 11.524 193.147ZM12.28 179.166L1.30399 183.198L1.10799 184.318L0.799996 184.318L0.799995 180.216L1.10799 180.216L1.276 181.532L9.662 178.452L1.73799 175.428L1.10799 177.038L0.799995 177.038L0.799995 174.028L1.10799 174.028L1.72399 175.05L12.28 179.054L12.28 179.166ZM3.124 171.807C3.124 172.069 3.03533 172.293 2.85799 172.479C2.67133 172.666 2.44733 172.759 2.18599 172.759C1.92466 172.759 1.70533 172.671 1.52799 172.493C1.35066 172.307 1.26199 172.078 1.26199 171.807C1.26199 171.555 1.35066 171.341 1.52799 171.163C1.70533 170.986 1.92466 170.897 2.18599 170.897C2.44733 170.897 2.67133 170.986 2.85799 171.163C3.03533 171.341 3.124 171.555 3.124 171.807ZM12 173.291L11.72 173.291L11.58 172.311L5.18199 172.311L5.042 173.291L4.76199 173.291L4.76199 170.911L11.58 170.911L11.72 169.931L12 169.931L12 173.291ZM11.72 168.558L11.58 167.578L5.16799 167.578L5.02799 168.558L4.74799 168.558L4.74799 166.178L6.25999 166.178C5.75599 165.833 5.35933 165.427 5.06999 164.96C4.77133 164.494 4.62199 163.99 4.62199 163.448C4.62199 162.776 4.78999 162.249 5.12599 161.866C5.46199 161.474 5.96133 161.278 6.62399 161.278L11.58 161.278L11.72 160.298L12 160.298L12 163.518L11.72 163.518L11.58 162.678L6.65199 162.678C6.16666 162.678 5.79333 162.776 5.53199 162.972C5.26133 163.168 5.12599 163.472 5.12599 163.882C5.12599 164.312 5.28466 164.727 5.60199 165.128C5.90999 165.52 6.29266 165.87 6.74999 166.178L11.58 166.178L11.72 165.338L12 165.338L12 168.558L11.72 168.558ZM12.14 155.122C12.14 155.794 11.986 156.405 11.678 156.956C11.3607 157.506 10.9173 157.945 10.348 158.272C9.76933 158.589 9.11133 158.748 8.37399 158.748C7.59933 158.748 6.92733 158.58 6.35799 158.244C5.78866 157.898 5.35933 157.45 5.06999 156.9C4.77133 156.349 4.62199 155.756 4.62199 155.122C4.62199 154.59 4.71533 154.104 4.90199 153.666C5.07933 153.227 5.33133 152.882 5.65799 152.63C5.98466 152.368 6.35333 152.238 6.76399 152.238C7.07199 152.238 7.30999 152.317 7.47799 152.476C7.63666 152.634 7.71599 152.844 7.71599 153.106C7.71599 153.358 7.63199 153.568 7.46399 153.736C7.29599 153.904 7.08599 153.988 6.83399 153.988C6.74066 153.848 6.63799 153.75 6.52599 153.694C6.41399 153.638 6.27399 153.61 6.10599 153.61C5.76066 153.61 5.48066 153.75 5.26599 154.03C5.04199 154.3 4.92999 154.664 4.92999 155.122C4.92999 155.794 5.17266 156.312 5.65799 156.676C6.13399 157.03 6.80599 157.208 7.67399 157.208L9.07399 157.208C9.90466 157.208 10.572 157.035 11.076 156.69C11.58 156.335 11.832 155.812 11.832 155.122C11.832 154.487 11.6547 153.936 11.3 153.47C10.936 152.994 10.46 152.7 9.87199 152.588L9.87199 152.266C10.5627 152.396 11.1133 152.723 11.524 153.246C11.9347 153.759 12.14 154.384 12.14 155.122ZM3.12399 149.117C3.12399 149.379 3.03533 149.603 2.85799 149.789C2.67133 149.976 2.44733 150.069 2.18599 150.069C1.92466 150.069 1.70533 149.981 1.52799 149.803C1.35066 149.617 1.26199 149.388 1.26199 149.117C1.26199 148.865 1.35066 148.651 1.52799 148.473C1.70533 148.296 1.92466 148.207 2.18599 148.207C2.44733 148.207 2.67133 148.296 2.85799 148.473C3.03533 148.651 3.12399 148.865 3.12399 149.117ZM12 150.601L11.72 150.601L11.58 149.621L5.18199 149.621L5.04199 150.601L4.76199 150.601L4.76199 148.221L11.58 148.221L11.72 147.241L12 147.241L12 150.601ZM14.044 141.483C13.876 141.203 13.638 140.951 13.33 140.727C13.0313 140.494 12.728 140.377 12.42 140.377C12.336 140.377 12.266 140.4 12.21 140.447C12.1633 140.494 12.14 140.564 12.14 140.657C12.14 140.89 12.0607 141.091 11.902 141.259C11.734 141.418 11.5333 141.497 11.3 141.497C11.0667 141.497 10.8753 141.418 10.726 141.259C10.5673 141.091 10.488 140.89 10.488 140.657C10.488 140.33 10.6093 140.074 10.852 139.887C11.0853 139.691 11.3933 139.593 11.776 139.593C12.2987 139.593 12.77 139.738 13.19 140.027C13.6193 140.307 13.9787 140.741 14.268 141.329L14.044 141.483ZM12.28 133.497L1.30399 137.529L1.10799 138.649L0.799994 138.649L0.799993 134.547L1.10799 134.547L1.27599 135.863L9.66199 132.783L1.73799 129.759L1.10799 131.369L0.799993 131.369L0.799993 128.359L1.10799 128.359L1.72399 129.381L12.28 133.385L12.28 133.497ZM3.12399 126.138C3.12399 126.399 3.03533 126.623 2.85799 126.81C2.67133 126.996 2.44733 127.09 2.18599 127.09C1.92466 127.09 1.70533 127.001 1.52799 126.824C1.35066 126.637 1.26199 126.408 1.26199 126.138C1.26199 125.886 1.35066 125.671 1.52799 125.494C1.70533 125.316 1.92466 125.228 2.18599 125.228C2.44733 125.228 2.67133 125.316 2.85799 125.494C3.03533 125.671 3.12399 125.886 3.12399 126.138ZM12 127.622L11.72 127.622L11.58 126.642L5.18199 126.642L5.04199 127.622L4.76199 127.622L4.76199 125.242L11.58 125.242L11.72 124.262L12 124.262L12 127.622ZM11.72 122.889L11.58 121.909L5.16799 121.909L5.02799 122.889L4.74799 122.889L4.74799 120.509L5.82599 120.509C5.02333 119.921 4.62199 119.258 4.62199 118.521C4.62199 118.166 4.71533 117.853 4.90199 117.583C5.07933 117.312 5.33599 117.177 5.67199 117.177C5.91466 117.177 6.11999 117.256 6.28799 117.415C6.44666 117.573 6.52599 117.783 6.52599 118.045C6.52599 118.343 6.40933 118.586 6.17599 118.773C6.04533 118.67 5.90533 118.619 5.75599 118.619C5.59733 118.619 5.47133 118.675 5.37799 118.787C5.27533 118.889 5.22399 119.029 5.22399 119.207C5.22399 119.403 5.31733 119.603 5.50399 119.809C5.68133 120.014 5.96133 120.247 6.34399 120.509L11.58 120.509L11.72 119.389L12 119.389L12 122.889L11.72 122.889ZM4.08999 108.813C4.45399 108.813 4.76666 108.949 5.02799 109.219C5.28933 109.49 5.45733 109.919 5.53199 110.507C5.88666 110.265 6.37199 110.143 6.98799 110.143C7.71599 110.143 8.28999 110.405 8.70999 110.927C9.12999 111.441 9.33999 112.094 9.33999 112.887C9.33999 113.214 9.31199 113.513 9.25599 113.783C9.29333 114.381 9.52666 114.679 9.95599 114.679C10.1987 114.679 10.376 114.581 10.488 114.385C10.6 114.18 10.656 113.858 10.656 113.419L10.656 111.851C10.656 111.095 10.81 110.535 11.118 110.171C11.426 109.798 11.9533 109.611 12.7 109.611C13.2227 109.611 13.7033 109.747 14.142 110.017C14.5807 110.279 14.926 110.661 15.178 111.165C15.4393 111.669 15.57 112.271 15.57 112.971C15.57 114.026 15.4113 114.805 15.094 115.309C14.7767 115.804 14.3567 116.051 13.834 116.051C13.5167 116.051 13.2367 115.93 12.994 115.687C12.7513 115.445 12.63 115.113 12.63 114.693C12.63 114.609 12.6487 114.437 12.686 114.175C12.994 114.465 13.358 114.609 13.778 114.609C14.1793 114.609 14.5293 114.469 14.828 114.189C15.1267 113.909 15.276 113.452 15.276 112.817C15.276 112.267 15.1687 111.777 14.954 111.347C14.7487 110.909 14.478 110.573 14.142 110.339C13.806 110.106 13.4607 109.989 13.106 109.989C12.714 109.989 12.4293 110.115 12.252 110.367C12.084 110.619 12 111.067 12 111.711L12 113.419C12 114.073 11.874 114.567 11.622 114.903C11.3607 115.23 10.978 115.393 10.474 115.393C10.138 115.393 9.84399 115.3 9.59199 115.113C9.33066 114.917 9.16266 114.67 9.08799 114.371C8.74266 115.183 8.04266 115.589 6.98799 115.589C6.25066 115.589 5.67199 115.333 5.25199 114.819C4.83199 114.306 4.62199 113.662 4.62199 112.887C4.62199 111.907 4.82733 111.198 5.23799 110.759C5.19133 110.498 5.10733 110.302 4.98599 110.171C4.85533 110.041 4.71066 109.975 4.55199 109.975C4.40266 109.975 4.29066 110.017 4.21599 110.101C4.13199 110.185 4.08999 110.283 4.08999 110.395C3.88466 110.395 3.70733 110.321 3.55799 110.171C3.39933 110.013 3.31999 109.826 3.31999 109.611C3.31999 109.378 3.38999 109.187 3.52999 109.037C3.66999 108.888 3.85666 108.813 4.08999 108.813ZM6.63799 111.459C6.06866 111.459 5.62999 111.581 5.32199 111.823C5.01399 112.057 4.85999 112.411 4.85999 112.887C4.85999 113.811 5.45266 114.273 6.63799 114.273L7.32399 114.273C7.87466 114.273 8.30866 114.161 8.62599 113.937C8.94333 113.704 9.10199 113.354 9.10199 112.887C9.10199 112.411 8.94333 112.057 8.62599 111.823C8.30866 111.581 7.87466 111.459 7.32399 111.459L6.63799 111.459ZM3.12399 106.305C3.12399 106.567 3.03533 106.791 2.85799 106.977C2.67133 107.164 2.44733 107.257 2.18599 107.257C1.92466 107.257 1.70533 107.169 1.52799 106.991C1.35066 106.805 1.26199 106.576 1.26199 106.305C1.26199 106.053 1.35066 105.839 1.52799 105.661C1.70533 105.484 1.92466 105.395 2.18599 105.395C2.44733 105.395 2.67133 105.484 2.85799 105.661C3.03533 105.839 3.12399 106.053 3.12399 106.305ZM12 107.789L11.72 107.789L11.58 106.809L5.18199 106.809L5.04199 107.789L4.76199 107.789L4.76199 105.409L11.58 105.409L11.72 104.429L12 104.429L12 107.789ZM11.72 103.056L11.58 102.076L5.16799 102.076L5.02799 103.056L4.74799 103.056L4.74799 100.676L6.25999 100.676C5.75599 100.331 5.35933 99.925 5.06999 99.4584C4.77133 98.9917 4.62199 98.4877 4.62199 97.9464C4.62199 97.2744 4.78999 96.747 5.12599 96.3644C5.46199 95.9724 5.96133 95.7764 6.62399 95.7764L11.58 95.7764L11.72 94.7964L12 94.7964L12 98.0164L11.72 98.0164L11.58 97.1764L6.65199 97.1764C6.16666 97.1764 5.79333 97.2744 5.53199 97.4704C5.26132 97.6664 5.12599 97.9697 5.12599 98.3804C5.12599 98.8097 5.28466 99.225 5.60199 99.6264C5.90999 100.018 6.29266 100.368 6.74999 100.676L11.58 100.676L11.72 99.8364L12 99.8364L12 103.056L11.72 103.056ZM12.14 85.57C12.14 86.242 11.986 86.8534 11.678 87.404C11.3607 87.9547 10.9173 88.3934 10.348 88.72C9.76932 89.0374 9.11132 89.196 8.37399 89.196C7.63666 89.196 6.98332 89.0374 6.41399 88.72C5.84466 88.3934 5.40599 87.9547 5.09799 87.404C4.78066 86.8534 4.62199 86.242 4.62199 85.57C4.62199 84.898 4.78066 84.2867 5.09799 83.736C5.40599 83.1854 5.84466 82.7514 6.41399 82.434C6.98332 82.1074 7.63666 81.944 8.37399 81.944C9.11132 81.944 9.76932 82.1074 10.348 82.434C10.9173 82.7514 11.3607 83.1854 11.678 83.736C11.986 84.2867 12.14 84.898 12.14 85.57ZM11.832 85.57C11.832 84.8794 11.58 84.3614 11.076 84.016C10.572 83.6614 9.90466 83.484 9.07399 83.484L7.67399 83.484C6.84332 83.484 6.18066 83.6614 5.68599 84.016C5.18199 84.3614 4.92999 84.8794 4.92999 85.57C4.92999 86.2607 5.18199 86.7834 5.68599 87.138C6.18066 87.4834 6.84332 87.656 7.67399 87.656L9.07399 87.656C9.90466 87.656 10.572 87.4834 11.076 87.138C11.58 86.7834 11.832 86.2607 11.832 85.57ZM11.72 80.2708L11.58 79.2908L5.16799 79.2908L5.02799 80.2708L4.74799 80.2708L4.74799 79.2908L3.57199 79.2908C2.67599 79.2908 1.96666 79.1088 1.44399 78.7448C0.921324 78.3808 0.65999 77.7602 0.65999 76.8828C0.65999 76.3322 0.795324 75.8795 1.06599 75.5248C1.32732 75.1608 1.68666 74.9788 2.14399 74.9788C2.42399 74.9788 2.65266 75.0582 2.82999 75.2168C3.00732 75.3662 3.09599 75.5715 3.09599 75.8328C3.09599 76.0662 3.00732 76.2715 2.82999 76.4488C2.65266 76.6262 2.44732 76.7148 2.21399 76.7148C2.12066 76.3975 1.90132 76.2388 1.55599 76.2388C1.39732 76.2388 1.26199 76.3042 1.14999 76.4348C1.02866 76.5562 0.96799 76.7055 0.96799 76.8828C0.96799 77.2468 1.14066 77.5082 1.48599 77.6668C1.82199 77.8162 2.37266 77.8908 3.13799 77.8908L4.74799 77.8908L4.74799 76.0708L5.02799 76.0708L5.16799 77.8908L11.58 77.8908L11.72 76.2248L12 76.2248L12 80.2708L11.72 80.2708ZM12.14 67.8654C12.14 68.4814 11.986 68.9761 11.678 69.3494C11.37 69.7134 10.88 69.8954 10.208 69.8954L5.16799 69.8954L5.02799 70.8894L4.74799 70.8894L4.74799 69.8954L3.58599 69.8954L3.23599 68.4954L4.74799 68.4954L4.74799 66.6754L5.02799 66.6754L5.16799 68.4954L10.18 68.4954C11.1693 68.4954 11.664 68.1407 11.664 67.4314C11.664 67.2821 11.6407 67.1421 11.594 67.0114C11.5473 66.8714 11.5007 66.7641 11.454 66.6894C11.4073 66.6054 11.3747 66.5541 11.356 66.5354L11.58 66.3534C11.9533 66.7734 12.14 67.2774 12.14 67.8654ZM11.72 65.2939L11.58 64.3139L1.21999 64.3139L1.07999 65.2939L0.79999 65.2939L0.79999 62.9139L6.25999 62.9139C5.75599 62.5686 5.35932 62.1626 5.06999 61.6959C4.77132 61.2292 4.62199 60.7252 4.62199 60.1839C4.62199 59.5119 4.78999 58.9846 5.12599 58.6019C5.46199 58.2099 5.96132 58.0139 6.62399 58.0139L11.58 58.0139L11.72 57.0339L12 57.0339L12 60.2539L11.72 60.2539L11.58 59.4139L6.65199 59.4139C6.16666 59.4139 5.79332 59.5119 5.53199 59.7079C5.26132 59.9039 5.12599 60.2072 5.12599 60.6179C5.12599 61.0472 5.28466 61.4626 5.60199 61.8639C5.90999 62.2559 6.29266 62.6059 6.74999 62.9139L11.58 62.9139L11.72 62.0739L12 62.0739L12 65.2939L11.72 65.2939ZM12.14 51.7852C12.14 52.4759 11.986 53.1012 11.678 53.6612C11.3607 54.2212 10.9173 54.6645 10.348 54.9912C9.77866 55.3179 9.12066 55.4812 8.37399 55.4812C7.62732 55.4812 6.97399 55.3225 6.41399 55.0052C5.84466 54.6785 5.40599 54.2445 5.09799 53.7032C4.78066 53.1525 4.62199 52.5412 4.62199 51.8692C4.62199 51.2812 4.75266 50.7539 5.01399 50.2872C5.27532 49.8205 5.63932 49.4565 6.10599 49.1952C6.56332 48.9339 7.09066 48.7985 7.68799 48.7892L7.68799 53.9412L9.07399 53.9412C9.89532 53.9412 10.5627 53.7592 11.076 53.3952C11.58 53.0219 11.832 52.4852 11.832 51.7852C11.832 51.1412 11.65 50.5719 11.286 50.0772C10.922 49.5825 10.4507 49.2792 9.87199 49.1672L9.87199 48.8452C10.5627 48.9759 11.1133 49.3072 11.524 49.8392C11.9347 50.3712 12.14 51.0199 12.14 51.7852ZM7.33799 50.3292C6.52599 50.3292 5.92399 50.4552 5.53199 50.7072C5.13066 50.9592 4.92999 51.3512 4.92999 51.8832C4.92999 52.5085 5.14932 52.9939 5.58799 53.3392C6.02666 53.6845 6.60999 53.8805 7.33799 53.9272L7.33799 50.3292ZM12.14 34.7919C12.14 35.3146 12.014 35.7066 11.762 35.9679C11.51 36.2293 11.0807 36.4066 10.474 36.4999L8.59799 36.7659C7.96332 36.8593 7.46866 37.0786 7.11399 37.4239C6.74999 37.7599 6.56799 38.2873 6.56799 39.0059L6.56799 40.0979L11.496 40.0979L11.706 38.8099L12 38.8099L12 42.9259L11.706 42.9259L11.496 41.6379L1.30399 41.6379L1.10799 42.9259L0.799989 42.9259L0.799989 39.0059C0.799989 37.4846 1.03799 36.3833 1.51399 35.7019C1.98999 35.0206 2.71332 34.6799 3.68399 34.6799C5.28932 34.6799 6.21799 35.6506 6.46999 37.5919L6.55399 37.5919C6.65666 36.8733 6.91332 36.2993 7.32399 35.8699C7.73466 35.4313 8.28066 35.1559 8.96199 35.0439L10.166 34.8619C10.6887 34.7873 11.0433 34.7033 11.23 34.6099C11.4167 34.5073 11.51 34.3533 11.51 34.1479C11.51 34.0079 11.468 33.8586 11.384 33.6999C11.2907 33.5413 11.174 33.3919 11.034 33.2519L11.286 33.0139C11.594 33.2846 11.8133 33.5646 11.944 33.8539C12.0747 34.1433 12.14 34.4559 12.14 34.7919ZM6.23199 38.5299C6.23199 37.8486 6.02666 37.3213 5.61599 36.9479C5.19599 36.5653 4.57999 36.3739 3.76799 36.3739L3.47399 36.3739C1.92466 36.3739 1.14999 37.2513 1.14999 39.0059L1.14999 40.0979L6.23199 40.0979L6.23199 38.5299ZM12.14 28.3861C12.14 29.0581 11.986 29.6694 11.678 30.2201C11.3607 30.7707 10.9173 31.2094 10.348 31.5361C9.76932 31.8534 9.11132 32.0121 8.37399 32.0121C7.63666 32.0121 6.98332 31.8534 6.41399 31.5361C5.84466 31.2094 5.40599 30.7707 5.09799 30.2201C4.78066 29.6694 4.62199 29.0581 4.62199 28.3861C4.62199 27.7141 4.78066 27.1027 5.09799 26.5521C5.40599 26.0014 5.84466 25.5674 6.41399 25.2501C6.98332 24.9234 7.63666 24.7601 8.37399 24.7601C9.11132 24.7601 9.76932 24.9234 10.348 25.2501C10.9173 25.5674 11.3607 26.0014 11.678 26.5521C11.986 27.1027 12.14 27.7141 12.14 28.3861ZM11.832 28.3861C11.832 27.6954 11.58 27.1774 11.076 26.8321C10.572 26.4774 9.90466 26.3001 9.07399 26.3001L7.67399 26.3001C6.84332 26.3001 6.18066 26.4774 5.68599 26.8321C5.18199 27.1774 4.92999 27.6954 4.92999 28.3861C4.92999 29.0767 5.18199 29.5994 5.68599 29.9541C6.18066 30.2994 6.84332 30.4721 7.67399 30.4721L9.07399 30.4721C9.90466 30.4721 10.572 30.2994 11.076 29.9541C11.58 29.5994 11.832 29.0767 11.832 28.3861ZM12.14 19.2368C12.14 19.9088 11.986 20.5202 11.678 21.0708C11.3607 21.6215 10.9173 22.0602 10.348 22.3868C9.76932 22.7042 9.11132 22.8628 8.37399 22.8628C7.59932 22.8628 6.92732 22.6948 6.35799 22.3588C5.78866 22.0135 5.35932 21.5655 5.06999 21.0148C4.77132 20.4642 4.62199 19.8715 4.62199 19.2368C4.62199 18.7048 4.71532 18.2195 4.90199 17.7808C5.07932 17.3422 5.33132 16.9968 5.65799 16.7448C5.98465 16.4835 6.35332 16.3528 6.76399 16.3528C7.07199 16.3528 7.30999 16.4322 7.47799 16.5908C7.63665 16.7495 7.71599 16.9595 7.71599 17.2208C7.71599 17.4728 7.63199 17.6828 7.46399 17.8508C7.29599 18.0188 7.08599 18.1028 6.83399 18.1028C6.74065 17.9628 6.63799 17.8648 6.52599 17.8088C6.41399 17.7528 6.27399 17.7248 6.10599 17.7248C5.76065 17.7248 5.48065 17.8648 5.26599 18.1448C5.04199 18.4155 4.92999 18.7795 4.92999 19.2368C4.92999 19.9088 5.17266 20.4268 5.65799 20.7908C6.13399 21.1455 6.80599 21.3228 7.67399 21.3228L9.07399 21.3228C9.90466 21.3228 10.572 21.1502 11.076 20.8048C11.58 20.4502 11.832 19.9275 11.832 19.2368C11.832 18.6022 11.6547 18.0515 11.3 17.5848C10.936 17.1088 10.46 16.8148 9.87199 16.7028L9.87199 16.3808C10.5627 16.5115 11.1133 16.8382 11.524 17.3608C11.9347 17.8742 12.14 18.4995 12.14 19.2368ZM12 14.8286L11.72 14.8286L11.58 13.8486L1.21999 13.8486L1.07999 14.8286L0.799988 14.8286L0.799988 12.4486L7.98199 12.4486L5.34999 9.24258L5.02799 10.4606L4.74799 10.4606L4.74799 7.82858L5.02799 7.82858L5.34999 8.72458L7.25399 11.0486L11.594 7.77258L11.72 7.01658L12 7.01658L12 10.2926L11.72 10.2926L11.58 9.45258L8.10799 12.0846L8.41599 12.4486L11.58 12.4486L11.72 11.6086L12 11.6086L12 14.8286ZM12.14 3.13258C12.14 3.89792 11.9767 4.53725 11.65 5.05058C11.3233 5.56392 10.8987 5.82058 10.376 5.82058C10.1053 5.82058 9.89532 5.75058 9.74599 5.61058C9.58732 5.46125 9.50799 5.26525 9.50799 5.02258C9.50799 4.83592 9.55465 4.67725 9.64799 4.54658C9.74132 4.41592 9.87199 4.32258 10.04 4.26658C10.264 4.47192 10.502 4.57458 10.754 4.57458C11.0433 4.57458 11.2953 4.44392 11.51 4.18258C11.7247 3.92125 11.832 3.57125 11.832 3.13258C11.832 2.54458 11.7013 2.06392 11.44 1.69058C11.1693 1.31725 10.81 1.13058 10.362 1.13058C10.1007 1.13058 9.90465 1.20992 9.77399 1.36858C9.64332 1.52725 9.49399 1.83525 9.32599 2.29258L8.55599 4.40658C8.25732 5.23725 7.70199 5.65258 6.88999 5.65258C6.22732 5.65258 5.68599 5.42392 5.26599 4.96658C4.83665 4.50925 4.62199 3.87925 4.62199 3.07658C4.62199 2.41392 4.77599 1.84925 5.08399 1.38258C5.38265 0.906584 5.81199 0.668584 6.37199 0.668584C6.59599 0.668584 6.77799 0.72925 6.91799 0.850583C7.04865 0.971917 7.11399 1.13058 7.11399 1.32658C7.11399 1.52258 7.06265 1.68592 6.95999 1.81658C6.84799 1.93792 6.69865 1.99858 6.51199 1.99858C6.41865 1.87725 6.32065 1.79325 6.21799 1.74658C6.10599 1.69992 5.97532 1.67658 5.82599 1.67658C5.56465 1.67658 5.34999 1.79325 5.18199 2.02658C5.01399 2.25058 4.92999 2.60058 4.92999 3.07658C4.92999 3.48725 4.99532 3.84192 5.12599 4.14058C5.24732 4.42992 5.41065 4.64925 5.61599 4.79858C5.82132 4.94792 6.03132 5.02258 6.24599 5.02258C6.46999 5.02258 6.64732 4.94325 6.77799 4.78458C6.90865 4.61658 7.05332 4.31325 7.21199 3.87458L7.91199 1.91458C8.07999 1.45725 8.31332 1.11192 8.61199 0.878583C8.91065 0.64525 9.29799 0.528583 9.77399 0.528583C10.4553 0.528583 11.02 0.74325 11.468 1.17258C11.916 1.60192 12.14 2.25525 12.14 3.13258Z" fill="white"/>
</svg>
