<svg width="85" height="84" viewBox="0 0 85 84" fill="none" xmlns="http://www.w3.org/2000/svg">
<g opacity="0.7">
<path d="M28.8548 48.0859V47.7919L30.1428 47.5819V37.2359H27.8328L26.7688 40.0079H26.3628V36.8859H35.4768V40.0079H35.0568L34.0068 37.2359H31.6828V47.5819L32.9708 47.7919V48.0859H28.8548ZM42.5495 48.3659C41.5322 48.3659 40.6222 48.1186 39.8195 47.6239C39.0168 47.1293 38.3915 46.4386 37.9435 45.5519C37.4955 44.6559 37.2715 43.6339 37.2715 42.4859C37.2715 41.3379 37.4955 40.3206 37.9435 39.4339C38.3915 38.5379 39.0168 37.8426 39.8195 37.3479C40.6222 36.8533 41.5322 36.6059 42.5495 36.6059C43.5668 36.6059 44.4768 36.8533 45.2795 37.3479C46.0822 37.8426 46.7075 38.5379 47.1555 39.4339C47.6035 40.3206 47.8275 41.3379 47.8275 42.4859C47.8275 43.6339 47.6035 44.6559 47.1555 45.5519C46.7075 46.4386 46.0822 47.1293 45.2795 47.6239C44.4768 48.1186 43.5668 48.3659 42.5495 48.3659ZM42.5495 48.0439C43.2215 48.0439 43.8235 47.8666 44.3555 47.5119C44.8968 47.1573 45.3215 46.6439 45.6295 45.9719C45.9375 45.2906 46.0915 44.4879 46.0915 43.5639V41.4079C46.0915 40.4839 45.9375 39.6859 45.6295 39.0139C45.3215 38.3326 44.8968 37.8146 44.3555 37.4599C43.8235 37.1053 43.2215 36.9279 42.5495 36.9279C41.8682 36.9279 41.2615 37.1053 40.7295 37.4599C40.1975 37.8146 39.7775 38.3326 39.4695 39.0139C39.1615 39.6859 39.0075 40.4839 39.0075 41.4079V43.5639C39.0075 44.4879 39.1615 45.2906 39.4695 45.9719C39.7775 46.6439 40.1975 47.1573 40.7295 47.5119C41.2615 47.8666 41.8682 48.0439 42.5495 48.0439ZM49.8478 47.7919L51.1358 47.5819V37.3899L49.8478 37.1939V36.8859H54.2438C55.6251 36.8859 56.6518 37.1799 57.3238 37.7679C57.9958 38.3559 58.3318 39.2053 58.3318 40.3159C58.3318 41.4266 57.9958 42.2759 57.3238 42.8639C56.6518 43.4519 55.6251 43.7459 54.2438 43.7459H52.6758V47.5819L53.9638 47.7919V48.0859H49.8478V47.7919ZM54.0478 43.4099C55.7744 43.4099 56.6378 42.4719 56.6378 40.5959V40.0359C56.6378 38.1693 55.7744 37.2359 54.0478 37.2359H52.6758V43.4099H54.0478Z" fill="white"/>
<path d="M75.9719 43.253L76.1396 43.2622L76.2191 44.0036L82.1222 44.3279L82.1946 43.0099L80.6463 42.3159L80.6591 42.0843L82.4404 42.1821L82.1547 47.3823L80.3734 47.2844L80.3866 47.0448L82.0011 46.5326L82.0739 45.2066L76.1708 44.8823L76.0106 45.6106L75.8429 45.6014L75.9719 43.253Z" fill="white"/>
<path d="M75.5475 48.2319L75.4868 48.7943L81.2236 50.2555L81.4394 49.7326L81.5944 49.772L81.2588 51.09L78.2353 50.3199C78.4657 50.5822 78.6281 50.863 78.7225 51.1622C78.822 51.4628 78.8336 51.7629 78.7573 52.0627C78.6625 52.4348 78.4951 52.7031 78.2551 52.8676C78.0137 53.0373 77.7096 53.0754 77.3426 52.9819L74.5982 52.283L74.3825 52.8059L74.2275 52.7664L74.6816 50.9833L74.8366 51.0228L74.7957 51.5077L77.5246 52.2027C77.7933 52.2712 78.0139 52.2696 78.1862 52.1979C78.3638 52.1275 78.4815 51.9787 78.5394 51.7513C78.6 51.5135 78.5707 51.2611 78.4516 50.9941C78.3363 50.7336 78.1737 50.4859 77.9639 50.2508L75.2893 49.5696L75.0933 50.015L74.9383 49.9755L75.3924 48.1924L75.5475 48.2319Z" fill="white"/>
<path d="M72.494 56.2984C72.6593 55.94 72.8889 55.6524 73.1827 55.4356C73.4814 55.2209 73.8176 55.097 74.1912 55.0638C74.5648 55.0306 74.9453 55.1033 75.3327 55.282C75.7202 55.4608 76.0212 55.6995 76.2358 55.9982C76.4531 56.3039 76.5768 56.6341 76.607 56.9887C76.6399 57.3504 76.5759 57.7056 76.415 58.0543C76.2743 58.3594 76.0803 58.6018 75.833 58.7813C75.5857 58.9609 75.3097 59.0627 75.005 59.0866C74.7051 59.1127 74.3991 59.0567 74.0869 58.9186L75.3201 56.2453L74.6009 55.9136C74.1747 55.717 73.7849 55.6517 73.4314 55.7177C73.0806 55.7908 72.8213 56.0089 72.6538 56.3721C72.4996 56.7063 72.4578 57.0453 72.5283 57.3891C72.5987 57.7329 72.7707 58.0031 73.0442 58.1997L72.9671 58.3668C72.64 58.1337 72.4336 57.8299 72.3478 57.4556C72.2621 57.0813 72.3108 56.6955 72.494 56.2984ZM74.6371 58.2033C75.0585 58.3976 75.401 58.4764 75.6647 58.4394C75.9333 58.4047 76.1312 58.2494 76.2586 57.9733C76.4082 57.6488 76.4106 57.3445 76.2657 57.0603C76.1207 56.7761 75.8649 56.5348 75.4983 56.3364L74.6371 58.2033Z" fill="white"/>
<path d="M66.8811 64.5349C67.0656 64.3 67.2606 64.1683 67.466 64.1398C67.6715 64.1113 67.9271 64.1832 68.2326 64.3553L69.1696 64.8979C69.4878 65.0799 69.7875 65.1559 70.0688 65.1259C70.351 65.1034 70.6189 64.9306 70.8725 64.6076L71.2579 64.1169L69.0432 62.3776L68.4942 62.8824L68.3621 62.7786L69.8148 60.9288L69.9469 61.0326L69.5867 61.6855L74.1671 65.2826L74.7098 64.7729L74.8482 64.8816L73.4647 66.6433C72.9278 67.327 72.4321 67.738 71.9777 67.8762C71.5234 68.0144 71.0781 67.9122 70.6418 67.5696C69.9204 67.0031 69.8456 66.2391 70.4175 65.2777L70.3797 65.248C70.08 65.5348 69.762 65.7022 69.426 65.7502C69.0866 65.8024 68.744 65.7334 68.3983 65.5433L67.793 65.2002C67.5317 65.0493 67.3427 64.9618 67.2259 64.9379C67.1057 64.9182 67.0094 64.9544 66.937 65.0467C66.8876 65.1096 66.8537 65.1916 66.8355 65.2925C66.8214 65.3968 66.8212 65.505 66.8347 65.6174L66.6374 65.6354C66.5945 65.4051 66.5948 65.2018 66.6382 65.0257C66.6816 64.8495 66.7625 64.6859 66.8811 64.5349ZM70.8555 64.9401C70.615 65.2463 70.5212 65.5558 70.574 65.8685C70.6277 66.1887 70.837 66.4921 71.2019 66.7787L71.3341 66.8825C72.0304 67.4293 72.6881 67.3084 73.3074 66.5198L73.6928 66.029L71.4089 64.2355L70.8555 64.9401Z" fill="white"/>
<path d="M63.9814 67.0705C64.2763 66.8083 64.6018 66.6367 64.9579 66.5556C65.3176 66.4785 65.6752 66.4995 66.0309 66.6187C66.3866 66.7378 66.7061 66.9568 66.9896 67.2757C67.2731 67.5945 67.4534 67.9338 67.5304 68.2934C67.6071 68.6606 67.5883 69.0127 67.474 69.3498C67.3593 69.6944 67.1585 69.9942 66.8715 70.2494C66.6204 70.4726 66.3456 70.617 66.0471 70.6826C65.7485 70.7481 65.4549 70.7309 65.1661 70.6308C64.8809 70.5347 64.6229 70.3609 64.3921 70.1093L66.5924 68.1533L66.0662 67.5614C65.7543 67.2106 65.4232 66.9947 65.0729 66.9137C64.7221 66.8402 64.3972 66.9363 64.0983 67.2021C63.8233 67.4466 63.6492 67.7405 63.5761 68.0837C63.5031 68.427 63.5525 68.7434 63.7243 69.0331L63.5868 69.1553C63.3804 68.8108 63.3129 68.4498 63.3841 68.0724C63.4554 67.6951 63.6545 67.3611 63.9814 67.0705ZM65.1827 69.6741C65.4909 70.0209 65.7733 70.2302 66.0298 70.3019C66.2898 70.3776 66.5333 70.3145 66.7605 70.1125C67.0276 69.8751 67.1516 69.5972 67.1325 69.2787C67.1135 68.9603 66.9757 68.6367 66.7193 68.3081L65.1827 69.6741Z" fill="white"/>
<path d="M61.6773 69.1526L61.2465 69.5192L63.2027 72.6173L63.7189 72.386L63.8043 72.5213L62.6544 73.2473L62.1931 72.5168C62.18 72.8657 62.1048 73.1812 61.9676 73.4634C61.8333 73.75 61.6353 73.9759 61.3737 74.1411C61.049 74.3461 60.743 74.4258 60.4556 74.3802C60.1637 74.3375 59.9166 74.156 59.7145 73.8358L58.2025 71.4412L57.6863 71.6725L57.6009 71.5373L59.1567 70.5549L59.2421 70.6902L58.8789 71.0141L60.3824 73.3952C60.5304 73.6297 60.6917 73.7802 60.8661 73.8466C61.0434 73.9176 61.2313 73.8905 61.4297 73.7652C61.6371 73.6342 61.7894 73.4308 61.8865 73.1551C61.9819 72.8866 62.0343 72.595 62.0436 72.28L60.57 69.9463L60.1215 70.1349L60.036 69.9996L61.5919 69.0173L61.6773 69.1526Z" fill="white"/>
<path d="M54.7846 72.5562C55.1012 72.4285 55.3938 72.4054 55.6624 72.4868C55.933 72.5732 56.1342 72.7796 56.2659 73.106C56.4534 73.5709 56.3907 73.9787 56.0778 74.3292C55.7669 74.6846 55.3542 74.9661 54.8398 75.1736L54.3428 75.3742L54.5732 75.9454C54.677 76.2026 54.7865 76.3885 54.9017 76.503C55.014 76.6245 55.1404 76.6885 55.2811 76.6951C55.4237 76.7065 55.5964 76.6714 55.7992 76.5895C56.0317 76.4958 56.1858 76.3789 56.2617 76.2391C56.3395 76.1042 56.3475 75.96 56.2857 75.8067C56.2278 75.6633 56.1207 75.5972 55.9642 75.6086C55.9143 75.4849 55.9174 75.3572 55.9735 75.2253C56.0296 75.0934 56.1219 75.0015 56.2505 74.9496C56.389 74.8938 56.5152 74.886 56.6292 74.9262C56.7452 74.9715 56.8352 75.0732 56.899 75.2315C57.0147 75.5184 56.9641 75.8062 56.747 76.095C56.53 76.3839 56.2063 76.6151 55.776 76.7887C54.7868 77.1877 54.1186 76.957 53.7715 76.0963L52.9155 73.9745C52.8716 73.8657 52.8154 73.7906 52.747 73.7492C52.6755 73.7147 52.5953 73.7155 52.5063 73.7514C52.4222 73.7853 52.3664 73.8394 52.3389 73.9138C52.3134 73.9931 52.3206 74.0822 52.3605 74.1811L52.2047 74.244C52.1349 74.0709 52.1369 73.9119 52.2107 73.7671C52.2796 73.6243 52.413 73.513 52.6108 73.4332C52.8384 73.3414 53.0572 73.3279 53.2673 73.3926C53.4745 73.4643 53.6365 73.6376 53.7532 73.9126C53.7701 73.6125 53.8733 73.3408 54.0627 73.0976C54.2472 72.8564 54.4879 72.6759 54.7846 72.5562ZM54.5083 73.0473C54.3747 73.1012 54.2547 73.1956 54.1481 73.3306C54.0366 73.4676 53.9613 73.6302 53.9222 73.8185C53.8852 74.0118 53.8996 74.2187 53.9657 74.4394L54.2769 75.2109L54.774 75.0104C55.1796 74.8468 55.4468 74.6326 55.5758 74.3678C55.7018 74.1099 55.699 73.8178 55.5673 73.4913C55.4576 73.2193 55.3154 73.0523 55.141 72.9905C54.9665 72.9286 54.7556 72.9475 54.5083 73.0473Z" fill="white"/>
<path d="M51.4684 79.0204C51.6133 78.9841 51.7497 79.0021 51.8779 79.0745C52.0073 79.152 52.0901 79.2632 52.1265 79.408C52.1628 79.5529 52.1441 79.6868 52.0705 79.8097C51.9917 79.9339 51.8773 80.0149 51.7272 80.0525C51.5876 80.0875 51.4562 80.0682 51.3333 79.9946C51.2104 79.9209 51.1307 79.8117 51.0944 79.6668C51.0581 79.522 51.0761 79.3855 51.1484 79.2574C51.2221 79.1344 51.3287 79.0555 51.4684 79.0204ZM51.0572 73.8945L51.0961 74.0497L50.5724 74.2635L51.4617 77.8097L52.0244 77.7511L52.0633 77.9063L50.7441 78.2371L49.7964 74.4581L49.2338 74.5167L49.1949 74.3615L51.0572 73.8945Z" fill="white"/>
<path d="M46.2411 74.7578C46.6739 74.695 47.0489 74.7349 47.366 74.8776C47.6831 75.0202 47.8631 75.2393 47.906 75.5348C47.9282 75.6879 47.9058 75.8124 47.8389 75.9083C47.7675 76.0103 47.6631 76.0713 47.5259 76.0912C47.4203 76.1065 47.3268 76.0931 47.2452 76.0511C47.1637 76.009 47.1002 75.9428 47.0547 75.8524C47.1525 75.7088 47.191 75.5658 47.1703 75.4233C47.1466 75.2597 47.052 75.1279 46.8866 75.028C46.7212 74.928 46.5145 74.896 46.2664 74.932C45.9339 74.9803 45.6728 75.0936 45.4831 75.272C45.2942 75.4557 45.2181 75.6742 45.2549 75.9276C45.2763 76.0754 45.3373 76.1797 45.4377 76.2406C45.5382 76.3014 45.7246 76.3606 45.997 76.4181L47.2557 76.6801C47.7499 76.7808 48.0304 77.0608 48.097 77.52C48.1514 77.8947 48.0665 78.2196 47.8423 78.4946C47.6189 78.775 47.2803 78.948 46.8264 79.0139C46.4516 79.0683 46.1197 79.0275 45.8305 78.8917C45.5368 78.7618 45.367 78.5386 45.321 78.2219C45.3026 78.0952 45.322 77.9873 45.3791 77.8982C45.437 77.8143 45.5214 77.7644 45.6322 77.7483C45.7431 77.7322 45.8397 77.7478 45.922 77.7952C45.9998 77.8485 46.0463 77.928 46.0617 78.0336C46.0007 78.0963 45.9612 78.1586 45.9433 78.2205C45.9261 78.2877 45.9236 78.3635 45.9359 78.4479C45.9573 78.5957 46.0409 78.7075 46.1866 78.7834C46.3271 78.86 46.5319 78.8788 46.8011 78.8397C47.0333 78.806 47.2285 78.74 47.3867 78.6416C47.5404 78.5492 47.651 78.4389 47.7186 78.3105C47.7862 78.1821 47.8112 78.0572 47.7936 77.9359C47.7752 77.8092 47.7158 77.7154 47.6153 77.6545C47.5096 77.5944 47.3262 77.5375 47.0651 77.4838L45.8993 77.2487C45.6269 77.1913 45.4124 77.0877 45.256 76.9379C45.0995 76.7882 45.0018 76.5787 44.9627 76.3095C44.9068 75.9242 44.9818 75.5873 45.1879 75.2987C45.3939 75.0101 45.745 74.8298 46.2411 74.7578Z" fill="white"/>
<path d="M42.0173 75.0157C42.4545 75.0057 42.8219 75.0907 43.1194 75.2706C43.4169 75.4505 43.569 75.6898 43.5758 75.9884C43.5794 76.143 43.5421 76.2639 43.4641 76.351C43.3808 76.4436 43.2699 76.4915 43.1313 76.4947C43.0246 76.4971 42.9334 76.4725 42.8575 76.4209C42.7817 76.3693 42.7266 76.2958 42.6925 76.2006C42.8068 76.0699 42.8624 75.9326 42.8591 75.7887C42.8553 75.6234 42.7774 75.4811 42.6253 75.3619C42.4732 75.2427 42.2719 75.1859 42.0213 75.1916C41.6854 75.1993 41.4125 75.2802 41.2026 75.4344C40.9928 75.5938 40.8909 75.8016 40.8967 76.0575C40.9001 76.2068 40.948 76.3177 41.0404 76.3903C41.1327 76.4629 41.3106 76.5442 41.574 76.6342L42.7918 77.0465C43.2702 77.2063 43.5147 77.5182 43.5253 77.9821C43.5339 78.3606 43.4103 78.6729 43.1545 78.9188C42.8989 79.17 42.5418 79.3008 42.0832 79.3113C41.7046 79.3199 41.38 79.2393 41.1094 79.0694C40.8336 78.905 40.6921 78.6628 40.6848 78.3429C40.6819 78.2149 40.7141 78.1102 40.7816 78.0286C40.8492 77.9524 40.939 77.913 41.051 77.9104C41.163 77.9079 41.257 77.9351 41.3329 77.992C41.4037 78.0544 41.4403 78.139 41.4427 78.2456C41.3746 78.3005 41.3279 78.3576 41.3026 78.4168C41.2774 78.4814 41.2658 78.5564 41.2677 78.6417C41.2711 78.791 41.3406 78.9121 41.4761 79.005C41.6062 79.0981 41.8073 79.1415 42.0792 79.1353C42.3138 79.13 42.5156 79.088 42.6845 79.0095C42.8482 78.9364 42.9714 78.8402 43.054 78.721C43.1366 78.6018 43.1766 78.4808 43.1738 78.3582C43.1708 78.2302 43.1232 78.1299 43.0309 78.0574C42.9332 77.9849 42.758 77.9062 42.5054 77.8213L41.3765 77.4469C41.1131 77.3569 40.9127 77.2281 40.7756 77.0605C40.6384 76.8929 40.5667 76.6732 40.5605 76.4012C40.5516 76.012 40.6669 75.6866 40.9063 75.4251C41.1457 75.1636 41.5161 75.0271 42.0173 75.0157Z" fill="white"/>
<path d="M38.0214 74.7777C38.3605 74.8165 38.6287 74.9357 38.826 75.1354C39.0226 75.3404 39.101 75.6177 39.061 75.9675C39.004 76.4656 38.7544 76.794 38.3122 76.9528C37.8694 77.1169 37.3724 77.1674 36.8213 77.1044L36.2888 77.0435L36.2188 77.6555C36.1873 77.9311 36.1949 78.1467 36.2415 78.3023C36.2822 78.4626 36.3628 78.5792 36.4833 78.652C36.6032 78.7302 36.7718 78.7817 36.9891 78.8065C37.2381 78.835 37.4293 78.8058 37.5627 78.7191C37.6955 78.6376 37.7713 78.5148 37.7901 78.3505C37.8076 78.1969 37.7449 78.0877 37.602 78.023C37.6172 77.8906 37.6808 77.7798 37.793 77.6906C37.9052 77.6014 38.0302 77.5647 38.168 77.5805C38.3163 77.5974 38.431 77.6508 38.512 77.7406C38.5924 77.8357 38.6229 77.968 38.6035 78.1375C38.5684 78.4449 38.3865 78.6737 38.058 78.824C37.7295 78.9743 37.3347 79.0232 36.8737 78.9704C35.8139 78.8493 35.3368 78.3277 35.4422 77.4057L35.7021 75.1325C35.7154 75.0159 35.7019 74.9231 35.6614 74.8541C35.6151 74.7898 35.5443 74.7521 35.4489 74.7412C35.3588 74.7309 35.2839 74.7519 35.2243 74.8041C35.164 74.8616 35.1278 74.9434 35.1157 75.0494L34.9488 75.0303C34.97 74.8448 35.0476 74.7061 35.1816 74.614C35.3103 74.5214 35.4806 74.4872 35.6926 74.5114C35.9363 74.5393 36.1351 74.6318 36.2889 74.789C36.4368 74.9508 36.4965 75.1804 36.4678 75.4777C36.6259 75.222 36.8462 75.0325 37.1287 74.9091C37.4059 74.7851 37.7035 74.7413 38.0214 74.7777ZM37.5443 75.0774C37.4012 75.0611 37.2506 75.0868 37.0926 75.1546C36.9292 75.2218 36.7855 75.3289 36.6613 75.4757C36.5366 75.6278 36.4505 75.8166 36.4033 76.0421L36.3088 76.8687L36.8413 76.9296C37.2758 76.9792 37.6129 76.9185 37.8526 76.7472C38.0863 76.5807 38.2232 76.3226 38.2632 75.9729C38.2965 75.6814 38.2513 75.4669 38.1274 75.3293C38.0036 75.1917 37.8092 75.1077 37.5443 75.0774Z" fill="white"/>
<path d="M34.0216 74.3541L33.461 74.2786L32.4638 77.8043L32.9809 78.0337L32.9373 78.1877L31.6287 77.8175L31.8638 76.9862C31.5956 77.2096 31.3106 77.3645 31.009 77.4511C30.706 77.5427 30.4056 77.5464 30.108 77.4622C29.7385 77.3577 29.4746 77.1833 29.3165 76.9391C29.1532 76.6933 29.1231 76.3883 29.2261 76.0239L29.9969 73.2988L29.4798 73.0694L29.5234 72.9155L31.2939 73.4163L31.2504 73.5702L30.7667 73.5166L30.0003 76.2263C29.9248 76.4931 29.9206 76.7137 29.9878 76.8878C30.0534 77.0671 30.1992 77.1887 30.425 77.2526C30.6611 77.3194 30.9141 77.2967 31.1841 77.1847C31.4476 77.0763 31.6995 76.9203 31.94 76.7167L32.6912 74.0609L32.2511 73.8533L32.2947 73.6993L34.0652 74.2001L34.0216 74.3541Z" fill="white"/>
<path d="M26.1109 71.1296C26.4561 71.2978 26.7315 71.53 26.9373 71.826C27.1407 72.1269 27.2551 72.4644 27.2804 72.8387C27.2985 73.2153 27.2153 73.5931 27.0307 73.9718C26.8368 74.3697 26.5823 74.6729 26.2672 74.8812C25.9473 75.0872 25.6096 75.1956 25.2544 75.2064C24.8967 75.222 24.5549 75.1503 24.2289 74.9914C23.9556 74.8583 23.7297 74.6888 23.5511 74.4831C23.3701 74.2822 23.2558 74.0663 23.2081 73.8354C23.1557 73.6022 23.1808 73.3801 23.2836 73.1692C23.3607 73.011 23.4611 72.9086 23.5846 72.862C23.7059 72.8202 23.8336 72.832 23.9678 72.8975C24.0973 72.9605 24.1841 73.0563 24.2284 73.1846C24.2726 73.313 24.2632 73.4419 24.2001 73.5713C24.1048 73.5842 24.0288 73.6124 23.972 73.6559C23.9152 73.6994 23.8658 73.7643 23.8237 73.8506C23.7372 74.028 23.7391 74.2069 23.8292 74.3873C23.9121 74.5701 24.0711 74.7187 24.306 74.8332C24.6512 75.0015 24.978 75.0065 25.2865 74.8483C25.5878 74.6926 25.8471 74.3918 26.0644 73.9459L26.4149 73.2267C26.6228 72.8 26.7012 72.414 26.65 72.0687C26.5939 71.721 26.3886 71.4607 26.0338 71.2878C25.7078 71.1289 25.3805 71.0822 25.052 71.1476C24.7164 71.2154 24.4462 71.3863 24.2415 71.6603L24.0761 71.5797C24.3161 71.2576 24.6217 71.0565 24.993 70.9764C25.3595 70.894 25.7321 70.945 26.1109 71.1296Z" fill="white"/>
<path d="M21.5889 68.2895C21.9123 68.5158 22.1546 68.7927 22.3159 69.1204C22.4742 69.4524 22.5365 69.8052 22.5029 70.1788C22.4694 70.5524 22.3303 70.9139 22.0857 71.2635C21.8411 71.6131 21.5528 71.867 21.2208 72.0253C20.8813 72.1848 20.5344 72.248 20.18 72.2149C19.8183 72.1831 19.4801 72.0571 19.1654 71.837C18.8901 71.6443 18.686 71.4104 18.5531 71.1352C18.4203 70.8599 18.3691 70.5703 18.3996 70.2662C18.4271 69.9664 18.5364 69.6752 18.7278 69.3925L21.1399 71.0802L21.594 70.4313C21.863 70.0467 21.9964 69.6747 21.9942 69.3151C21.9845 68.9568 21.8158 68.663 21.488 68.4337C21.1865 68.2227 20.8603 68.1214 20.5095 68.1298C20.1586 68.1382 19.8622 68.2595 19.6202 68.4937L19.4694 68.3883C19.7569 68.1077 20.0924 67.9584 20.476 67.9404C20.8596 67.9224 21.2306 68.0388 21.5889 68.2895ZM19.3341 70.0608C19.0681 70.441 18.9299 70.7641 18.9195 71.0302C18.906 71.3007 19.0238 71.5231 19.2729 71.6973C19.5657 71.9022 19.8647 71.9585 20.1701 71.8662C20.4755 71.774 20.7584 71.5651 21.0187 71.2395L19.3341 70.0608Z" fill="white"/>
<path d="M15.6298 62.5222C16.0181 62.9548 16.2531 63.4283 16.3348 63.9426C16.4166 64.4568 16.3491 64.9725 16.1323 65.4895C15.912 66.0026 15.5557 66.48 15.0636 66.9217C14.5714 67.3635 14.0566 67.6642 13.5193 67.824C12.9743 67.9834 12.4509 67.991 11.9488 67.8469C11.4392 67.7022 10.9902 67.4136 10.6019 66.981C10.4488 66.8103 10.3236 66.6109 10.2264 66.3829C10.1256 66.1508 10.0647 65.9153 10.0436 65.6762L9.34621 65.5819L9.234 65.4568L10.7105 64.1316L10.8227 64.2567L10.2312 65.4541C10.2289 65.707 10.2737 65.9605 10.3657 66.2148C10.4542 66.465 10.5786 66.6795 10.7389 66.8581C10.9882 67.1359 11.2805 67.3179 11.6158 67.404C11.9475 67.4861 12.3037 67.4638 12.6845 67.3371C13.0652 67.2103 13.4441 66.9778 13.8212 66.6393L14.9107 65.6615C15.2878 65.3231 15.5616 64.9734 15.7322 64.6125C15.9027 64.2516 15.9688 63.902 15.9304 63.5638C15.8881 63.2292 15.7422 62.9229 15.4928 62.6451C15.3112 62.4427 15.0858 62.2794 14.8168 62.1554C14.5439 62.0349 14.2714 61.9749 13.9994 61.9753L12.731 62.4903L12.6188 62.3652L14.1489 60.9919L14.2611 61.117L14.3422 61.8182C14.5855 61.8577 14.8209 61.9403 15.0483 62.0659C15.2756 62.1915 15.4695 62.3436 15.6298 62.5222Z" fill="white"/>
<path d="M13.6475 60.0779L13.5128 60.1643L13.1216 59.7024L8.13795 62.8976L8.39445 63.4459L8.25975 63.5322L7.50412 62.3537L12.6898 59.0289L12.4549 58.5143L12.5896 58.4279L13.6475 60.0779Z" fill="white"/>
<path d="M11.2598 55.7059C11.4258 56.0522 11.4707 56.3678 11.3945 56.6528C11.316 56.933 11.106 57.155 10.7645 57.3187L8.20387 58.547L8.37393 59.0865L8.22966 59.1557L7.6415 57.9294L10.4041 56.6043C10.6494 56.4867 10.8175 56.3439 10.9085 56.1761C10.9996 56.0082 10.9943 55.8185 10.8928 55.6069C10.7867 55.3857 10.6131 55.2087 10.372 55.0759C10.1237 54.9406 9.85333 54.8455 9.56082 54.7907L6.99294 56.0223L7.16299 56.5619L7.01873 56.6311L6.43056 55.4048L9.95059 53.7164L9.78053 53.1769L9.92479 53.1077L10.513 54.334L9.8205 54.6661C10.144 54.7239 10.4318 54.8431 10.6841 55.0238C10.9341 55.1996 11.126 55.427 11.2598 55.7059Z" fill="white"/>
<path d="M8.8711 48.8186C8.94994 49.1232 8.94064 49.4066 8.8432 49.6687C8.73926 49.927 8.56717 50.1561 8.32693 50.356L9.13239 50.1475L9.47313 51.4641L9.31824 51.5042L9.10048 50.9821L3.3693 52.4654L3.43216 53.0276L3.27727 53.0676L2.93652 51.751L5.93377 50.9753C5.62671 50.9171 5.36768 50.7996 5.15666 50.6228C4.93914 50.4422 4.79096 50.1996 4.71212 49.8949C4.61725 49.5284 4.61892 49.1836 4.71715 48.8607C4.81538 48.5378 5.00193 48.2581 5.2768 48.0217C5.5465 47.7866 5.89047 47.615 6.30869 47.5068C6.72691 47.3985 7.11354 47.3811 7.46859 47.4545C7.81847 47.5292 8.11726 47.6833 8.36497 47.9166C8.60751 48.1514 8.77622 48.452 8.8711 48.8186ZM8.69752 48.9462C8.51178 48.2285 7.91808 47.9992 6.91641 48.2585L6.14193 48.4589C5.14543 48.7168 4.74005 49.2046 4.92578 49.9223C4.98458 50.1495 5.10515 50.3386 5.2875 50.4898C5.46469 50.6422 5.67832 50.7439 5.9284 50.7949C6.17332 50.8472 6.42552 50.8425 6.68502 50.7809L7.51372 50.5664C7.77704 50.4983 8.01151 50.3825 8.21713 50.2191C8.42142 50.0506 8.56921 49.8553 8.66051 49.6333C8.74532 49.4076 8.75765 49.1785 8.69752 48.9462Z" fill="white"/>
<path d="M8.01249 41.4991L7.8445 41.4978L7.73027 40.7609L1.81845 40.7145L1.8081 42.0345L3.38728 42.6549L3.38546 42.8868L1.60152 42.8729L1.64236 37.665L3.42631 37.679L3.42443 37.919L1.83577 38.5066L1.82536 39.8345L7.73717 39.8809L7.86294 39.1458L8.03094 39.1472L8.01249 41.4991Z" fill="white"/>
<path d="M8.18374 36.6015L8.21611 36.0368L2.41311 34.8656L2.2239 35.3987L2.06707 35.3671L2.33612 34.0339L5.39446 34.6512C5.15119 34.4008 4.9749 34.1285 4.86559 33.8344C4.75105 33.5393 4.72438 33.2401 4.78557 32.9368C4.86154 32.5604 5.01526 32.284 5.24672 32.1077C5.47924 31.9261 5.7811 31.8728 6.15228 31.9477L8.92831 32.5079L9.11751 31.9748L9.27435 32.0065L8.91034 33.8101L8.7535 33.7785L8.77004 33.2921L6.00969 32.735C5.73784 32.6802 5.51765 32.6928 5.34911 32.7731C5.17534 32.8523 5.06524 33.0069 5.01882 33.2369C4.97028 33.4774 5.01221 33.728 5.14459 33.9887C5.27279 34.243 5.44757 34.4824 5.66892 34.7066L8.37437 35.2526L8.54775 34.7979L8.70459 34.8296L8.34058 36.6332L8.18374 36.6015Z" fill="white"/>
<path d="M10.821 28.4019C10.6735 28.768 10.4583 29.0665 10.1754 29.2975C9.88757 29.5265 9.5579 29.6668 9.18638 29.7183C8.81485 29.7698 8.43122 29.7158 8.03549 29.5563C7.63975 29.3968 7.32738 29.1732 7.09837 28.8854C6.86641 28.5906 6.72663 28.2669 6.67903 27.9142C6.62848 27.5545 6.67497 27.1966 6.81853 26.8405C6.94413 26.5288 7.12604 26.2773 7.36423 26.0858C7.60243 25.8943 7.8731 25.7791 8.17626 25.7403C8.47447 25.6995 8.78287 25.7404 9.10145 25.863L8.00088 28.5936L8.73546 28.8897C9.17076 29.0651 9.56333 29.1112 9.91315 29.0279C10.26 28.9377 10.5082 28.7071 10.6578 28.3361C10.7953 27.9948 10.8205 27.6542 10.7332 27.3143C10.646 26.9743 10.461 26.7129 10.1782 26.5299L10.247 26.3593C10.5851 26.5761 10.8062 26.8693 10.9102 27.239C11.0142 27.6087 10.9845 27.9963 10.821 28.4019ZM8.58697 26.6045C8.15662 26.431 7.81064 26.3692 7.54905 26.419C7.28251 26.4668 7.09242 26.6317 6.97878 26.9137C6.84519 27.2451 6.85776 27.5492 7.01648 27.8259C7.17521 28.1027 7.4425 28.3312 7.81837 28.5114L8.58697 26.6045Z" fill="white"/>
<path d="M16.0333 19.8726C15.8603 20.116 15.6718 20.2568 15.4679 20.2951C15.264 20.3334 15.0053 20.2738 14.6919 20.1164L13.7301 19.6191C13.4036 19.4525 13.1006 19.3908 12.8211 19.4342C12.5403 19.4702 12.281 19.6555 12.043 19.9902L11.6815 20.4988L13.9765 22.1305L14.5008 21.6002L14.6377 21.6975L13.2749 23.6144L13.138 23.5171L13.4666 22.8477L8.71997 19.4731L8.20223 20.008L8.05878 19.906L9.35672 18.0804C9.86044 17.3719 10.3359 16.9378 10.7832 16.7781C11.2305 16.6183 11.6802 16.6992 12.1322 17.0206C12.8799 17.5521 12.991 18.3117 12.4656 19.2992L12.5047 19.3271C12.7905 19.0263 13.1 18.844 13.4335 18.78C13.77 18.7117 14.1154 18.7643 14.4698 18.9377L15.0908 19.2516C15.3589 19.3899 15.5519 19.4682 15.6698 19.4865C15.7907 19.5005 15.8852 19.4597 15.9531 19.3641C15.9995 19.2989 16.0294 19.2154 16.0428 19.1137C16.0519 19.0089 16.047 18.9007 16.0281 18.7892L16.2243 18.7618C16.2781 18.9898 16.2876 19.1928 16.2526 19.3708C16.2177 19.5489 16.1446 19.7161 16.0333 19.8726ZM12.0441 19.6573C12.2697 19.34 12.3487 19.0264 12.2811 18.7165C12.2122 18.3993 11.9886 18.1062 11.6105 17.8373L11.4735 17.74C10.752 17.227 10.1007 17.3791 9.51972 18.1963L9.15816 18.7049L11.525 20.3875L12.0441 19.6573Z" fill="white"/>
<path d="M18.7804 17.2192C18.4981 17.4951 18.1811 17.6819 17.8292 17.7796C17.4736 17.8736 17.1154 17.8695 16.7545 17.7673C16.3936 17.6651 16.064 17.4614 15.7658 17.1562C15.4676 16.8511 15.2715 16.5207 15.1776 16.1651C15.0837 15.802 15.0859 15.4494 15.1841 15.1073C15.2824 14.7577 15.4689 14.4487 15.7435 14.1803C15.9838 13.9454 16.2515 13.7882 16.5466 13.7087C16.8417 13.6291 17.1358 13.6325 17.429 13.7188C17.7185 13.8013 17.9844 13.9628 18.2268 14.2032L16.1212 16.2608L16.6748 16.8273C17.0028 17.1629 17.3437 17.363 17.6975 17.4274C18.0514 17.4843 18.3713 17.3729 18.6574 17.0933C18.9206 16.8361 19.0806 16.5344 19.1374 16.188C19.1942 15.8417 19.1299 15.5279 18.9445 15.2467L19.0761 15.1181C19.2986 15.4526 19.3831 15.81 19.3297 16.1903C19.2763 16.5706 19.0932 16.9135 18.7804 17.2192ZM17.4576 14.6752C17.1333 14.3434 16.8414 14.1477 16.5818 14.0881C16.3186 14.0247 16.0782 14.0993 15.8608 14.3117C15.6052 14.5615 15.4945 14.845 15.5285 15.1622C15.5626 15.4794 15.7155 15.796 15.9872 16.1122L17.4576 14.6752Z" fill="white"/>
<path d="M21.0532 14.9593L21.4675 14.5742L19.3779 11.5645L18.8723 11.8181L18.7811 11.6867L19.8982 10.9111L20.391 11.6208C20.3888 11.2717 20.4501 10.9532 20.5749 10.6653C20.6966 10.373 20.8845 10.1387 21.1386 9.96228C21.454 9.74328 21.7563 9.65029 22.0454 9.68329C22.3389 9.71326 22.5936 9.88377 22.8096 10.1948L24.4247 12.5211L24.9303 12.2675L25.0216 12.3989L23.5101 13.4482L23.4189 13.3168L23.7676 12.9774L22.1616 10.6642C22.0034 10.4364 21.8357 10.2931 21.6586 10.2343C21.4784 10.1711 21.2919 10.2065 21.0991 10.3403C20.8976 10.4802 20.7544 10.69 20.6694 10.9698C20.5858 11.2421 20.5462 11.5358 20.5506 11.8508L22.1247 14.118L22.5646 13.9099L22.6559 14.0414L21.1444 15.0907L21.0532 14.9593Z" fill="white"/>
<path d="M27.6424 11.3057C27.3323 11.4485 27.0412 11.4856 26.7689 11.4172C26.4945 11.3439 26.2837 11.1474 26.1365 10.8276C25.9269 10.3722 25.9699 9.96195 26.2657 9.59683C26.5592 9.22686 26.9579 8.92592 27.4618 8.69399L27.9486 8.46987L27.6911 7.9103C27.5751 7.65838 27.4568 7.47797 27.3363 7.36908C27.2183 7.25311 27.0889 7.19525 26.9481 7.19548C26.8051 7.19086 26.6342 7.23427 26.4356 7.3257C26.2079 7.43052 26.0595 7.5546 25.9905 7.69794C25.9192 7.83643 25.9181 7.98077 25.9872 8.13096C26.0519 8.27146 26.1621 8.33228 26.3178 8.31344C26.3736 8.43456 26.3766 8.56233 26.3269 8.69675C26.2773 8.83117 26.1894 8.92738 26.0635 8.98536C25.9278 9.0478 25.8021 9.06164 25.6863 9.02688C25.5682 8.98728 25.4735 8.88996 25.4022 8.73493C25.2728 8.45394 25.3096 8.16399 25.5126 7.86508C25.7155 7.56617 26.0277 7.3197 26.4492 7.12569C27.4182 6.67967 28.0966 6.87815 28.4847 7.72113L29.4414 9.79951C29.4904 9.90609 29.5502 9.97842 29.6205 10.0165C29.6935 10.0475 29.7736 10.0429 29.8608 10.0028C29.9432 9.96485 29.9963 9.90809 30.0202 9.8325C30.0419 9.75206 30.0304 9.6634 29.9858 9.56651L30.1384 9.49626C30.2165 9.66582 30.2221 9.8247 30.1553 9.97288C30.0933 10.1188 29.9654 10.2364 29.7716 10.3256C29.5488 10.4282 29.3308 10.4522 29.1178 10.3976C28.9074 10.3359 28.7374 10.1705 28.6076 9.90148C28.6051 10.2021 28.515 10.4784 28.3375 10.7304C28.1648 10.9802 27.9331 11.1719 27.6424 11.3057ZM27.8949 10.802C28.0257 10.7418 28.1411 10.6417 28.241 10.5018C28.3459 10.3596 28.4133 10.1935 28.4433 10.0036C28.471 9.80877 28.4466 9.60276 28.3701 9.38552L28.0222 8.62974L27.5353 8.85386C27.1381 9.03673 26.8814 9.26351 26.7653 9.5342C26.6518 9.79781 26.6686 10.0895 26.8158 10.4092C26.9384 10.6757 27.0884 10.8357 27.2656 10.8891C27.4429 10.9425 27.6526 10.9135 27.8949 10.802Z" fill="white"/>
<path d="M30.6272 4.67961C30.4843 4.72293 30.3471 4.71157 30.2156 4.64554C30.0826 4.5744 29.9944 4.46737 29.9511 4.32446C29.9078 4.18155 29.9199 4.04691 29.9875 3.92054C30.0602 3.79262 30.1706 3.70623 30.3186 3.66136C30.4564 3.61959 30.5885 3.63249 30.7148 3.70007C30.8412 3.76765 30.9261 3.8729 30.9694 4.01581C31.0127 4.15873 31.0013 4.29592 30.9353 4.42739C30.8677 4.55377 30.765 4.63784 30.6272 4.67961ZM31.287 9.77951L31.2406 9.62639L31.7533 9.38739L30.6927 5.88859L30.1336 5.97447L30.0872 5.82135L31.3887 5.42684L32.5189 9.15532L33.078 9.06943L33.1244 9.22255L31.287 9.77951Z" fill="white"/>
<path d="M35.9667 8.6908C35.5375 8.77473 35.161 8.75325 34.8373 8.62636C34.5136 8.49946 34.3231 8.28945 34.2658 7.99634C34.2361 7.84455 34.2523 7.7191 34.3145 7.62C34.3808 7.51464 34.482 7.44866 34.6181 7.42204C34.7228 7.40157 34.8169 7.41034 34.9004 7.44835C34.9839 7.48636 35.0506 7.5494 35.1004 7.63748C35.0099 7.78562 34.9784 7.93035 35.006 8.07167C35.0377 8.23393 35.1387 8.36092 35.3088 8.45265C35.4789 8.54437 35.6869 8.56618 35.9329 8.51807C36.2627 8.45358 36.5179 8.32759 36.6986 8.14008C36.8783 7.94735 36.9436 7.72536 36.8944 7.47412C36.8658 7.32756 36.7998 7.22635 36.6965 7.17047C36.5932 7.11459 36.4041 7.06462 36.1292 7.02057L34.8592 6.8206C34.3606 6.7442 34.0667 6.47832 33.9777 6.02295C33.905 5.65132 33.9739 5.32266 34.1843 5.03696C34.3937 4.74603 34.7234 4.55655 35.1736 4.46852C35.5452 4.39585 35.8788 4.42028 36.1743 4.54183C36.474 4.65712 36.6545 4.87179 36.7159 5.18584C36.7405 5.31146 36.7264 5.42018 36.6737 5.512C36.62 5.59858 36.5382 5.65262 36.4283 5.67412C36.3184 5.69562 36.2212 5.68474 36.1366 5.6415C36.0563 5.59199 36.0059 5.5149 35.9854 5.41022C36.0432 5.34457 36.0796 5.2804 36.0945 5.2177C36.1084 5.14977 36.1071 5.07394 36.0908 4.99019C36.0621 4.84363 35.9731 4.73604 35.8238 4.66742C35.6798 4.59777 35.4743 4.58905 35.2074 4.64125C34.9771 4.68629 34.7853 4.76183 34.6322 4.86786C34.4832 4.96764 34.3781 5.08329 34.3169 5.21482C34.2557 5.34635 34.2368 5.47231 34.2604 5.5927C34.2849 5.71832 34.3489 5.80906 34.4522 5.86494C34.5607 5.91979 34.7467 5.96766 35.0101 6.00853L36.1861 6.18613C36.461 6.23019 36.6802 6.32317 36.8438 6.46507C37.0074 6.60698 37.1153 6.8114 37.1676 7.07834C37.2423 7.46044 37.1838 7.80065 36.9922 8.09898C36.8005 8.3973 36.4587 8.59458 35.9667 8.6908Z" fill="white"/>
<path d="M40.2838 8.20318C39.8475 8.23305 39.4767 8.16489 39.1713 7.99869C38.8659 7.8325 38.703 7.60042 38.6826 7.30245C38.672 7.14814 38.7037 7.02569 38.7777 6.93509C38.8566 6.83881 38.9653 6.78593 39.1036 6.77646C39.21 6.76917 39.3023 6.78958 39.3805 6.83769C39.4586 6.8858 39.5169 6.95665 39.5554 7.05024C39.4471 7.18596 39.3978 7.32565 39.4077 7.46931C39.4189 7.63426 39.5033 7.77282 39.6606 7.885C39.818 7.99718 40.0217 8.04471 40.2718 8.02759C40.607 8.00464 40.8759 7.91138 41.0786 7.74783C41.2809 7.57895 41.3732 7.36681 41.3558 7.11141C41.3456 6.96242 41.2927 6.85378 41.1971 6.78548C41.1016 6.71718 40.9202 6.64407 40.6529 6.56614L39.4176 6.20969C38.9324 6.07184 38.674 5.77146 38.6423 5.30854C38.6164 4.93076 38.7256 4.61322 38.97 4.35593C39.2139 4.09332 39.5647 3.94635 40.0223 3.91502C40.4001 3.88916 40.728 3.95491 41.0061 4.11229C41.2891 4.26398 41.4415 4.49945 41.4634 4.8187C41.4721 4.9464 41.4447 5.05253 41.381 5.13707C41.3169 5.2163 41.229 5.25974 41.1172 5.26739C41.0055 5.27504 40.9104 5.25215 40.8319 5.19872C40.7583 5.13961 40.7179 5.05684 40.7106 4.95042C40.7762 4.89248 40.8202 4.83333 40.8428 4.77298C40.8651 4.70731 40.8733 4.63191 40.8674 4.54677C40.8572 4.39779 40.7824 4.27996 40.6428 4.19329C40.5085 4.10626 40.3057 4.07203 40.0343 4.09061C39.8002 4.10664 39.6006 4.15773 39.4354 4.24388C39.2752 4.32434 39.1565 4.42602 39.0794 4.54891C39.0023 4.6718 38.9679 4.79443 38.9763 4.91681C38.985 5.04451 39.0372 5.14251 39.1327 5.21081C39.2336 5.27875 39.4122 5.34938 39.6685 5.42271L40.8132 5.74528C41.0805 5.8232 41.2864 5.94275 41.4311 6.10391C41.5758 6.26507 41.6574 6.48133 41.676 6.75269C41.7026 7.14112 41.6023 7.47141 41.375 7.74357C41.1477 8.01573 40.784 8.16893 40.2838 8.20318Z" fill="white"/>
<path d="M44.1973 8.23478C43.8567 8.21275 43.5829 8.10687 43.3761 7.91713C43.1695 7.72207 43.0776 7.4489 43.1004 7.09763C43.1327 6.59735 43.3658 6.25701 43.7997 6.07663C44.2339 5.89092 44.7278 5.81596 45.2813 5.85175L45.8162 5.88633L45.8559 5.27162C45.8738 4.99486 45.8556 4.77991 45.8014 4.62676C45.7528 4.46863 45.6666 4.35616 45.5426 4.28936C45.419 4.21723 45.2481 4.17412 45.0299 4.16001C44.7798 4.14384 44.5902 4.18235 44.4613 4.27556C44.3327 4.36345 44.263 4.48988 44.2524 4.65487C44.2424 4.80922 44.3104 4.91516 44.4563 4.97269C44.4477 5.10575 44.3895 5.21957 44.2819 5.31415C44.1742 5.40873 44.0512 5.45155 43.9128 5.44261C43.7638 5.43297 43.6466 5.38531 43.5613 5.29963C43.4763 5.20862 43.4394 5.07797 43.4504 4.90766C43.4703 4.59897 43.6407 4.36146 43.9614 4.19514C44.2821 4.02882 44.674 3.96063 45.1371 3.99057C46.2015 4.05939 46.7038 4.55683 46.6439 5.4829L46.4963 7.76613C46.4887 7.88322 46.5068 7.97525 46.5506 8.04221C46.6 8.1042 46.6727 8.13829 46.7685 8.14448C46.8589 8.15033 46.9327 8.1257 46.9897 8.0706C47.047 8.01017 47.0792 7.92674 47.086 7.82029L47.2537 7.83113C47.2416 8.01741 47.171 8.15982 47.0417 8.25835C46.9177 8.35722 46.7493 8.39977 46.5364 8.38601C46.2916 8.37018 46.0885 8.28757 45.9271 8.13818C45.7714 7.98382 45.7005 7.75744 45.7145 7.45905C45.5692 7.72223 45.3585 7.92238 45.0824 8.05952C44.8117 8.197 44.5166 8.25542 44.1973 8.23478ZM44.6591 7.9119C44.8028 7.92119 44.9519 7.88807 45.1064 7.81255C45.2663 7.73738 45.4046 7.6234 45.5213 7.47061C45.6384 7.31251 45.715 7.11971 45.7511 6.89223L45.8048 6.06197L45.2699 6.02738C44.8335 5.99917 44.4998 6.07647 44.2689 6.25928C44.0436 6.43712 43.9196 6.70167 43.8969 7.05293C43.878 7.34566 43.9337 7.5577 44.0642 7.68905C44.1947 7.82041 44.393 7.89469 44.6591 7.9119Z" fill="white"/>
<path d="M48.4065 8.47805L48.97 8.52823L49.8078 4.96131L49.281 4.75537L49.3175 4.59961L50.6415 4.9106L50.4439 5.75171C50.7019 5.51646 50.9796 5.34886 51.277 5.24888C51.5756 5.14372 51.8755 5.1265 52.1766 5.19724C52.5505 5.28505 52.8219 5.44741 52.9908 5.68432C53.165 5.92246 53.2088 6.22584 53.1222 6.59448L52.4746 9.35144L53.0015 9.55737L52.9649 9.71314L51.1736 9.29238L51.2102 9.13662L51.6958 9.1685L52.3397 6.42712C52.4031 6.15713 52.3974 5.93664 52.3225 5.76566C52.2489 5.58948 52.0978 5.47456 51.8693 5.42089C51.6305 5.36479 51.3787 5.39879 51.114 5.52287C50.8557 5.64299 50.611 5.81013 50.3799 6.02429L49.7488 8.71116L50.1978 8.8988L50.1612 9.05456L48.3699 8.63381L48.4065 8.47805Z" fill="white"/>
<path d="M56.313 11.2624C55.9601 11.1108 55.6739 10.8921 55.4542 10.6063C55.2366 10.3155 55.1062 9.98381 55.0631 9.61121C55.0269 9.23583 55.092 8.85456 55.2582 8.46741C55.4329 8.06066 55.6726 7.74569 55.9774 7.52251C56.2871 7.30144 56.6191 7.17702 56.9735 7.14926C57.33 7.1166 57.6748 7.17182 58.0081 7.31491C58.2874 7.43486 58.5212 7.5933 58.7094 7.79022C58.8998 7.98223 59.0243 8.19241 59.0829 8.42075C59.1465 8.6512 59.132 8.87423 59.0394 9.08986C58.9699 9.25158 58.8746 9.35866 58.7534 9.41109C58.6344 9.45863 58.5062 9.45294 58.369 9.39401C58.2367 9.3372 58.1453 9.24574 58.095 9.11965C58.0447 8.99356 58.0479 8.86436 58.1047 8.73204C58.1993 8.7146 58.2739 8.68279 58.3286 8.63661C58.3832 8.59043 58.4295 8.52323 58.4674 8.43502C58.5452 8.2537 58.5348 8.07511 58.4362 7.89927C58.3446 7.72063 58.1787 7.57975 57.9386 7.47663C57.5858 7.32512 57.2591 7.33574 56.9585 7.5085C56.665 7.67847 56.4203 7.99133 56.2246 8.44709L55.909 9.18218C55.7217 9.61833 55.6619 10.0077 55.7296 10.3502C55.8022 10.6948 56.0198 10.9449 56.3824 11.1006C56.7157 11.2437 57.0448 11.2748 57.3698 11.1938C57.7018 11.11 57.9635 10.9263 58.1549 10.6428L58.3239 10.7155C58.0996 11.0486 57.8039 11.2641 57.4369 11.3619C57.0748 11.4618 56.7001 11.4286 56.313 11.2624Z" fill="white"/>
<path d="M61.0715 13.9221C60.7378 13.7114 60.4827 13.4462 60.3061 13.1266C60.1323 12.8024 60.0533 12.4529 60.0692 12.0782C60.0851 11.7034 60.2069 11.3357 60.4347 10.9749C60.6625 10.6141 60.9385 10.3469 61.2626 10.1731C61.5942 9.99768 61.9377 9.91813 62.2932 9.93446C62.6561 9.94913 62.9999 10.059 63.3246 10.264C63.6087 10.4434 63.8236 10.6674 63.9693 10.936C64.1151 11.2047 64.1799 11.4916 64.1638 11.7968C64.1506 12.0975 64.0551 12.3936 63.8774 12.6851L61.388 11.1133L60.9652 11.7829C60.7146 12.1798 60.599 12.5578 60.6182 12.9168C60.6449 13.2743 60.8273 13.5597 61.1655 13.7733C61.4767 13.9698 61.8073 14.0555 62.1573 14.0306C62.5074 14.0056 62.7978 13.8704 63.0284 13.625L63.184 13.7232C62.9102 14.0171 62.5821 14.182 62.1997 14.2182C61.8174 14.2543 61.4413 14.1556 61.0715 13.9221ZM63.24 12.0461C63.4878 11.6538 63.6105 11.3245 63.6084 11.0582C63.6091 10.7874 63.4809 10.5708 63.2238 10.4085C62.9217 10.2178 62.6203 10.1757 62.3196 10.2823C62.0189 10.3889 61.7462 10.6109 61.5016 10.9484L63.24 12.0461Z" fill="white"/>
<path d="M67.3489 19.4336C66.9406 19.0198 66.6835 18.5579 66.5775 18.0481C66.4715 17.5383 66.5146 17.02 66.7066 16.4933C66.9025 15.9704 67.2357 15.4767 67.7065 15.0122C68.1772 14.5477 68.6772 14.2229 69.2064 14.0379C69.7432 13.8529 70.2657 13.8205 70.774 13.9408C71.2899 14.0612 71.752 14.3282 72.1603 14.742C72.3214 14.9053 72.4559 15.0985 72.5638 15.3217C72.6754 15.5487 72.7474 15.7812 72.7797 16.019L73.4808 16.0802L73.5988 16.1998L72.1866 17.5933L72.0686 17.4737L72.6028 16.2497C72.5932 15.997 72.5364 15.7458 72.4325 15.4962C72.3323 15.2504 72.1979 15.0421 72.0294 14.8713C71.7671 14.6055 71.4665 14.4376 71.1276 14.3674C70.7924 14.3011 70.4376 14.3402 70.0633 14.4848C69.689 14.6294 69.3215 14.8796 68.9608 15.2355L67.9188 16.2638C67.5581 16.6197 67.3011 16.9819 67.1478 17.3504C66.9945 17.719 66.945 18.0713 66.9994 18.4073C67.0575 18.7396 67.2177 19.0386 67.4799 19.3043C67.671 19.4979 67.9038 19.6503 68.1783 19.7615C68.4567 19.869 68.7317 19.9161 69.0033 19.9028L70.246 19.3284L70.364 19.448L68.9005 20.8921L68.7825 20.7725L68.6684 20.0759C68.4234 20.0479 68.1844 19.9765 67.9514 19.8618C67.7183 19.7472 67.5175 19.6044 67.3489 19.4336Z" fill="white"/>
<path d="M69.4496 21.7844L69.58 21.6917L69.9929 22.1344L74.8178 18.7041L74.5354 18.1688L74.6658 18.0761L75.477 19.2171L70.4565 22.7864L70.7157 23.2892L70.5853 23.3819L69.4496 21.7844Z" fill="white"/>
<path d="M72.0157 25.9821C71.833 25.6444 71.7728 25.3313 71.8351 25.0429C71.8999 24.7593 72.0988 24.5273 72.4319 24.3472L74.9298 22.9959L74.7337 22.4653L74.8745 22.3891L75.5216 23.5853L72.8266 25.0432C72.5874 25.1726 72.4264 25.3234 72.3436 25.4955C72.2609 25.6676 72.2753 25.8568 72.387 26.0632C72.5037 26.279 72.6857 26.4473 72.9331 26.5682C73.1876 26.6913 73.4623 26.7731 73.7571 26.8137L76.2621 25.4586L76.066 24.928L76.2067 24.8519L76.8538 26.0481L73.42 27.9056L73.6161 28.4362L73.4754 28.5124L72.8283 27.3162L73.5038 26.9507C73.1779 26.9088 72.8846 26.8037 72.6238 26.6355C72.3656 26.472 72.1629 26.2542 72.0157 25.9821Z" fill="white"/>
<path d="M74.7461 32.7314C74.6522 32.4311 74.6473 32.1476 74.7316 31.881C74.8225 31.6178 74.9829 31.3804 75.2129 31.1688L74.4189 31.4172L74.0128 30.1192L74.1655 30.0715L74.4091 30.582L80.0591 28.8146L79.9683 28.2563L80.121 28.2085L80.527 29.5065L77.5722 30.4308C77.8818 30.4737 78.1463 30.5781 78.3659 30.7441C78.5922 30.9136 78.7523 31.1485 78.8462 31.4489C78.9593 31.8103 78.9748 32.1547 78.8928 32.4821C78.8108 32.8095 78.6385 33.0981 78.3757 33.3479C78.1181 33.5962 77.7831 33.7848 77.3708 33.9137C76.9585 34.0427 76.5732 34.0794 76.215 34.0238C75.8618 33.9667 75.5557 33.8277 75.2967 33.607C75.0427 33.3847 74.8592 33.0928 74.7461 32.7314ZM74.9131 32.5954C75.1345 33.3029 75.7389 33.5022 76.7263 33.1933L77.4899 32.9545C78.4723 32.6472 78.8528 32.1397 78.6315 31.4322C78.5614 31.2082 78.4315 31.0253 78.2419 30.8835C78.0573 30.7401 77.8389 30.6491 77.5865 30.6107C77.3393 30.5707 77.0877 30.5879 76.8316 30.6625L76.0146 30.918C75.755 30.9992 75.5266 31.1266 75.3294 31.3C75.1338 31.4786 74.9959 31.6809 74.9158 31.9072C74.8424 32.1369 74.8415 32.3663 74.9131 32.5954Z" fill="white"/>
</g>
</svg>
