<svg width="128" height="128" viewBox="0 0 128 128" fill="none" xmlns="http://www.w3.org/2000/svg">
<path d="M50.9 75.8125L50.3572 76.6523L50.9 75.8125ZM46.328 70.4845L45.4206 70.9048L45.4243 70.9126L46.328 70.4845ZM46.436 54.7165L47.3323 55.1599L46.436 54.7165ZM51.152 49.3885L50.6229 48.5399L50.6184 48.5428L51.152 49.3885ZM64.4 49.3525L63.8091 50.1593L64.447 50.6264L65.0487 50.1135L64.4 49.3525ZM66.596 47.4805V46.4805H66.2276L65.9473 46.7195L66.596 47.4805ZM67.352 47.4805H68.352V46.4805H67.352V47.4805ZM67.352 56.4085V57.4085H68.352V56.4085H67.352ZM66.596 56.4085L65.6675 56.7799L65.919 57.4085H66.596V56.4085ZM64.22 50.4685L65.1485 50.0971L65.0545 49.8622L64.8602 49.7003L64.22 50.4685ZM53.6 49.6045L53.0592 48.7633L53.0523 48.7678L53.6 49.6045ZM50.468 53.3845L49.5607 52.9637L49.5558 52.9747L50.468 53.3845ZM50.396 71.7805L49.474 72.168L49.4789 72.1792L50.396 71.7805ZM53.348 75.5965L52.7682 76.4113L52.7771 76.4176L52.7861 76.4237L53.348 75.5965ZM62.564 74.9845L61.8228 74.3132L61.8158 74.321L62.564 74.9845ZM64.292 66.5245H65.292V65.6638L64.4409 65.5356L64.292 66.5245ZM60.944 66.0205H59.944V66.8812L60.7951 67.0093L60.944 66.0205ZM60.944 65.2285V64.2285H59.944V65.2285H60.944ZM71.708 65.2285H72.708V64.2285H71.708V65.2285ZM71.708 66.0205L71.8569 67.0093L72.708 66.8812V66.0205H71.708ZM68.36 66.5245L68.2111 65.5356L67.36 65.6638V66.5245H68.36ZM67.244 73.7245L68.0891 74.2592L68.0939 74.2514L67.244 73.7245ZM57.776 76.7205C55.3294 76.7205 53.2307 76.1282 51.4428 74.9726L50.3572 76.6523C52.5053 78.0408 54.9906 78.7205 57.776 78.7205V76.7205ZM51.4428 74.9726C49.6431 73.8094 48.2384 72.1816 47.2317 70.0564L45.4243 70.9126C46.5776 73.3473 48.2209 75.2716 50.3572 76.6523L51.4428 74.9726ZM47.2354 70.0642C46.2506 67.938 45.744 65.4578 45.744 62.6005H43.744C43.744 65.6952 44.2934 68.471 45.4206 70.9048L47.2354 70.0642ZM45.744 62.6005C45.744 59.7523 46.2832 57.2805 47.3323 55.1599L45.5397 54.2731C44.3328 56.7125 43.744 59.4967 43.744 62.6005H45.744ZM47.3323 55.1599C48.3844 53.0333 49.8357 51.4014 51.6856 50.2342L50.6184 48.5428C48.4363 49.9196 46.7436 51.8397 45.5397 54.2731L47.3323 55.1599ZM51.6811 50.237C53.5485 49.0727 55.6899 48.4805 58.136 48.4805V46.4805C55.35 46.4805 52.8355 47.1603 50.6229 48.5399L51.6811 50.237ZM58.136 48.4805C60.4329 48.4805 62.3045 49.0572 63.8091 50.1593L64.9909 48.5457C63.0875 47.1517 60.7831 46.4805 58.136 46.4805V48.4805ZM65.0487 50.1135L67.2447 48.2415L65.9473 46.7195L63.7513 48.5915L65.0487 50.1135ZM66.596 48.4805H67.352V46.4805H66.596V48.4805ZM66.352 47.4805V56.4085H68.352V47.4805H66.352ZM67.352 55.4085H66.596V57.4085H67.352V55.4085ZM67.5245 56.0371L65.1485 50.0971L63.2915 50.8399L65.6675 56.7799L67.5245 56.0371ZM64.8602 49.7003C62.9458 48.1049 60.689 47.3085 58.136 47.3085V49.3085C60.239 49.3085 62.0382 49.9521 63.5798 51.2367L64.8602 49.7003ZM58.136 47.3085C56.2746 47.3085 54.573 47.7901 53.0592 48.7633L54.1408 50.4457C55.315 49.6908 56.6374 49.3085 58.136 49.3085V47.3085ZM53.0523 48.7678C51.5527 49.7494 50.3948 51.1654 49.5608 52.9638L51.3752 53.8052C52.0772 52.2916 53.0073 51.1876 54.1477 50.4412L53.0523 48.7678ZM49.5558 52.9747C48.7411 54.7881 48.352 56.9022 48.352 59.2885H50.352C50.352 57.1147 50.7069 55.2929 51.3802 53.7943L49.5558 52.9747ZM48.352 59.2885V65.8765H50.352V59.2885H48.352ZM48.352 65.8765C48.352 68.2551 48.7147 70.3611 49.4741 72.1679L51.3179 71.393C50.6853 69.8879 50.352 68.0579 50.352 65.8765H48.352ZM49.4789 72.1792C50.2583 73.9718 51.3474 75.4003 52.7682 76.4113L53.9278 74.7817C52.8526 74.0167 51.9737 72.9011 51.3131 71.3818L49.4789 72.1792ZM52.7861 76.4237C54.2392 77.4107 55.915 77.8925 57.776 77.8925V75.8925C56.277 75.8925 55.0008 75.5103 53.9099 74.7693L52.7861 76.4237ZM57.776 77.8925C60.0595 77.8925 61.9543 77.1792 63.3122 75.648L61.8158 74.321C60.9177 75.3338 59.6205 75.8925 57.776 75.8925V77.8925ZM63.3052 75.6558C64.6618 74.1578 65.292 72.1933 65.292 69.8725H63.292C63.292 71.8236 62.7702 73.2672 61.8228 74.3132L63.3052 75.6558ZM65.292 69.8725V66.5245H63.292V69.8725H65.292ZM64.4409 65.5356L61.0929 65.0316L60.7951 67.0093L64.1431 67.5133L64.4409 65.5356ZM61.944 66.0205V65.2285H59.944V66.0205H61.944ZM60.944 66.2285H71.708V64.2285H60.944V66.2285ZM70.708 65.2285V66.0205H72.708V65.2285H70.708ZM71.5591 65.0316L68.2111 65.5356L68.5089 67.5133L71.8569 67.0093L71.5591 65.0316ZM67.36 66.5245V69.8725H69.36V66.5245H67.36ZM67.36 69.8725C67.36 71.0481 67.0433 72.1505 66.3941 73.1975L68.0939 74.2514C68.9327 72.8985 69.36 71.4329 69.36 69.8725H67.36ZM66.3989 73.1898C65.78 74.1681 64.7826 75.0156 63.3269 75.6994L64.1771 77.5096C65.8893 76.7054 67.22 75.6329 68.0891 74.2591L66.3989 73.1898ZM63.3269 75.6994C61.9157 76.3622 60.0805 76.7205 57.776 76.7205V78.7205C60.2715 78.7205 62.4203 78.3348 64.1771 77.5096L63.3269 75.6994ZM75.8652 77.0005H74.8652V78.0005H75.8652V77.0005ZM75.8652 76.2805L75.7237 75.2905L74.8652 75.4132V76.2805H75.8652ZM78.3852 75.9205L78.5266 76.9104L79.3852 76.7878V75.9205H78.3852ZM78.3852 49.2805H79.3852V48.4132L78.5266 48.2905L78.3852 49.2805ZM75.8652 48.9205H74.8652V49.7878L75.7237 49.9104L75.8652 48.9205ZM75.8652 48.2005V47.2005H74.8652V48.2005H75.8652ZM81.9852 48.2005H82.9852V47.2005H81.9852V48.2005ZM81.9852 75.9205H80.9852V76.7878L81.8437 76.9104L81.9852 75.9205ZM84.5052 76.2805H85.5052V75.4132L84.6466 75.2905L84.5052 76.2805ZM84.5052 77.0005V78.0005H85.5052V77.0005H84.5052ZM76.8652 77.0005V76.2805H74.8652V77.0005H76.8652ZM76.0066 77.2704L78.5266 76.9104L78.2437 74.9305L75.7237 75.2905L76.0066 77.2704ZM79.3852 75.9205V49.2805H77.3852V75.9205H79.3852ZM78.5266 48.2905L76.0066 47.9305L75.7237 49.9104L78.2437 50.2704L78.5266 48.2905ZM76.8652 48.9205V48.2005H74.8652V48.9205H76.8652ZM75.8652 49.2005H81.9852V47.2005H75.8652V49.2005ZM80.9852 48.2005V75.9205H82.9852V48.2005H80.9852ZM81.8437 76.9104L84.3637 77.2704L84.6466 75.2905L82.1266 74.9305L81.8437 76.9104ZM83.5052 76.2805V77.0005H85.5052V76.2805H83.5052ZM84.5052 76.0005H75.8652V78.0005H84.5052V76.0005Z" fill="#FCD46C"/>
<circle opacity="0.1" cx="64" cy="64.0005" r="47.5" stroke="#FCD46C"/>
<circle opacity="0.4" cx="64" cy="64.0005" r="56" stroke="url(#paint0_radial_84_320)" stroke-width="16" stroke-dasharray="1 5"/>
<defs>
<radialGradient id="paint0_radial_84_320" cx="0" cy="0" r="1" gradientUnits="userSpaceOnUse" gradientTransform="translate(64 64.0005) rotate(90) scale(64)">
<stop offset="0.859375" stop-color="#FCD46C"/>
<stop offset="1" stop-color="#FCD46C" stop-opacity="0"/>
</radialGradient>
</defs>
</svg>
