<svg width="128" height="128" viewBox="0 0 128 128" fill="none" xmlns="http://www.w3.org/2000/svg">
<path d="M46.9 75.812L46.3572 76.6518L46.9 75.812ZM42.328 70.484L41.4206 70.9043L41.4243 70.9121L42.328 70.484ZM42.436 54.716L43.3323 55.1594L42.436 54.716ZM47.152 49.388L46.6229 48.5394L46.6184 48.5423L47.152 49.388ZM60.4 49.352L59.8091 50.1588L60.447 50.626L61.0487 50.113L60.4 49.352ZM62.596 47.48V46.48H62.2276L61.9473 46.719L62.596 47.48ZM63.352 47.48H64.352V46.48H63.352V47.48ZM63.352 56.408V57.408H64.352V56.408H63.352ZM62.596 56.408L61.6675 56.7794L61.919 57.408H62.596V56.408ZM60.22 50.468L61.1485 50.0966L61.0545 49.8617L60.8602 49.6998L60.22 50.468ZM49.6 49.604L49.0592 48.7628L49.0523 48.7673L49.6 49.604ZM46.468 53.384L45.5607 52.9632L45.5558 52.9742L46.468 53.384ZM46.396 71.78L45.474 72.1675L45.4789 72.1787L46.396 71.78ZM49.348 75.596L48.7682 76.4108L48.7771 76.4171L48.7861 76.4232L49.348 75.596ZM58.564 74.984L57.8228 74.3127L57.8158 74.3205L58.564 74.984ZM60.292 66.524H61.292V65.6633L60.4409 65.5351L60.292 66.524ZM56.944 66.02H55.944V66.8807L56.7951 67.0089L56.944 66.02ZM56.944 65.228V64.228H55.944V65.228H56.944ZM67.708 65.228H68.708V64.228H67.708V65.228ZM67.708 66.02L67.8569 67.0089L68.708 66.8807V66.02H67.708ZM64.36 66.524L64.2111 65.5351L63.36 65.6633V66.524H64.36ZM63.244 73.724L64.0891 74.2587L64.0939 74.2509L63.244 73.724ZM53.776 76.72C51.3294 76.72 49.2307 76.1277 47.4428 74.9722L46.3572 76.6518C48.5053 78.0403 50.9906 78.72 53.776 78.72V76.72ZM47.4428 74.9722C45.6431 73.8089 44.2384 72.1812 43.2317 70.0559L41.4243 70.9121C42.5776 73.3468 44.2209 75.2711 46.3572 76.6518L47.4428 74.9722ZM43.2354 70.0637C42.2506 67.9375 41.744 65.4573 41.744 62.6H39.744C39.744 65.6947 40.2934 68.4705 41.4206 70.9043L43.2354 70.0637ZM41.744 62.6C41.744 59.7518 42.2832 57.28 43.3323 55.1594L41.5397 54.2726C40.3328 56.712 39.744 59.4962 39.744 62.6H41.744ZM43.3323 55.1594C44.3844 53.0328 45.8357 51.4009 47.6856 50.2337L46.6184 48.5423C44.4363 49.9191 42.7436 51.8392 41.5397 54.2726L43.3323 55.1594ZM47.6811 50.2366C49.5485 49.0722 51.6899 48.48 54.136 48.48V46.48C51.35 46.48 48.8355 47.1598 46.6229 48.5394L47.6811 50.2366ZM54.136 48.48C56.4329 48.48 58.3045 49.0568 59.8091 50.1588L60.9909 48.5452C59.0875 47.1512 56.7831 46.48 54.136 46.48V48.48ZM61.0487 50.113L63.2447 48.241L61.9473 46.719L59.7513 48.591L61.0487 50.113ZM62.596 48.48H63.352V46.48H62.596V48.48ZM62.352 47.48V56.408H64.352V47.48H62.352ZM63.352 55.408H62.596V57.408H63.352V55.408ZM63.5245 56.0366L61.1485 50.0966L59.2915 50.8394L61.6675 56.7794L63.5245 56.0366ZM60.8602 49.6998C58.9458 48.1044 56.689 47.308 54.136 47.308V49.308C56.239 49.308 58.0382 49.9516 59.5798 51.2362L60.8602 49.6998ZM54.136 47.308C52.2746 47.308 50.573 47.7897 49.0592 48.7628L50.1408 50.4452C51.315 49.6903 52.6374 49.308 54.136 49.308V47.308ZM49.0523 48.7673C47.5527 49.7489 46.3948 51.1649 45.5608 52.9633L47.3752 53.8047C48.0772 52.2911 49.0073 51.1871 50.1477 50.4407L49.0523 48.7673ZM45.5558 52.9742C44.7411 54.7876 44.352 56.9017 44.352 59.288H46.352C46.352 57.1143 46.7069 55.2924 47.3802 53.7938L45.5558 52.9742ZM44.352 59.288V65.876H46.352V59.288H44.352ZM44.352 65.876C44.352 68.2546 44.7147 70.3606 45.4741 72.1675L47.3179 71.3925C46.6853 69.8874 46.352 68.0574 46.352 65.876H44.352ZM45.4789 72.1787C46.2583 73.9714 47.3474 75.3998 48.7682 76.4108L49.9278 74.7812C48.8526 74.0162 47.9737 72.9006 47.3131 71.3813L45.4789 72.1787ZM48.7861 76.4232C50.2392 77.4102 51.915 77.892 53.776 77.892V75.892C52.277 75.892 51.0008 75.5098 49.9099 74.7688L48.7861 76.4232ZM53.776 77.892C56.0595 77.892 57.9543 77.1787 59.3122 75.6475L57.8158 74.3205C56.9177 75.3333 55.6205 75.892 53.776 75.892V77.892ZM59.3052 75.6553C60.6618 74.1573 61.292 72.1929 61.292 69.872H59.292C59.292 71.8231 58.7702 73.2667 57.8228 74.3127L59.3052 75.6553ZM61.292 69.872V66.524H59.292V69.872H61.292ZM60.4409 65.5351L57.0929 65.0311L56.7951 67.0089L60.1431 67.5129L60.4409 65.5351ZM57.944 66.02V65.228H55.944V66.02H57.944ZM56.944 66.228H67.708V64.228H56.944V66.228ZM66.708 65.228V66.02H68.708V65.228H66.708ZM67.5591 65.0311L64.2111 65.5351L64.5089 67.5129L67.8569 67.0089L67.5591 65.0311ZM63.36 66.524V69.872H65.36V66.524H63.36ZM63.36 69.872C63.36 71.0476 63.0433 72.15 62.3941 73.1971L64.0939 74.2509C64.9327 72.898 65.36 71.4324 65.36 69.872H63.36ZM62.3989 73.1894C61.78 74.1676 60.7826 75.0151 59.3269 75.6989L60.1771 77.5091C61.8893 76.7049 63.22 75.6324 64.0891 74.2586L62.3989 73.1894ZM59.3269 75.6989C57.9157 76.3617 56.0805 76.72 53.776 76.72V78.72C56.2715 78.72 58.4203 78.3343 60.1771 77.5091L59.3269 75.6989ZM78.7052 77H77.7052V78H78.7052V77ZM78.7052 76.244L78.5442 75.257L77.7052 75.3938V76.244H78.7052ZM82.0172 75.704L82.1781 76.691L83.0172 76.5542V75.704H82.0172ZM82.0172 70.088H83.0172V69.088H82.0172V70.088ZM69.8852 70.088H68.8852V71.088H69.8852V70.088ZM69.8852 69.332L69.0745 68.7465L68.8852 69.0086V69.332H69.8852ZM85.1492 48.2V47.2H84.6379L84.3385 47.6145L85.1492 48.2ZM85.9772 48.2H86.9772V47.2H85.9772V48.2ZM85.9772 68.396H84.9772V69.396H85.9772V68.396ZM89.2892 68.396H90.2892V67.396H89.2892V68.396ZM89.2892 70.088V71.088H90.2892V70.088H89.2892ZM85.9772 70.088V69.088H84.9772V70.088H85.9772ZM85.9772 75.704H84.9772V76.5542L85.8162 76.691L85.9772 75.704ZM89.2892 76.244H90.2892V75.3938L89.4501 75.257L89.2892 76.244ZM89.2892 77V78H90.2892V77H89.2892ZM71.6492 68.396L70.8383 67.8107L69.6941 69.396H71.6492V68.396ZM82.0172 68.396V69.396H83.0172V68.396H82.0172ZM82.0172 54.032H83.0172V50.938L81.2063 53.4467L82.0172 54.032ZM79.7052 77V76.244H77.7052V77H79.7052ZM78.8661 77.231L82.1781 76.691L81.8562 74.717L78.5442 75.257L78.8661 77.231ZM83.0172 75.704V70.088H81.0172V75.704H83.0172ZM82.0172 69.088H69.8852V71.088H82.0172V69.088ZM70.8852 70.088V69.332H68.8852V70.088H70.8852ZM70.6958 69.9175L85.9598 48.7855L84.3385 47.6145L69.0745 68.7465L70.6958 69.9175ZM85.1492 49.2H85.9772V47.2H85.1492V49.2ZM84.9772 48.2V68.396H86.9772V48.2H84.9772ZM85.9772 69.396H89.2892V67.396H85.9772V69.396ZM88.2892 68.396V70.088H90.2892V68.396H88.2892ZM89.2892 69.088H85.9772V71.088H89.2892V69.088ZM84.9772 70.088V75.704H86.9772V70.088H84.9772ZM85.8162 76.691L89.1282 77.231L89.4501 75.257L86.1381 74.717L85.8162 76.691ZM88.2892 76.244V77H90.2892V76.244H88.2892ZM89.2892 76H78.7052V78H89.2892V76ZM71.6492 69.396H82.0172V67.396H71.6492V69.396ZM83.0172 68.396V54.032H81.0172V68.396H83.0172ZM81.2063 53.4467L70.8383 67.8107L72.46 68.9813L82.828 54.6173L81.2063 53.4467Z" fill="#FCD46C"/>
<circle opacity="0.1" cx="64" cy="64" r="47.5" stroke="#FCD46C"/>
<circle opacity="0.4" cx="64" cy="64" r="56" stroke="url(#paint0_radial_84_286)" stroke-width="16" stroke-dasharray="1 5"/>
<defs>
<radialGradient id="paint0_radial_84_286" cx="0" cy="0" r="1" gradientUnits="userSpaceOnUse" gradientTransform="translate(64 64) rotate(90) scale(64)">
<stop offset="0.859375" stop-color="#FCD46C"/>
<stop offset="1" stop-color="#FCD46C" stop-opacity="0"/>
</radialGradient>
</defs>
</svg>
