<svg width="128" height="128" viewBox="0 0 128 128" fill="none" xmlns="http://www.w3.org/2000/svg">
<path d="M46.9 75.812L46.3572 76.6518L46.9 75.812ZM42.328 70.484L41.4206 70.9043L41.4243 70.9121L42.328 70.484ZM42.436 54.716L43.3323 55.1594L42.436 54.716ZM47.152 49.388L46.6229 48.5394L46.6184 48.5423L47.152 49.388ZM60.4 49.352L59.8091 50.1588L60.447 50.626L61.0487 50.113L60.4 49.352ZM62.596 47.48V46.48H62.2276L61.9473 46.719L62.596 47.48ZM63.352 47.48H64.352V46.48H63.352V47.48ZM63.352 56.408V57.408H64.352V56.408H63.352ZM62.596 56.408L61.6675 56.7794L61.919 57.408H62.596V56.408ZM60.22 50.468L61.1485 50.0966L61.0545 49.8617L60.8602 49.6998L60.22 50.468ZM49.6 49.604L49.0592 48.7628L49.0523 48.7673L49.6 49.604ZM46.468 53.384L45.5607 52.9632L45.5558 52.9742L46.468 53.384ZM46.396 71.78L45.474 72.1675L45.4789 72.1787L46.396 71.78ZM49.348 75.596L48.7682 76.4108L48.7771 76.4171L48.7861 76.4232L49.348 75.596ZM58.564 74.984L57.8228 74.3127L57.8158 74.3205L58.564 74.984ZM60.292 66.524H61.292V65.6633L60.4409 65.5351L60.292 66.524ZM56.944 66.02H55.944V66.8807L56.7951 67.0089L56.944 66.02ZM56.944 65.228V64.228H55.944V65.228H56.944ZM67.708 65.228H68.708V64.228H67.708V65.228ZM67.708 66.02L67.8569 67.0089L68.708 66.8807V66.02H67.708ZM64.36 66.524L64.2111 65.5351L63.36 65.6633V66.524H64.36ZM63.244 73.724L64.0891 74.2587L64.0939 74.2509L63.244 73.724ZM53.776 76.72C51.3294 76.72 49.2307 76.1277 47.4428 74.9722L46.3572 76.6518C48.5053 78.0403 50.9906 78.72 53.776 78.72V76.72ZM47.4428 74.9722C45.6431 73.8089 44.2384 72.1812 43.2317 70.0559L41.4243 70.9121C42.5776 73.3468 44.2209 75.2711 46.3572 76.6518L47.4428 74.9722ZM43.2354 70.0637C42.2506 67.9375 41.744 65.4573 41.744 62.6H39.744C39.744 65.6947 40.2934 68.4705 41.4206 70.9043L43.2354 70.0637ZM41.744 62.6C41.744 59.7518 42.2832 57.28 43.3323 55.1594L41.5397 54.2726C40.3328 56.712 39.744 59.4962 39.744 62.6H41.744ZM43.3323 55.1594C44.3844 53.0328 45.8357 51.4009 47.6856 50.2337L46.6184 48.5423C44.4363 49.9191 42.7436 51.8392 41.5397 54.2726L43.3323 55.1594ZM47.6811 50.2366C49.5485 49.0722 51.6899 48.48 54.136 48.48V46.48C51.35 46.48 48.8355 47.1598 46.6229 48.5394L47.6811 50.2366ZM54.136 48.48C56.4329 48.48 58.3045 49.0568 59.8091 50.1588L60.9909 48.5452C59.0875 47.1512 56.7831 46.48 54.136 46.48V48.48ZM61.0487 50.113L63.2447 48.241L61.9473 46.719L59.7513 48.591L61.0487 50.113ZM62.596 48.48H63.352V46.48H62.596V48.48ZM62.352 47.48V56.408H64.352V47.48H62.352ZM63.352 55.408H62.596V57.408H63.352V55.408ZM63.5245 56.0366L61.1485 50.0966L59.2915 50.8394L61.6675 56.7794L63.5245 56.0366ZM60.8602 49.6998C58.9458 48.1044 56.689 47.308 54.136 47.308V49.308C56.239 49.308 58.0382 49.9516 59.5798 51.2362L60.8602 49.6998ZM54.136 47.308C52.2746 47.308 50.573 47.7897 49.0592 48.7628L50.1408 50.4452C51.315 49.6903 52.6374 49.308 54.136 49.308V47.308ZM49.0523 48.7673C47.5527 49.7489 46.3948 51.1649 45.5608 52.9633L47.3752 53.8047C48.0772 52.2911 49.0073 51.1871 50.1477 50.4407L49.0523 48.7673ZM45.5558 52.9742C44.7411 54.7876 44.352 56.9017 44.352 59.288H46.352C46.352 57.1143 46.7069 55.2924 47.3802 53.7938L45.5558 52.9742ZM44.352 59.288V65.876H46.352V59.288H44.352ZM44.352 65.876C44.352 68.2546 44.7147 70.3606 45.4741 72.1675L47.3179 71.3925C46.6853 69.8874 46.352 68.0574 46.352 65.876H44.352ZM45.4789 72.1787C46.2583 73.9714 47.3474 75.3998 48.7682 76.4108L49.9278 74.7812C48.8526 74.0162 47.9737 72.9006 47.3131 71.3813L45.4789 72.1787ZM48.7861 76.4232C50.2392 77.4102 51.915 77.892 53.776 77.892V75.892C52.277 75.892 51.0008 75.5098 49.9099 74.7688L48.7861 76.4232ZM53.776 77.892C56.0595 77.892 57.9543 77.1787 59.3122 75.6475L57.8158 74.3205C56.9177 75.3333 55.6205 75.892 53.776 75.892V77.892ZM59.3052 75.6553C60.6618 74.1573 61.292 72.1929 61.292 69.872H59.292C59.292 71.8231 58.7702 73.2667 57.8228 74.3127L59.3052 75.6553ZM61.292 69.872V66.524H59.292V69.872H61.292ZM60.4409 65.5351L57.0929 65.0311L56.7951 67.0089L60.1431 67.5129L60.4409 65.5351ZM57.944 66.02V65.228H55.944V66.02H57.944ZM56.944 66.228H67.708V64.228H56.944V66.228ZM66.708 65.228V66.02H68.708V65.228H66.708ZM67.5591 65.0311L64.2111 65.5351L64.5089 67.5129L67.8569 67.0089L67.5591 65.0311ZM63.36 66.524V69.872H65.36V66.524H63.36ZM63.36 69.872C63.36 71.0476 63.0433 72.15 62.3941 73.1971L64.0939 74.2509C64.9327 72.898 65.36 71.4324 65.36 69.872H63.36ZM62.3989 73.1894C61.78 74.1676 60.7826 75.0151 59.3269 75.6989L60.1771 77.5091C61.8893 76.7049 63.22 75.6324 64.0891 74.2586L62.3989 73.1894ZM59.3269 75.6989C57.9157 76.3617 56.0805 76.72 53.776 76.72V78.72C56.2715 78.72 58.4203 78.3343 60.1771 77.5091L59.3269 75.6989ZM71.2532 74.228L70.5394 73.5276L70.2532 73.8193V74.228H71.2532ZM78.8492 66.488L79.5629 67.1885L79.5687 67.1824L78.8492 66.488ZM83.3852 60.476L82.504 60.0032L82.5019 60.0071L83.3852 60.476ZM83.6012 49.784L82.8588 50.454L82.8673 50.4635L82.8762 50.4727L83.6012 49.784ZM77.4092 54.68H78.4092V54.0567L77.8496 53.7822L77.4092 54.68ZM76.6172 56.66L77.2708 57.4168L76.6172 56.66ZM72.7652 56.516L72.0432 57.2079L72.0505 57.2156L72.058 57.2231L72.7652 56.516ZM73.1252 50.72L73.9115 51.3379L73.9185 51.3288L73.1252 50.72ZM76.2932 48.344L76.679 49.2666L76.6861 49.2636L76.6931 49.2605L76.2932 48.344ZM87.0572 49.568L86.3561 50.2812L86.3623 50.2872L87.0572 49.568ZM88.3172 58.784L87.4227 58.3368L87.4189 58.3444L88.3172 58.784ZM86.3012 61.736L85.5736 61.05L85.5683 61.0556L85.5631 61.0612L86.3012 61.736ZM83.1332 64.76L83.784 65.5193L83.7917 65.5126L83.1332 64.76ZM82.1252 65.624L81.4744 64.8647L81.4688 64.8695L81.4633 64.8743L82.1252 65.624ZM73.5212 73.22L72.8593 72.4703L70.8775 74.22H73.5212V73.22ZM86.9492 73.22V74.22H87.7098L87.9129 73.487L86.9492 73.22ZM88.4252 67.892V66.892H87.6645L87.4615 67.625L88.4252 67.892ZM89.3612 67.892H90.3612V66.892H89.3612V67.892ZM89.3612 77V78H90.3612V77H89.3612ZM71.2532 77H70.2532V78H71.2532V77ZM71.9669 74.9284L79.5629 67.1884L78.1354 65.7876L70.5394 73.5276L71.9669 74.9284ZM79.5687 67.1824C81.6071 65.0704 83.1817 62.9919 84.2684 60.9449L82.5019 60.0071C81.5246 61.8481 80.0752 63.7776 78.1296 65.7936L79.5687 67.1824ZM84.2663 60.9488C85.3947 58.8458 85.9692 56.6564 85.9692 54.392H83.9692C83.9692 56.3036 83.4876 58.1702 82.504 60.0032L84.2663 60.9488ZM85.9692 54.392C85.9692 52.1695 85.4945 50.3251 84.3262 49.0952L82.8762 50.4727C83.5318 51.1629 83.9692 52.3905 83.9692 54.392H85.9692ZM84.3435 49.114C83.2351 47.8858 81.7347 47.308 79.9652 47.308V49.308C81.2676 49.308 82.1912 49.7142 82.8588 50.454L84.3435 49.114ZM79.9652 47.308C78.5737 47.308 77.3187 47.6878 76.2437 48.4722L77.4226 50.0878C78.1236 49.5762 78.9566 49.308 79.9652 49.308V47.308ZM76.2437 48.4722C75.1102 49.2994 74.5012 50.4455 74.5012 51.836H76.5012C76.5012 51.1145 76.7802 50.5566 77.4226 50.0878L76.2437 48.4722ZM74.5012 51.836C74.5012 52.6469 74.7068 53.4008 75.1477 54.0581C75.5845 54.7092 76.2127 55.2069 76.9687 55.5778L77.8496 53.7822C77.3336 53.5291 77.0078 53.2408 76.8086 52.9439C76.6136 52.6532 76.5012 52.2971 76.5012 51.836H74.5012ZM76.4092 54.68C76.4092 55.3286 76.2204 55.6813 75.9635 55.9032L77.2708 57.4168C78.0699 56.7267 78.4092 55.7594 78.4092 54.68H76.4092ZM75.9635 55.9032C75.6234 56.1969 75.2336 56.344 74.7452 56.344V58.344C75.6967 58.344 76.5549 58.0351 77.2708 57.4168L75.9635 55.9032ZM74.7452 56.344C74.2472 56.344 73.8402 56.1768 73.4723 55.8089L72.058 57.2231C72.7941 57.9592 73.7071 58.344 74.7452 58.344V56.344ZM73.4871 55.8241C73.1531 55.4755 72.9372 54.9656 72.9372 54.176H70.9372C70.9372 55.3544 71.2732 56.4045 72.0432 57.2079L73.4871 55.8241ZM72.9372 54.176C72.9372 53.1014 73.2595 52.1675 73.9115 51.3378L72.3388 50.1022C71.4068 51.2885 70.9372 52.6586 70.9372 54.176H72.9372ZM73.9185 51.3288C74.5939 50.4487 75.5033 49.7582 76.679 49.2666L75.9073 47.4214C74.443 48.0338 73.2404 48.9273 72.3318 50.1112L73.9185 51.3288ZM76.6931 49.2605C77.8807 48.7423 79.1598 48.48 80.5412 48.48V46.48C78.8985 46.48 77.3456 46.7937 75.8932 47.4275L76.6931 49.2605ZM80.5412 48.48C83.3304 48.48 85.1998 49.1444 86.3561 50.2811L87.7582 48.8549C86.0825 47.2076 83.6079 46.48 80.5412 46.48V48.48ZM86.3623 50.2872C87.5543 51.4387 88.1812 52.976 88.1812 55.004H90.1812C90.1812 52.52 89.392 50.4333 87.752 48.8488L86.3623 50.2872ZM88.1812 55.004C88.1812 56.2266 87.925 57.3322 87.4227 58.3368L89.2116 59.2312C89.8613 57.9318 90.1812 56.5174 90.1812 55.004H88.1812ZM87.4189 58.3444C86.9073 59.3901 86.2909 60.2892 85.5736 61.05L87.0287 62.422C87.8955 61.5028 88.6231 60.4339 89.2154 59.2236L87.4189 58.3444ZM85.5631 61.0612C84.8301 61.863 83.8045 62.8438 82.4747 64.0074L83.7917 65.5126C85.1498 64.3242 86.2363 63.289 87.0392 62.4108L85.5631 61.0612ZM82.4824 64.0007L81.4744 64.8647L82.7759 66.3833L83.7839 65.5193L82.4824 64.0007ZM81.4633 64.8743L72.8593 72.4703L74.183 73.9697L82.787 66.3737L81.4633 64.8743ZM73.5212 74.22H86.9492V72.22H73.5212V74.22ZM87.9129 73.487L89.3889 68.159L87.4615 67.625L85.9855 72.953L87.9129 73.487ZM88.4252 68.892H89.3612V66.892H88.4252V68.892ZM88.3612 67.892V77H90.3612V67.892H88.3612ZM89.3612 76H71.2532V78H89.3612V76ZM72.2532 77V74.228H70.2532V77H72.2532Z" fill="#FCD46C"/>
<circle opacity="0.1" cx="64" cy="64" r="47.5" stroke="#FCD46C"/>
<circle opacity="0.4" cx="64" cy="64" r="56" stroke="url(#paint0_radial_84_263)" stroke-width="16" stroke-dasharray="1 5"/>
<defs>
<radialGradient id="paint0_radial_84_263" cx="0" cy="0" r="1" gradientUnits="userSpaceOnUse" gradientTransform="translate(64 64) rotate(90) scale(64)">
<stop offset="0.859375" stop-color="#FCD46C"/>
<stop offset="1" stop-color="#FCD46C" stop-opacity="0"/>
</radialGradient>
</defs>
</svg>
