<svg width="128" height="128" viewBox="0 0 128 128" fill="none" xmlns="http://www.w3.org/2000/svg">
<path d="M46.9 75.812L46.3572 76.6518L46.9 75.812ZM42.328 70.484L41.4206 70.9043L41.4243 70.9121L42.328 70.484ZM42.436 54.716L43.3323 55.1594L42.436 54.716ZM47.152 49.388L46.6229 48.5394L46.6184 48.5423L47.152 49.388ZM60.4 49.352L59.8091 50.1588L60.447 50.626L61.0487 50.113L60.4 49.352ZM62.596 47.48V46.48H62.2276L61.9473 46.719L62.596 47.48ZM63.352 47.48H64.352V46.48H63.352V47.48ZM63.352 56.408V57.408H64.352V56.408H63.352ZM62.596 56.408L61.6675 56.7794L61.919 57.408H62.596V56.408ZM60.22 50.468L61.1485 50.0966L61.0545 49.8617L60.8602 49.6998L60.22 50.468ZM49.6 49.604L49.0592 48.7628L49.0523 48.7673L49.6 49.604ZM46.468 53.384L45.5607 52.9632L45.5558 52.9742L46.468 53.384ZM46.396 71.78L45.474 72.1675L45.4789 72.1787L46.396 71.78ZM49.348 75.596L48.7682 76.4108L48.7771 76.4171L48.7861 76.4232L49.348 75.596ZM58.564 74.984L57.8228 74.3127L57.8158 74.3205L58.564 74.984ZM60.292 66.524H61.292V65.6633L60.4409 65.5351L60.292 66.524ZM56.944 66.02H55.944V66.8807L56.7951 67.0089L56.944 66.02ZM56.944 65.228V64.228H55.944V65.228H56.944ZM67.708 65.228H68.708V64.228H67.708V65.228ZM67.708 66.02L67.8569 67.0089L68.708 66.8807V66.02H67.708ZM64.36 66.524L64.2111 65.5351L63.36 65.6633V66.524H64.36ZM63.244 73.724L64.0891 74.2587L64.0939 74.2509L63.244 73.724ZM53.776 76.72C51.3294 76.72 49.2307 76.1277 47.4428 74.9722L46.3572 76.6518C48.5053 78.0403 50.9906 78.72 53.776 78.72V76.72ZM47.4428 74.9722C45.6431 73.8089 44.2384 72.1812 43.2317 70.0559L41.4243 70.9121C42.5776 73.3468 44.2209 75.2711 46.3572 76.6518L47.4428 74.9722ZM43.2354 70.0637C42.2506 67.9375 41.744 65.4573 41.744 62.6H39.744C39.744 65.6947 40.2934 68.4705 41.4206 70.9043L43.2354 70.0637ZM41.744 62.6C41.744 59.7518 42.2832 57.28 43.3323 55.1594L41.5397 54.2726C40.3328 56.712 39.744 59.4962 39.744 62.6H41.744ZM43.3323 55.1594C44.3844 53.0328 45.8357 51.4009 47.6856 50.2337L46.6184 48.5423C44.4363 49.9191 42.7436 51.8392 41.5397 54.2726L43.3323 55.1594ZM47.6811 50.2366C49.5485 49.0722 51.6899 48.48 54.136 48.48V46.48C51.35 46.48 48.8355 47.1598 46.6229 48.5394L47.6811 50.2366ZM54.136 48.48C56.4329 48.48 58.3045 49.0568 59.8091 50.1588L60.9909 48.5452C59.0875 47.1512 56.7831 46.48 54.136 46.48V48.48ZM61.0487 50.113L63.2447 48.241L61.9473 46.719L59.7513 48.591L61.0487 50.113ZM62.596 48.48H63.352V46.48H62.596V48.48ZM62.352 47.48V56.408H64.352V47.48H62.352ZM63.352 55.408H62.596V57.408H63.352V55.408ZM63.5245 56.0366L61.1485 50.0966L59.2915 50.8394L61.6675 56.7794L63.5245 56.0366ZM60.8602 49.6998C58.9458 48.1044 56.689 47.308 54.136 47.308V49.308C56.239 49.308 58.0382 49.9516 59.5798 51.2362L60.8602 49.6998ZM54.136 47.308C52.2746 47.308 50.573 47.7897 49.0592 48.7628L50.1408 50.4452C51.315 49.6903 52.6374 49.308 54.136 49.308V47.308ZM49.0523 48.7673C47.5527 49.7489 46.3948 51.1649 45.5608 52.9633L47.3752 53.8047C48.0772 52.2911 49.0073 51.1871 50.1477 50.4407L49.0523 48.7673ZM45.5558 52.9742C44.7411 54.7876 44.352 56.9017 44.352 59.288H46.352C46.352 57.1143 46.7069 55.2924 47.3802 53.7938L45.5558 52.9742ZM44.352 59.288V65.876H46.352V59.288H44.352ZM44.352 65.876C44.352 68.2546 44.7147 70.3606 45.4741 72.1675L47.3179 71.3925C46.6853 69.8874 46.352 68.0574 46.352 65.876H44.352ZM45.4789 72.1787C46.2583 73.9714 47.3474 75.3998 48.7682 76.4108L49.9278 74.7812C48.8526 74.0162 47.9737 72.9006 47.3131 71.3813L45.4789 72.1787ZM48.7861 76.4232C50.2392 77.4102 51.915 77.892 53.776 77.892V75.892C52.277 75.892 51.0008 75.5098 49.9099 74.7688L48.7861 76.4232ZM53.776 77.892C56.0595 77.892 57.9543 77.1787 59.3122 75.6475L57.8158 74.3205C56.9177 75.3333 55.6205 75.892 53.776 75.892V77.892ZM59.3052 75.6553C60.6618 74.1573 61.292 72.1929 61.292 69.872H59.292C59.292 71.8231 58.7702 73.2667 57.8228 74.3127L59.3052 75.6553ZM61.292 69.872V66.524H59.292V69.872H61.292ZM60.4409 65.5351L57.0929 65.0311L56.7951 67.0089L60.1431 67.5129L60.4409 65.5351ZM57.944 66.02V65.228H55.944V66.02H57.944ZM56.944 66.228H67.708V64.228H56.944V66.228ZM66.708 65.228V66.02H68.708V65.228H66.708ZM67.5591 65.0311L64.2111 65.5351L64.5089 67.5129L67.8569 67.0089L67.5591 65.0311ZM63.36 66.524V69.872H65.36V66.524H63.36ZM63.36 69.872C63.36 71.0476 63.0433 72.15 62.3941 73.1971L64.0939 74.2509C64.9327 72.898 65.36 71.4324 65.36 69.872H63.36ZM62.3989 73.1894C61.78 74.1676 60.7826 75.0151 59.3269 75.6989L60.1771 77.5091C61.8893 76.7049 63.22 75.6324 64.0891 74.2586L62.3989 73.1894ZM59.3269 75.6989C57.9157 76.3617 56.0805 76.72 53.776 76.72V78.72C56.2715 78.72 58.4203 78.3343 60.1771 77.5091L59.3269 75.6989ZM75.3932 76.856L74.9673 77.7608L74.9741 77.764L75.3932 76.856ZM72.4772 74.516L73.2842 73.9255L72.4772 74.516ZM72.2252 68.9L72.9323 69.6071L72.9398 69.5996L72.9471 69.5919L72.2252 68.9ZM76.0772 68.72L75.4235 69.4768V69.4768L76.0772 68.72ZM76.8692 70.7L77.3096 71.5978L77.8692 71.3233V70.7H76.8692ZM76.1852 75.992L75.5777 76.7864L75.5907 76.7963L75.6039 76.8057L76.1852 75.992ZM83.7092 74.948L82.9409 74.3078L83.7092 74.948ZM83.1692 63.68L82.4741 64.399L82.4804 64.405L83.1692 63.68ZM76.7972 61.34H75.7972V62.282L76.7374 62.3382L76.7972 61.34ZM76.7972 60.548L76.7401 59.5496L75.7972 59.6035V60.548H76.7972ZM82.6652 58.532L83.3181 59.2894L83.3191 59.2885L82.6652 58.532ZM83.4572 49.748L82.7138 50.417L82.7231 50.427L83.4572 49.748ZM76.8332 48.992L77.3353 49.8568L77.3437 49.8519L76.8332 48.992ZM77.5172 53.564H78.5172V52.9233L77.9351 52.6555L77.5172 53.564ZM76.7612 55.472L77.4301 56.2153L77.4321 56.2135L76.7612 55.472ZM73.4492 50.216L74.1978 50.8791L74.2069 50.8685L73.4492 50.216ZM76.4012 48.2L76.0422 47.2666L76.0361 47.269L76.4012 48.2ZM86.7692 49.136L86.1855 49.948L86.7692 49.136ZM86.8052 58.64L87.4093 59.4369L87.4112 59.4354L86.8052 58.64ZM80.2892 60.908L80.1559 59.9169L79.2892 60.0335V60.908H80.2892ZM80.2892 61.016H79.2892V61.9692L80.2412 62.0148L80.2892 61.016ZM87.5252 63.428L86.8992 64.2079L86.9048 64.2124L86.9105 64.2168L87.5252 63.428ZM89.0732 73.58L88.2361 73.0327L88.2288 73.0442L89.0732 73.58ZM85.4372 76.604L85.8571 77.5116L85.863 77.5088L85.4372 76.604ZM79.4972 76.72C78.1417 76.72 76.9183 76.4585 75.8122 75.948L74.9741 77.764C76.3641 78.4055 77.8766 78.72 79.4972 78.72V76.72ZM75.819 75.9512C74.7294 75.4385 73.8949 74.7602 73.2842 73.9255L71.6701 75.1065C72.4994 76.2398 73.6089 77.1215 74.9674 77.7608L75.819 75.9512ZM73.2842 73.9255C72.6901 73.1136 72.3972 72.2166 72.3972 71.204H70.3972C70.3972 72.6394 70.8242 73.9504 71.6701 75.1065L73.2842 73.9255ZM72.3972 71.204C72.3972 70.4124 72.6137 69.9257 72.9323 69.6071L71.518 68.1929C70.7327 68.9783 70.3972 70.0276 70.3972 71.204H72.3972ZM72.9471 69.5919C73.3188 69.2041 73.7214 69.036 74.2052 69.036V67.036C73.1529 67.036 72.2356 67.4439 71.5032 68.2081L72.9471 69.5919ZM74.2052 69.036C74.6936 69.036 75.0834 69.1831 75.4235 69.4768L76.7308 67.9632C76.0149 67.3449 75.1567 67.036 74.2052 67.036V69.036ZM75.4235 69.4768C75.6804 69.6987 75.8692 70.0514 75.8692 70.7H77.8692C77.8692 69.6206 77.5299 68.6533 76.7308 67.9632L75.4235 69.4768ZM76.4287 69.8022C75.6698 70.1745 75.0408 70.6771 74.6045 71.3357C74.1647 71.9995 73.9612 72.761 73.9612 73.58H75.9612C75.9612 73.103 76.0756 72.7365 76.2718 72.4403C76.4715 72.1389 76.7965 71.8495 77.3096 71.5978L76.4287 69.8022ZM73.9612 73.58C73.9612 74.8911 74.527 75.9829 75.5777 76.7864L76.7926 75.1976C76.2113 74.7531 75.9612 74.2369 75.9612 73.58H73.9612ZM75.6039 76.8057C76.661 77.5608 77.9878 77.892 79.4972 77.892V75.892C78.2705 75.892 77.3893 75.6232 76.7664 75.1783L75.6039 76.8057ZM79.4972 77.892C81.5136 77.892 83.2021 77.1185 84.4774 75.5882L82.9409 74.3078C82.0562 75.3695 80.9367 75.892 79.4972 75.892V77.892ZM84.4774 75.5882C85.7553 74.0546 86.3292 71.9856 86.3292 69.512H84.3292C84.3292 71.6944 83.823 73.2494 82.9409 74.3078L84.4774 75.5882ZM86.3292 69.512C86.3292 66.7959 85.5469 64.5595 83.8579 62.955L82.4804 64.405C83.6714 65.5365 84.3292 67.1881 84.3292 69.512H86.3292ZM83.8642 62.961C82.1944 61.3469 79.8076 60.5183 76.8569 60.3418L76.7374 62.3382C79.4027 62.4977 81.2639 63.2291 82.4741 64.399L83.8642 62.961ZM77.7972 61.34V60.548H75.7972V61.34H77.7972ZM76.8542 61.5464C79.5131 61.3944 81.707 60.6783 83.3181 59.2894L82.0122 57.7746C80.8393 58.7857 79.1212 59.4136 76.7401 59.5496L76.8542 61.5464ZM83.3191 59.2885C84.979 57.8537 85.7892 55.9209 85.7892 53.6H83.7892C83.7892 55.4071 83.1833 56.7623 82.0112 57.7755L83.3191 59.2885ZM85.7892 53.6C85.7892 51.8009 85.2874 50.2539 84.1913 49.069L82.7231 50.427C83.4029 51.1621 83.7892 52.1831 83.7892 53.6H85.7892ZM84.2005 49.079C83.1205 47.879 81.6707 47.308 79.9652 47.308V49.308C81.1876 49.308 82.0659 49.697 82.7139 50.417L84.2005 49.079ZM79.9652 47.308C78.5456 47.308 77.3019 47.5507 76.3226 48.1321L77.3437 49.8519C77.9004 49.5213 78.7447 49.308 79.9652 49.308V47.308ZM76.331 48.1272C75.3111 48.7194 74.7172 49.6438 74.7172 50.828H76.7172C76.7172 50.4282 76.8672 50.1286 77.3353 49.8568L76.331 48.1272ZM74.7172 50.828C74.7172 51.6263 74.9076 52.3709 75.3317 53.0156C75.7543 53.658 76.3651 54.1348 77.0993 54.4725L77.9351 52.6555C77.4692 52.4412 77.18 52.186 77.0026 51.9164C76.8267 51.6491 76.7172 51.3017 76.7172 50.828H74.7172ZM76.5172 53.564C76.5172 54.1591 76.343 54.5018 76.0902 54.7305L77.4321 56.2135C78.1873 55.5302 78.5172 54.6009 78.5172 53.564H76.5172ZM76.0922 54.7287C75.8108 54.982 75.467 55.12 74.9972 55.12V57.12C75.9193 57.12 76.7515 56.826 77.4301 56.2153L76.0922 54.7287ZM74.9972 55.12C74.5681 55.12 74.2 54.969 73.8478 54.6008L72.4025 55.9832C73.1063 56.719 73.9862 57.12 74.9972 57.12V55.12ZM73.8478 54.6008C73.5314 54.27 73.3332 53.8036 73.3332 53.096H71.3332C71.3332 54.2123 71.6629 55.2099 72.4025 55.9832L73.8478 54.6008ZM73.3332 53.096C73.3332 52.2705 73.6088 51.544 74.1977 50.879L72.7006 49.553C71.8015 50.568 71.3332 51.7615 71.3332 53.096H73.3332ZM74.2069 50.8685C74.8294 50.1456 75.6705 49.5607 76.7662 49.131L76.0361 47.269C74.6838 47.7993 73.5569 48.5584 72.6914 49.5635L74.2069 50.8685ZM76.7601 49.1333C77.8889 48.6992 79.0868 48.48 80.3612 48.48V46.48C78.8515 46.48 77.4094 46.7408 76.0422 47.2667L76.7601 49.1333ZM80.3612 48.48C82.9774 48.48 84.8802 49.0098 86.1855 49.948L87.3528 48.324C85.5861 47.0542 83.2169 46.48 80.3612 46.48V48.48ZM86.1855 49.948C87.4442 50.8527 88.0732 52.0898 88.0732 53.78H90.0732C90.0732 51.4862 89.1661 49.6273 87.3528 48.324L86.1855 49.948ZM88.0732 53.78C88.0732 55.5913 87.436 56.9022 86.1991 57.8446L87.4112 59.4354C89.1983 58.0738 90.0732 56.1447 90.0732 53.78H88.0732ZM86.201 57.8431C84.9057 58.825 82.9258 59.5445 80.1559 59.9169L80.4224 61.8991C83.3645 61.5035 85.7286 60.711 87.4093 59.4369L86.201 57.8431ZM79.2892 60.908V61.016H81.2892V60.908H79.2892ZM80.2412 62.0148C83.0903 62.1516 85.2813 62.9093 86.8992 64.2079L88.1511 62.6481C86.121 61.0187 83.488 60.1684 80.3371 60.0171L80.2412 62.0148ZM86.9105 64.2168C88.4847 65.4435 89.2972 67.1632 89.2972 69.512H91.2972C91.2972 66.6287 90.2616 64.2925 88.1398 62.6392L86.9105 64.2168ZM89.2972 69.512C89.2972 70.7778 88.9479 71.9442 88.2362 73.0327L89.9101 74.1273C90.8304 72.7197 91.2972 71.1742 91.2972 69.512H89.2972ZM88.2288 73.0442C87.5589 74.0999 86.5097 74.9941 85.0114 75.6992L85.863 77.5088C87.6287 76.6779 89.0034 75.5561 89.9175 74.1158L88.2288 73.0442ZM85.0172 75.6964C83.5765 76.363 81.7494 76.72 79.4972 76.72V78.72C81.9489 78.72 84.0818 78.333 85.8571 77.5116L85.0172 75.6964Z" fill="#FCD46C"/>
<circle opacity="0.1" cx="64" cy="64" r="47.5" stroke="#FCD46C"/>
<circle opacity="0.4" cx="64" cy="64" r="56" stroke="url(#paint0_radial_84_277)" stroke-width="16" stroke-dasharray="1 5"/>
<defs>
<radialGradient id="paint0_radial_84_277" cx="0" cy="0" r="1" gradientUnits="userSpaceOnUse" gradientTransform="translate(64 64) rotate(90) scale(64)">
<stop offset="0.859375" stop-color="#FCD46C"/>
<stop offset="1" stop-color="#FCD46C" stop-opacity="0"/>
</radialGradient>
</defs>
</svg>
