<svg width="240" height="100" viewBox="0 0 240 100" fill="none" xmlns="http://www.w3.org/2000/svg">
<g clip-path="url(#clip0_84_867)">
<path d="M86.1361 47.5321C86.3247 48.3108 86.5971 48.4371 86.9743 47.9109C87.1 47.6373 87.4144 47.4268 87.9383 47.2795L90.5786 46.4587C91.1235 46.2482 91.2492 46.3324 90.9768 46.7112C90.411 47.4268 89.7195 48.0372 88.9232 48.5002C88.8393 48.6476 89.1118 48.6686 89.7614 48.5634C91.5635 48.2687 92.9676 47.2164 93.9734 45.4063C94.0782 45.1116 94.3506 44.9012 94.7697 44.7959L95.7127 44.2697C96.048 44.1224 96.1528 43.954 96.069 43.7857C96.0061 43.7436 95.7337 43.7646 95.2726 43.8698L94.9374 43.954C94.6021 44.0593 94.4973 43.8909 94.6021 43.4699C94.8535 42.3123 94.9793 40.8811 95.0002 39.1763C95.0212 38.7975 95.105 38.5659 95.2726 38.4817C95.5451 38.3976 95.6708 38.2292 95.6498 38.0398C95.566 37.8293 95.3146 37.703 94.9164 37.6609C94.3506 37.5346 93.8267 37.4715 93.3028 37.4504C92.8418 37.4294 92.5904 37.682 92.5904 38.1871V39.2394C92.5484 39.7025 92.3598 39.934 91.9827 39.934H87.5611L86.6181 39.8498C86.157 39.8288 85.9684 39.9971 86.0523 40.3129C86.1361 40.5865 86.4085 40.7128 86.8905 40.6496L87.6239 40.5654H91.9617C92.3389 40.5654 92.5275 40.7549 92.5275 41.1337L92.4856 41.8704C92.4437 42.3334 92.2341 42.5649 91.8569 42.5649H88.986L88.064 42.4807C87.582 42.4597 87.3934 42.6281 87.4772 42.9438C87.5611 43.2174 87.8335 43.3437 88.3155 43.3016L89.0489 43.2174H91.8569C92.1922 43.2174 92.3179 43.491 92.2132 44.0172C92.0874 44.5013 91.836 44.7749 91.4588 44.817C89.5937 45.0906 87.6449 45.259 85.6122 45.3011C85.5703 45.3431 85.5912 45.6378 85.6751 46.1429C85.8218 46.606 85.9684 47.069 86.1361 47.5321Z" fill="white"/>
<path d="M96.4252 49.7207C96.0271 49.0892 95.2308 48.542 94.0782 48.0579C93.7429 47.8054 93.4705 47.9316 93.219 48.4368C92.9466 48.8998 92.6533 49.1313 92.3808 49.1313H88.0012L87.142 49.0471C86.5971 49.005 86.3876 49.1524 86.4924 49.5102C86.5762 49.8469 86.8905 49.9732 87.3725 49.889C87.603 49.8259 87.8335 49.7838 88.064 49.7628H90.2643C90.5996 49.7628 90.6625 49.9732 90.432 50.3942C89.2794 52.099 87.7706 53.3197 85.9475 54.0353C85.9475 54.1195 85.9894 54.1827 86.0733 54.2248C88.4831 53.888 90.5787 52.8567 92.318 51.1308C92.758 50.6678 92.9676 50.6678 92.9676 51.1729C92.9676 51.636 92.8838 51.9727 92.6952 52.2042C90.7673 54.4563 88.6508 56.2243 86.3457 57.4871C85.8847 57.7607 85.6332 57.9501 85.6122 58.0343C85.6751 58.1185 85.738 58.1606 85.8218 58.1816C87.9592 57.8449 90.0967 56.8557 92.2551 55.214C92.7161 54.8562 92.9676 54.8562 92.9676 55.235C93.0933 56.3084 92.9676 57.0241 92.5904 57.3398C91.9408 57.4871 91.1864 57.5713 90.3272 57.5502C90.2434 57.6134 90.2015 57.6976 90.2015 57.8238C90.2224 57.9291 90.411 58.0133 90.7673 58.0764C91.6264 58.4553 92.1713 59.0867 92.4018 59.9707C92.4227 60.0128 92.7371 60.0128 93.3448 59.9707C94.665 59.6339 95.3565 58.9394 95.3775 57.887V51.2782C95.3775 50.8993 95.4403 50.6257 95.587 50.4363C96.1318 50.0785 96.4252 49.8259 96.4252 49.7207Z" fill="white"/>
<path d="M104.87 43.7852C104.388 43.4695 104.116 43.3222 104.032 43.3432C103.739 43.5327 103.32 43.9957 102.796 44.7534C102.649 44.9218 102.544 45.027 102.46 45.0691C101.643 45.1112 100.868 45.1322 100.092 45.1112C99.7152 45.1112 99.5266 44.9218 99.5266 44.5219V43.7642C99.5266 43.3853 99.7152 43.1959 100.113 43.1959H104.137C104.619 43.1959 104.891 43.1328 104.954 43.0275C104.975 42.9433 104.807 42.6487 104.493 42.1856C104.158 41.8068 103.802 41.4911 103.466 41.2385C103.131 40.9228 102.859 40.7755 102.649 40.7755C102.565 40.7965 102.335 41.028 101.916 41.5121C101.706 41.7436 101.538 41.9752 101.371 42.2277C101.161 42.5855 100.784 42.7118 100.218 42.5855C99.7571 42.5855 99.5057 42.3961 99.5057 41.9962V41.1543C99.5057 40.7755 99.6942 40.586 100.092 40.586H104.996C105.457 40.586 105.75 40.565 105.834 40.544C106.023 40.3966 106.002 40.2072 105.771 39.9757C105.185 39.2811 104.744 38.8181 104.409 38.6076C103.843 37.9762 103.403 38.0183 103.089 38.6918C102.817 39.0075 102.565 39.3232 102.335 39.6389C102.23 39.7863 102.125 39.8704 102.02 39.9125C101.329 39.9546 100.679 39.9757 100.03 39.9546C99.6523 39.9546 99.4637 39.7863 99.4637 39.4705C99.3799 39.0286 99.5266 38.776 99.9038 38.7128C100.155 38.5655 100.26 38.3761 100.218 38.1656C100.05 37.9341 99.799 37.7868 99.4428 37.7447L97.8292 37.5131C97.3472 37.4921 97.0958 37.7026 97.0958 38.1867V47.0054C97.012 48.1841 97.5568 48.6471 98.7303 48.3946C99.0027 48.3525 99.2332 48.142 99.4009 47.7842C99.4428 47.258 99.4637 46.7739 99.4428 46.3109C99.4428 45.932 99.6314 45.7426 100.03 45.7426H105.31C105.897 45.8268 106.211 45.7426 106.295 45.49C106.086 44.8797 105.583 44.3114 104.87 43.7852Z" fill="white"/>
<path d="M103.403 47.9316C103.34 47.9527 103.11 48.1842 102.733 48.6683C102.544 48.984 102.335 49.1313 102.104 49.1313H98.3531L97.431 49.0471C96.9281 49.0261 96.7186 49.1734 96.8233 49.4681C96.8862 49.7207 96.9491 49.889 97.0119 49.9522C97.9549 49.8048 98.877 49.7417 99.778 49.7627C100.134 49.7627 100.239 49.9732 100.05 50.3731C99.5685 51.3834 98.6884 52.3305 97.3891 53.1724C97.0329 53.3829 96.6766 53.5933 96.3204 53.8459C96.3204 53.9301 96.5509 53.9511 97.0329 53.9301C99.0446 53.446 100.721 52.4568 102.062 50.9624C102.481 50.4994 102.691 50.4573 102.691 50.8782C102.838 51.5728 102.691 52.099 102.23 52.4778C100.407 54.5615 98.4788 56.1611 96.4671 57.2556C95.9642 57.4871 95.8175 57.6975 96.027 57.8659C97.9759 57.5923 99.9666 56.7083 101.978 55.235C102.46 54.8351 102.712 54.8351 102.712 55.235V56.2453C102.858 56.9188 102.586 57.3187 101.936 57.4239C101.538 57.466 101.119 57.4871 100.721 57.466C100.239 57.445 99.9876 57.5081 99.9457 57.6344C99.9247 57.7186 99.9666 57.8238 100.03 57.887C100.972 58.0343 101.622 58.5184 101.957 59.3603C102.104 59.8233 102.46 60.0338 103.047 59.9917C104.346 59.7181 105.017 59.0235 105.08 57.9291V51.2992C104.975 50.8782 105.122 50.5625 105.52 50.331C105.981 50.1206 106.169 49.9101 106.128 49.6575C105.499 48.9209 104.598 48.3315 103.403 47.9316Z" fill="white"/>
<path d="M130.75 56.3086V51.8466C130.624 51.2362 130.834 50.8574 131.4 50.689C131.924 50.4575 131.965 50.0997 131.525 49.6156C130.981 49.2157 130.436 48.8579 129.891 48.5843C129.304 48.3107 128.801 48.3738 128.424 48.7948C128.089 49.4262 127.607 49.6788 127.02 49.5525H119.539L118.659 49.4683C118.156 49.4472 117.946 49.5946 118.051 49.9103C118.135 50.226 118.428 50.3523 118.91 50.2891C119.434 50.1839 120.042 50.1418 120.754 50.1628C121.132 50.1628 121.32 50.3523 121.32 50.7522V58.5817C121.153 59.4236 121.488 59.9288 122.326 60.0761C123.269 60.1603 123.793 59.8867 123.94 59.2342V50.7311C123.94 50.3523 124.128 50.1628 124.526 50.1628H127.481C128.131 50.0366 128.361 50.2891 128.194 50.9205V54.6249C128.34 55.4246 127.984 55.8456 127.104 55.9087L126.119 55.9929C125.574 55.9087 125.281 56.035 125.26 56.3507C125.302 56.4349 125.574 56.5402 126.035 56.6875C126.706 56.898 127.188 57.2979 127.481 57.8872C127.649 58.3502 127.963 58.5817 128.445 58.5607C129.786 58.4344 130.561 57.6767 130.75 56.3086Z" fill="white"/>
<path d="M133.789 45.1951C133.81 45.1109 133.768 45.0478 133.705 44.9636C132.154 44.6268 130.708 43.9954 129.367 43.0693C127.67 41.8065 126.496 40.6279 125.888 39.5334C125.616 39.0283 125.574 38.7757 125.763 38.7757C126.077 38.7547 126.245 38.6284 126.245 38.4179C126.245 38.3337 125.972 38.1022 125.406 37.7444C124.778 37.5339 124.149 37.3445 123.541 37.1761C123.248 37.0709 123.08 37.0919 123.018 37.2393C122.871 37.8917 122.703 38.5442 122.494 39.1967C121.676 41.7855 120.126 44.248 117.863 46.6053C117.402 47.0262 117.15 47.2998 117.108 47.4051C117.087 47.5524 117.402 47.4893 118.051 47.1946C120.88 45.4687 123.122 43.1535 124.715 40.2701C124.987 39.7649 125.197 39.7018 125.323 40.0806C125.909 41.6592 126.601 43.0273 127.46 44.1638C128.487 45.4898 129.681 46.5421 131.043 47.3209C131.295 47.4682 131.484 47.5103 131.609 47.4893C131.672 47.4261 131.798 47.1525 132.007 46.6474C132.238 46.2054 132.573 45.8686 132.992 45.6161C133.453 45.4266 133.705 45.2793 133.789 45.1951Z" fill="white"/>
<path d="M115.285 57.9081C115.683 56.8768 115.641 55.8244 115.117 54.73C114.845 53.9091 114.74 53.1725 114.782 52.499C114.824 51.9938 115.034 51.3414 115.411 50.5416L118.303 43.0067C118.282 42.8593 118.24 42.7331 118.135 42.6699C118.072 42.6699 117.884 42.9225 117.548 43.4276C116.102 45.8691 114.698 48.3106 113.315 50.7521C113.106 51.152 112.917 51.4256 112.708 51.5308L111.723 51.5519C111.136 51.5308 110.822 51.5729 110.78 51.6781C110.801 51.7834 111.115 51.9938 111.723 52.2675C112.435 52.7726 112.791 53.3619 112.749 54.0565C112.791 54.6458 112.729 55.4035 112.54 56.3085C112.414 57.6345 112.812 58.4132 113.755 58.6658C114.447 58.75 114.95 58.4974 115.285 57.9081Z" fill="white"/>
<path d="M121.991 46.5002L122.871 46.3739H127.083C127.544 46.3739 127.816 46.3528 127.879 46.3318C128.131 46.1213 128.026 45.7846 127.607 45.3215C127.418 45.0479 127.188 44.7953 126.936 44.5217C126.475 43.8693 126.077 43.8272 125.742 44.4375L125.302 45.09C124.966 45.553 124.61 45.7635 124.233 45.7635C123.332 45.8056 122.557 45.7635 121.886 45.6372C121.362 45.6162 121.132 45.7635 121.215 46.1003C121.257 46.416 121.53 46.5423 121.991 46.5002Z" fill="white"/>
<path d="M139.509 46.2059C141.395 45.9323 143.198 45.2378 144.916 44.1223C145.398 43.7855 145.649 43.8276 145.649 44.2065C145.628 44.7326 145.649 45.2588 145.691 45.785C145.901 46.1428 146.32 46.2901 146.928 46.2059C147.389 46.0586 147.64 46.1849 147.64 46.5637V47.3004C147.64 47.6792 147.452 47.8687 147.053 47.8687H141.102C140.767 47.8055 140.452 47.7634 140.117 47.7424C139.656 47.7003 139.405 47.7003 139.363 47.7634L139.509 48.3107C139.593 48.5843 139.908 48.6895 140.39 48.6264L141.165 48.479H157.447C157.929 48.5422 158.265 48.479 158.432 48.2896C158.181 47.6792 157.573 47.0057 156.588 46.2901C156.127 46.0165 155.666 46.1007 155.205 46.5216C154.933 46.8374 154.702 47.1531 154.514 47.4688C154.283 47.8687 153.969 48.016 153.55 47.8687H150.721C150.343 47.8687 150.155 47.5951 150.155 47.0689C150.008 46.4796 150.155 46.1218 150.637 46.0376C150.867 45.8271 150.888 45.6377 150.7 45.4693C150.616 45.4061 150.804 45.322 151.245 45.2378C152.669 44.901 153.99 44.3959 155.205 43.7013C155.687 43.4277 155.938 43.4698 155.938 43.8697V44.7537C155.729 45.6798 156.127 46.1007 157.112 46.0376C158.139 45.8692 158.537 45.3641 158.327 44.5011V40.439C158.223 40.0181 158.327 39.7234 158.663 39.5761C159.061 39.4287 159.166 39.1972 159.019 38.9236C158.39 38.3974 157.804 38.0396 157.259 37.8923C156.672 37.7239 156.274 37.8081 156.043 38.1449C155.876 38.4606 155.708 38.65 155.519 38.7342H154.744H150.721L149.778 38.6079C149.317 38.5868 149.107 38.7342 149.149 39.0288C149.212 39.3025 149.275 39.4498 149.338 39.5129C150.301 39.3235 151.538 39.2604 153.005 39.3235C153.382 39.3235 153.34 39.555 152.879 39.997C151.852 40.9441 150.825 41.6597 149.82 42.1649C149.359 42.3543 149.065 42.5016 148.96 42.6069C148.918 42.7542 149.212 42.7963 149.84 42.7331C151.831 42.4385 153.612 41.7018 155.205 40.5442C155.687 40.1654 155.938 40.1233 155.938 40.3969C155.938 40.6495 155.75 40.9441 155.373 41.323C153.571 42.8594 151.747 44.017 149.903 44.7958C149.505 44.9642 149.191 45.0273 148.96 44.9852C148.877 45.0062 148.814 44.9852 148.73 44.9642C148.269 44.901 148.017 44.6905 148.017 44.3117V40.418C147.913 39.9549 148.059 39.6603 148.457 39.534C148.897 39.2604 148.897 38.9657 148.457 38.6921C147.934 38.3343 147.305 38.0186 146.592 37.7239C146.236 37.4924 145.943 37.6397 145.733 38.1449C145.587 38.4606 145.398 38.65 145.209 38.7342H144.434H140.683C140.348 38.671 140.033 38.6289 139.698 38.6079C139.195 38.5868 139.007 38.7342 139.132 39.092C139.216 39.3656 139.489 39.4919 139.97 39.4498L140.725 39.3235H143.156C143.533 39.3235 143.554 39.5129 143.198 39.8707C142.003 40.9652 140.767 41.786 139.468 42.3333C139.007 42.5437 138.755 42.7121 138.734 42.7752C138.755 42.8384 139.007 42.8594 139.489 42.8173C141.249 42.6069 143.051 41.9754 144.874 40.881C145.356 40.5863 145.607 40.5442 145.607 40.7547C145.607 40.9441 145.419 41.2177 145.042 41.5966C143.26 43.3435 141.27 44.7326 139.048 45.764C138.713 45.8902 138.587 46.0165 138.671 46.1638C138.776 46.248 139.048 46.248 139.509 46.2059Z" fill="white"/>
<path d="M159.731 55.1926C159.731 55.0874 159.564 54.8348 159.249 54.4139C158.6 53.6562 157.95 53.13 157.259 52.8353C157.154 52.8353 156.902 53.0458 156.525 53.4457C155.938 54.5191 155.415 54.9611 154.912 54.7927H150.574C150.218 54.7927 150.05 54.7085 150.05 54.5612C150.134 54.2876 150.281 54.1403 150.49 54.1192C150.825 53.9719 150.951 53.7825 150.867 53.572C150.846 53.4247 150.993 53.2352 151.307 52.9827L152.313 52.2039C152.774 51.804 153.151 51.7409 153.445 52.0145C153.633 52.3302 153.78 52.6459 153.885 52.9616C154.032 53.572 154.388 53.9509 154.933 54.0561C155.792 54.0771 156.253 53.6983 156.295 52.8985C156.295 51.8251 155.687 51.1726 154.451 50.9621C153.927 50.899 153.78 50.7517 153.99 50.5202C154.262 50.2676 154.472 50.1203 154.618 50.0782C154.996 49.9519 155.079 49.7625 154.891 49.5309C154.451 49.2573 153.717 49.0048 152.669 48.7943C152.229 48.7732 151.915 49.0048 151.726 49.5309C151.349 50.5412 150.846 51.4673 150.239 52.3513C149.903 52.7722 149.505 52.9616 149.086 52.8985C148.583 52.8143 148.08 52.7722 147.598 52.7301C147.514 52.7722 147.473 53.0458 147.473 53.5089V54.2245C147.473 54.6033 147.284 54.7927 146.886 54.7927H139.593C139.279 54.7296 138.965 54.6875 138.65 54.6665C138.105 54.6244 137.875 54.7927 137.98 55.1926C138.064 55.4662 138.378 55.5925 138.902 55.5504L139.656 55.4031H146.928C147.305 55.4031 147.493 55.5925 147.493 55.9924V59.4442C147.514 59.7809 147.682 59.9914 147.954 60.0756C148.96 60.4755 149.673 60.2229 150.05 59.381V55.9714C150.05 55.5925 150.239 55.4031 150.637 55.4031H158.851C159.354 55.4242 159.648 55.34 159.731 55.1926Z" fill="white"/>
<path d="M145.88 50.2473C146.173 50.2262 146.362 50.121 146.425 49.9105C146.341 49.5738 146.152 49.3843 145.817 49.3212C145.251 49.1107 144.727 48.9424 144.204 48.8371C143.742 48.7529 143.407 49.0055 143.24 49.5738C142.485 51.4049 141.249 52.9624 139.489 54.2463C139.489 54.3094 139.53 54.3725 139.635 54.4357C140.997 53.9095 142.38 53.1097 143.826 52.0784C144.162 51.8258 144.476 51.91 144.769 52.331C145.126 53.6148 145.775 54.12 146.697 53.8253C147.284 53.4886 147.473 52.9624 147.305 52.2468C147.158 51.5943 146.718 51.1523 145.964 50.9629C145.44 50.8787 145.23 50.7735 145.356 50.6051C145.545 50.4367 145.712 50.3104 145.88 50.2473Z" fill="white"/>
<path d="M186.051 57.1928C186.051 57.1297 186.009 57.0455 185.968 56.9613C183.034 56.6246 180.268 55.6985 177.627 54.2252C177.145 53.9095 177.062 53.5727 177.376 53.2149C179.597 50.3525 181.001 47.1744 181.588 43.7016C181.672 43.2385 181.923 43.007 182.279 43.007H185.276C185.758 43.007 186.03 42.9649 186.114 42.8597C186.135 42.7755 185.989 42.4808 185.632 41.9967C184.962 41.3022 184.249 40.7549 183.537 40.334C183.327 40.2498 183.013 40.4813 182.615 41.0917C182.531 41.239 182.405 41.4074 182.258 41.5547C181.86 42.3124 181.42 42.5861 180.917 42.3966H177.124C176.747 42.3966 176.559 42.2072 176.559 41.8073V39.45C176.559 39.0712 176.58 38.8397 176.642 38.7765C177.292 38.566 177.418 38.2503 177.02 37.8504C176.37 37.64 175.532 37.4926 174.526 37.4084C174.065 37.3874 173.855 37.64 173.855 38.1661V41.8284C173.855 42.2072 173.667 42.3966 173.269 42.3966H166.081C165.746 42.3335 165.41 42.2914 165.117 42.2704C164.656 42.2283 164.404 42.2283 164.363 42.2914L164.425 42.565C164.572 43.028 164.886 43.1964 165.389 43.1122L166.144 42.986H169.518C169.874 42.986 170.062 43.1964 170.104 43.5963C170.398 47.1533 171.425 50.3946 173.143 53.3201C173.457 53.7832 173.415 54.2041 173.059 54.5619C171.823 55.6985 170.502 56.6667 169.098 57.5085C167.736 58.2873 166.29 58.9398 164.74 59.487C164.74 59.5712 164.761 59.6343 164.803 59.7185C168.114 59.5712 171.341 58.3294 174.463 56.0142C174.84 55.7195 175.238 55.7406 175.658 56.0984C178.005 58.0558 180.645 59.2765 183.621 59.7396C183.704 59.7185 183.83 59.4238 184.04 58.8556C184.605 58.0768 185.255 57.5296 186.051 57.1928ZM175.595 51.6995C175.238 52.1625 174.861 52.2257 174.505 51.8679C173.122 50.4788 172.137 48.9213 171.529 47.2375C171.194 46.3746 170.901 45.1959 170.649 43.7226C170.607 43.2596 170.775 43.0281 171.131 43.0281H178.403C178.78 43.0281 178.927 43.2175 178.864 43.6174C178.277 46.6692 177.187 49.3633 175.595 51.6995Z" fill="white"/>
<path d="M205.435 54.7931C206.483 55.0878 207.153 54.8352 207.447 53.9933V42.6068C207.447 42.2279 207.468 42.0175 207.489 41.9543L208.138 41.5334C208.264 41.2598 208.264 41.0703 208.138 40.9861C207.594 40.6494 206.734 40.46 205.561 40.3968C205.079 40.3758 204.848 40.6073 204.869 41.1124V53.4461C204.765 54.1196 204.953 54.5616 205.435 54.7931Z" fill="white"/>
<path d="M200.972 42.3753C200.469 41.7229 200.091 41.6387 199.84 42.1228L199.19 43.0699C199.086 43.2383 198.981 43.3435 198.918 43.4066C197.556 43.4908 196.55 43.4698 195.879 43.3435C195.418 43.3224 195.167 43.3224 195.125 43.3856L195.209 43.8486C195.272 44.1012 195.335 44.2485 195.397 44.2906L196.885 44.0591H200.951C201.454 44.0591 201.747 44.017 201.81 43.9118C201.831 43.8276 201.726 43.5329 201.475 43.0699C201.37 42.7963 201.202 42.5858 200.972 42.3753Z" fill="white"/>
<path d="M212.497 37.9763C212.287 37.7658 212.015 37.6606 211.68 37.6395C211.114 37.5553 210.548 37.4711 210.003 37.429C209.542 37.408 209.312 37.6395 209.312 38.1236V56.4768C209.312 56.8556 209.291 57.0872 209.249 57.2134C209.018 57.445 208.557 57.5292 207.887 57.445C207.363 57.3608 207.091 57.445 207.07 57.7186C207.091 57.8028 207.342 57.9922 207.824 58.2869C208.327 58.6868 208.578 59.1708 208.578 59.7391C208.578 60.0127 208.809 60.139 209.249 60.139C210.611 60.0127 211.491 59.3182 211.868 58.0764V39.3864C211.868 39.0076 211.889 38.7971 211.952 38.734C212.455 38.5446 212.644 38.292 212.497 37.9763Z" fill="white"/>
<path d="M198.352 39.6598C198.687 39.1757 199.023 39.0705 199.4 39.3231C200.343 40.0808 200.993 40.9858 201.391 42.0171C201.621 42.6064 201.977 42.9432 202.459 43.0274C203.759 42.88 204.178 42.1434 203.717 40.8174C202.962 39.6809 201.852 38.9232 200.343 38.5443C199.84 38.4391 199.61 38.3128 199.651 38.1865C199.63 38.0181 199.316 37.8077 198.708 37.5761C198.143 37.3867 197.619 37.2604 197.095 37.1762C196.634 37.0921 196.32 37.3025 196.173 37.8077C195.418 40.4386 193.742 42.7748 191.123 44.7953C190.662 45.0058 190.536 45.2163 190.703 45.4268C193.7 44.5638 196.257 42.6275 198.352 39.6598Z" fill="white"/>
<path d="M203.549 54.2884C204.052 53.9516 204.01 53.6359 203.465 53.2992C202.816 52.8572 202.187 52.5204 201.6 52.2889C201.286 52.0574 200.972 52.1626 200.657 52.6467C200.343 52.9413 200.008 53.0887 199.63 53.0887H197.409C197.011 53.1729 196.655 53.0887 196.34 52.8151C195.879 52.6467 195.67 52.3099 195.712 51.8048C195.796 51.3418 196.026 51.0892 196.382 51.0892H200.091C200.469 51.0892 200.678 51.1734 200.699 51.3418C200.678 51.6154 200.846 51.8258 201.223 51.9732C201.684 52.0574 202.103 52.0363 202.459 51.91C203.151 51.6996 203.423 51.2365 203.256 50.5209V47.6374C203.151 47.1534 203.298 46.8166 203.696 46.6482C203.905 46.4588 204.01 46.3115 204.031 46.2273C203.759 45.7642 203.13 45.3223 202.145 44.8592C201.516 44.4172 201.055 44.4804 200.741 45.0486C200.448 45.3433 200.112 45.4906 199.735 45.4906H196.529C196.152 45.5748 195.754 45.4696 195.314 45.1749C194.727 44.9224 194.119 44.7119 193.532 44.5225C193.428 44.5435 193.365 44.8592 193.344 45.4696C193.365 49.5317 193.197 52.5204 192.799 54.4567C192.589 55.6143 191.961 56.8772 190.955 58.2242C190.557 58.8346 190.431 59.1292 190.62 59.1082C191.646 58.7293 192.652 58.0137 193.637 56.9403C194.014 56.4773 194.203 56.4352 194.203 56.814C194.182 57.8243 194.203 58.8346 194.224 59.8448C194.308 60.0343 194.475 60.1605 194.706 60.2237C196.173 60.3921 196.864 59.8869 196.76 58.6872C196.76 58.3084 196.948 58.119 197.346 58.119H199.987C200.364 58.119 200.553 58.3084 200.553 58.7083C200.49 59.3818 200.72 59.7817 201.223 59.908C201.936 59.929 202.501 59.7817 202.941 59.4449C203.151 59.1713 203.235 58.7925 203.151 58.3505V55.1092C203.172 54.7093 203.298 54.4357 203.549 54.2884ZM195.942 46.7535C195.942 46.4167 196.194 46.2062 196.697 46.122H200.071C200.469 46.122 200.678 46.3325 200.678 46.7535V47.4901C200.678 47.869 200.49 48.0584 200.091 48.0584H196.508C196.131 48.0584 195.942 47.869 195.942 47.4691V46.7535ZM195.879 49.3423C195.942 48.8792 196.152 48.6477 196.529 48.6477H200.112C200.49 48.6477 200.678 48.8371 200.678 49.237V49.9105C200.678 50.2894 200.49 50.4788 200.091 50.4788H196.424C196.047 50.4788 195.858 50.2894 195.858 49.9105L195.879 49.3423ZM200.573 56.9614C200.573 57.3402 200.385 57.5296 199.987 57.5296H197.346C196.969 57.5296 196.781 57.3402 196.781 56.9403V54.2884C196.781 53.9095 196.969 53.7201 197.367 53.7201H199.819C200.322 53.699 200.573 53.8885 200.573 54.3305V56.9614Z" fill="white"/>
<path d="M87.8964 65.0645H85.5494C85.4656 65.0645 85.4236 65.0855 85.4236 65.1276C85.4236 65.1697 85.4656 65.1907 85.5703 65.1907H85.6751C85.738 65.1907 85.7799 65.2328 85.7799 65.296V67.969C85.7799 68.0321 85.738 68.0742 85.6751 68.0742H85.5703C85.4865 68.0742 85.4236 68.0953 85.4236 68.1373C85.4236 68.1794 85.4656 68.2005 85.5703 68.2005H86.66C86.7438 68.2005 86.8067 68.1794 86.8067 68.1373C86.8067 68.0953 86.7648 68.0742 86.66 68.0742H86.4505C86.3876 68.0742 86.3457 68.0321 86.3457 67.969V66.7061C86.3457 66.643 86.3876 66.6009 86.4505 66.6009C86.7438 66.5588 86.9534 66.7061 87.0791 67.0429C87.1001 67.1271 87.1629 67.1902 87.2049 67.1902C87.2677 67.1902 87.2887 67.1481 87.2887 67.0429V65.9905C87.2887 65.9063 87.2468 65.8432 87.2049 65.8432C87.1629 65.8432 87.121 65.8853 87.1001 65.9905C86.9953 66.3694 86.7648 66.5167 86.4714 66.4536C86.4085 66.4536 86.3666 66.4115 86.3666 66.3483V65.2749C86.3666 65.2118 86.4085 65.1697 86.4714 65.1697H87.2677C87.3515 65.1697 87.4354 65.1697 87.4982 65.2328C87.6449 65.3591 87.7706 65.5906 87.8545 65.8853C87.8964 65.9695 87.9383 66.0116 87.9802 66.0116C88.0431 66.0116 88.064 65.9695 88.064 65.8642V65.1697C88.0431 65.1065 88.0012 65.0645 87.8964 65.0645ZM86.8486 66.3904L86.8277 66.4115C86.8277 66.3904 86.8486 66.3904 86.8486 66.3904ZM86.681 66.4746C86.66 66.4746 86.66 66.4746 86.6391 66.4746C86.66 66.4746 86.66 66.4746 86.681 66.4746Z" fill="white"/>
<path d="M89.6356 68.0737C89.5518 68.0737 89.489 68.0316 89.489 67.9684V66.0321C89.489 65.9479 89.447 65.8848 89.3423 65.8848H88.8184C88.7346 65.8848 88.6926 65.9058 88.6926 65.9479C88.6926 65.99 88.7346 66.0111 88.8393 66.0111C88.9232 66.0111 88.9651 66.0531 88.9651 66.1163V67.9684C88.9651 68.0316 88.9232 68.0737 88.8184 68.0737C88.7136 68.0737 88.6717 68.0947 88.6717 68.1368C88.6717 68.1789 88.7136 68.2 88.8184 68.2H89.6147C89.6985 68.2 89.7614 68.1789 89.7614 68.1368C89.7823 68.0737 89.7404 68.0737 89.6356 68.0737Z" fill="white"/>
<path d="M89.2166 65.5698C89.2585 65.5698 89.2794 65.5487 89.3004 65.5487C89.3214 65.5487 89.3214 65.5487 89.3423 65.5487C89.4052 65.5277 89.4471 65.4856 89.489 65.4014C89.5309 65.2962 89.489 65.212 89.4052 65.1278C89.2166 65.0226 89.0699 65.0647 88.9232 65.212C88.9022 65.2962 88.9022 65.3593 88.9232 65.4225C88.9441 65.4856 89.007 65.5277 89.1118 65.5698C89.1537 65.5698 89.1956 65.5698 89.2166 65.5698Z" fill="white"/>
<path d="M91.9826 65.8428C91.7731 65.8007 91.6054 65.8007 91.4588 65.8639C91.333 65.906 91.2282 65.9901 91.1444 66.1164C91.1444 66.1375 91.1444 66.1375 91.1235 66.1375C91.1025 66.1585 91.1025 66.1585 91.1025 66.1585C91.1025 66.1585 91.1025 66.1375 91.1025 66.1164V66.0954V66.0112C91.1025 65.927 91.0606 65.8639 90.9558 65.8639H90.4529C90.3691 65.8639 90.3062 65.8849 90.3062 65.927C90.3062 65.9691 90.3481 65.9901 90.4529 65.9901C90.5367 65.9901 90.5996 66.0322 90.5996 66.0954V67.9475C90.5996 68.0107 90.5577 68.0528 90.4529 68.0528C90.3481 68.0528 90.3062 68.0738 90.3062 68.1159C90.3062 68.158 90.3481 68.1791 90.4529 68.1791H91.3959C91.4797 68.1791 91.5426 68.158 91.5426 68.1159C91.5426 68.0738 91.5007 68.0528 91.3959 68.0528H91.2282C91.1654 68.0528 91.1235 68.0107 91.1235 67.9475V66.6637C91.1444 66.4953 91.1863 66.3479 91.2282 66.2427C91.3121 66.0743 91.4378 65.9691 91.5635 65.9691H91.5845C91.6474 65.9691 91.7102 66.0112 91.7521 66.0954C91.836 66.2217 91.8988 66.39 91.9407 66.5795C91.9617 66.6637 92.0036 66.7268 92.0665 66.7268C92.1293 66.7268 92.1503 66.6847 92.1503 66.5795V66.0112C92.1293 65.9481 92.0874 65.8849 91.9826 65.8428Z" fill="white"/>
<path d="M95.126 67.3165C95.126 67.3165 95.126 67.2954 95.126 67.3165C95.105 67.2954 95.084 67.2744 95.084 67.2744C95.0421 67.2744 95.0212 67.3165 95.0002 67.4217C94.9374 67.7795 94.7278 67.99 94.3716 68.0742C94.0782 68.1373 93.8267 68.0531 93.6381 67.7795C93.5124 67.548 93.4495 67.2533 93.4705 66.9376C93.4705 66.8745 93.5124 66.8324 93.5753 66.8324H95.0002C95.084 66.8324 95.1469 66.7692 95.1469 66.6851C95.126 66.3904 95.0002 66.1589 94.7488 65.9694C94.3925 65.78 94.0363 65.759 93.6591 65.8853C93.219 66.0957 92.9676 66.4114 92.9256 66.8324C92.8628 67.4007 93.0723 67.8427 93.5753 68.1163C93.7639 68.1794 93.9525 68.2215 94.1411 68.2215C94.162 68.2215 94.162 68.2215 94.183 68.2215C94.2039 68.2215 94.2249 68.2215 94.2668 68.2215C94.4344 68.2005 94.6021 68.1584 94.7488 68.0742C94.9793 67.9058 95.126 67.6743 95.1679 67.4217C95.1679 67.4007 95.1679 67.3796 95.1469 67.3586C95.1469 67.3375 95.1469 67.3165 95.126 67.3165ZM95.126 67.3165C95.126 67.3165 95.105 67.3165 95.105 67.2954C95.105 67.2954 95.105 67.2954 95.126 67.3165C95.126 67.2954 95.126 67.3165 95.126 67.3165ZM94.0782 65.9274C94.162 65.9274 94.2458 65.9484 94.3296 65.9905C94.5392 66.1378 94.623 66.3693 94.5602 66.643C94.5602 66.7061 94.5182 66.7482 94.4554 66.7482H93.5753C93.5124 66.7482 93.4705 66.7061 93.4705 66.643C93.4914 66.5377 93.5124 66.4325 93.5543 66.3273C93.6172 66.201 93.701 66.1168 93.7639 66.0536C93.7848 66.0536 93.7848 66.0326 93.8058 66.0326C93.9105 65.9694 93.9944 65.9274 94.0782 65.9274Z" fill="white"/>
<path d="M97.913 68.0739C97.8292 68.0739 97.7873 68.0318 97.7873 67.9686V66.5795C97.7663 66.4111 97.7454 66.2848 97.7244 66.1586C97.6616 65.9902 97.5568 65.906 97.4311 65.885C97.012 65.7587 96.6767 65.8429 96.3833 66.1375C96.3833 66.1586 96.3623 66.1586 96.3623 66.1586C96.3623 66.1796 96.3414 66.1796 96.3414 66.1796C96.3414 66.1796 96.3414 66.1586 96.3414 66.1375V66.1165V66.0323C96.3414 65.9481 96.2995 65.885 96.1947 65.885H95.7127C95.6289 65.885 95.566 65.906 95.566 65.9481C95.566 65.9902 95.6079 66.0112 95.7127 66.0112C95.7965 66.0112 95.8594 66.0533 95.8594 66.1165V67.9686C95.8594 68.0318 95.8175 68.0739 95.7127 68.0739C95.6079 68.0739 95.566 68.0949 95.566 68.137C95.566 68.1791 95.6079 68.2001 95.7127 68.2001H96.4881C96.5719 68.2001 96.6348 68.1791 96.6348 68.137C96.6348 68.0949 96.5929 68.0739 96.4881 68.0739C96.4043 68.0739 96.3623 68.0318 96.3623 67.9686V66.7058C96.3833 66.5164 96.4252 66.369 96.4881 66.2428C96.53 66.2007 96.5719 66.1586 96.5929 66.1375C96.6348 66.0954 96.6557 66.0533 96.6976 66.0323C96.7395 66.0112 96.7814 66.0112 96.8443 65.9902C96.8862 65.9691 96.9491 65.9481 96.991 65.9691H97.012C97.1586 65.9691 97.2425 66.0323 97.2844 66.1586C97.3053 66.2428 97.3263 66.369 97.3472 66.5164V67.9686C97.3472 68.0318 97.3053 68.0739 97.2006 68.0739C97.0958 68.0739 97.0539 68.0949 97.0539 68.137C97.0539 68.1791 97.0958 68.2001 97.2006 68.2001H97.9759C98.0597 68.2001 98.1226 68.1791 98.1226 68.137C98.0597 68.0739 97.9969 68.0739 97.913 68.0739ZM96.6557 66.0112C96.6767 66.0112 96.6976 66.0112 96.6976 65.9902C96.6976 66.0112 96.6767 66.0112 96.6557 66.0112Z" fill="white"/>
<path d="M100.511 65.8848H98.9189C98.835 65.8848 98.7931 65.9269 98.7931 66.0321V66.5372C98.7931 66.5583 98.7931 66.5583 98.8141 66.5793C98.8141 66.6004 98.8141 66.6214 98.835 66.6425V66.6635C98.835 66.6635 98.856 66.6846 98.877 66.6846C98.9189 66.6846 98.9608 66.6214 99.0027 66.5162C99.0446 66.432 99.0865 66.3268 99.1284 66.2426C99.2122 66.0531 99.338 65.99 99.4428 66.0111H99.9457C99.9666 66.0111 99.9666 66.0111 99.9666 66.0111C99.9666 66.0111 99.9876 66.011 99.9876 66.0321C99.9876 66.0531 99.9876 66.0742 99.9666 66.1163C99.5475 66.7477 99.1284 67.4002 98.7093 68.0316C98.6884 68.0737 98.6884 68.0947 98.6884 68.1158C98.6884 68.1158 98.6884 68.1158 98.6884 68.1368C98.7093 68.1579 98.7303 68.1579 98.7722 68.1579H100.47C100.553 68.1579 100.616 68.1158 100.616 68.0105V67.3791C100.616 67.2949 100.595 67.2318 100.532 67.2318C100.491 67.2318 100.449 67.2949 100.407 67.4002C100.344 67.5475 100.302 67.6738 100.26 67.758C100.239 67.8211 100.197 67.8422 100.155 67.8842C100.134 67.9053 100.113 67.9474 100.092 67.9684C100.05 67.9895 100.03 67.9895 99.9876 68.0105C99.9457 68.0316 99.9038 68.0316 99.8619 68.0316C99.8619 68.0316 99.8619 68.0316 99.8409 68.0316H99.338H99.317C99.317 68.0316 99.2961 68.0316 99.2961 68.0105C99.2961 67.9895 99.2961 67.9684 99.338 67.9053C99.7361 67.2739 100.155 66.6214 100.574 65.99C100.595 65.9479 100.616 65.9058 100.595 65.8848C100.574 65.9058 100.553 65.8848 100.511 65.8848ZM99.9666 66.0742C99.9666 66.0531 99.9876 66.0531 99.9876 66.0321C99.9876 66.0531 99.9666 66.0531 99.9666 66.0742ZM98.6884 68.1368C98.6884 68.1579 98.6884 68.1579 98.6884 68.1368C98.6884 68.1579 98.6884 68.1579 98.6884 68.1368ZM100.071 68.0105C100.05 68.0105 100.05 68.0105 100.03 68.0316C100.05 68.0105 100.05 68.0316 100.071 68.0105ZM99.2961 67.9895C99.2961 68.0105 99.2751 68.0316 99.2751 68.0316C99.2961 68.0316 99.2961 68.0105 99.2961 67.9895Z" fill="white"/>
<path d="M103.676 67.3165C103.676 67.3165 103.676 67.2954 103.676 67.3165C103.655 67.2954 103.634 67.2744 103.634 67.2744C103.592 67.2744 103.55 67.3165 103.55 67.4217C103.487 67.7795 103.278 67.99 102.921 68.0742C102.628 68.1373 102.377 68.0531 102.188 67.7795C102.062 67.548 101.999 67.2533 102.02 66.9376C102.02 66.8745 102.062 66.8324 102.125 66.8324H103.55C103.634 66.8324 103.697 66.7692 103.697 66.6851C103.676 66.3904 103.55 66.1589 103.299 65.9694C102.942 65.78 102.586 65.759 102.209 65.8853C101.769 66.0957 101.517 66.4114 101.475 66.8324C101.413 67.4007 101.622 67.8427 102.125 68.1163C102.314 68.1794 102.502 68.2215 102.691 68.2215C102.712 68.2215 102.712 68.2215 102.733 68.2215C102.754 68.2215 102.796 68.2215 102.817 68.2215C102.984 68.2005 103.152 68.1584 103.299 68.0742C103.529 67.9058 103.676 67.6743 103.718 67.4217C103.718 67.4007 103.718 67.3796 103.697 67.3586C103.676 67.3375 103.676 67.3165 103.676 67.3165ZM103.676 67.3165C103.676 67.3165 103.655 67.3165 103.655 67.2954C103.655 67.2954 103.655 67.2954 103.676 67.3165C103.676 67.2954 103.676 67.3165 103.676 67.3165ZM102.628 65.9274C102.712 65.9274 102.796 65.9484 102.879 65.9905C103.089 66.1378 103.173 66.3693 103.11 66.643C103.11 66.7061 103.068 66.7482 103.005 66.7482H102.125C102.062 66.7482 102.02 66.7061 102.02 66.643C102.041 66.5377 102.062 66.4325 102.104 66.3273C102.167 66.201 102.251 66.1168 102.314 66.0536C102.335 66.0536 102.335 66.0326 102.356 66.0326C102.439 65.9694 102.544 65.9274 102.628 65.9274Z" fill="white"/>
<path d="M109.48 67.0637C109.417 67.0637 109.376 67.1058 109.334 67.2111C109.25 67.4426 109.145 67.6531 109.019 67.8425C108.936 67.9898 108.81 68.074 108.684 68.1371C108.516 68.1792 108.391 68.1582 108.286 68.1371C108.013 68.095 107.804 67.9267 107.657 67.632C107.552 67.4005 107.511 67.169 107.49 66.9164C107.469 66.4955 107.511 66.1377 107.615 65.8219C107.72 65.5483 107.909 65.3379 108.181 65.2116C108.391 65.1484 108.579 65.1274 108.747 65.1484C108.977 65.2747 109.166 65.5273 109.271 65.9272C109.313 66.0114 109.355 66.0745 109.417 66.0745C109.48 66.0745 109.501 66.0324 109.501 65.9272V65.3589C109.501 65.2747 109.459 65.1905 109.376 65.1484C108.81 64.938 108.244 64.9801 107.72 65.2326C107.448 65.38 107.238 65.5904 107.091 65.843C106.903 66.2218 106.84 66.6428 106.924 67.0637C107.05 67.5478 107.364 67.9056 107.867 68.1161C108.139 68.2003 108.391 68.2424 108.621 68.2424C108.642 68.2424 108.642 68.2424 108.663 68.2424C108.684 68.2424 108.705 68.2424 108.747 68.2424C108.977 68.2213 109.208 68.1792 109.417 68.095C109.501 68.0529 109.543 67.9688 109.543 67.8846V67.2111C109.585 67.1058 109.543 67.0637 109.48 67.0637Z" fill="white"/>
<path d="M112.435 68.0532C112.351 68.0532 112.309 68.0111 112.309 67.9479V66.0116C112.309 65.9274 112.267 65.8643 112.163 65.8643H111.555C111.471 65.8643 111.408 65.8853 111.408 65.9274C111.408 65.9695 111.45 65.9905 111.555 65.9905H111.702C111.765 65.9905 111.806 66.0326 111.806 66.0958V67.3797C111.786 67.6112 111.723 67.8006 111.597 67.9479C111.492 68.0532 111.366 68.0953 111.22 68.0742C111.031 68.0321 110.926 67.9058 110.905 67.6954V66.0326C110.905 65.9484 110.863 65.8853 110.759 65.8853H110.235C110.151 65.8853 110.109 65.9064 110.109 65.9484C110.109 65.9905 110.151 66.0116 110.256 66.0116C110.34 66.0116 110.381 66.0537 110.381 66.1168V67.4849C110.381 67.6112 110.402 67.7164 110.423 67.8216C110.507 68.1163 110.717 68.2636 111.01 68.2636C111.031 68.2636 111.052 68.2636 111.073 68.2636C111.178 68.2636 111.262 68.2426 111.366 68.2005C111.387 68.2005 111.387 68.2005 111.408 68.2005C111.534 68.1584 111.639 68.0742 111.723 67.969C111.723 67.9479 111.744 67.9479 111.744 67.9269C111.765 67.9058 111.765 67.8848 111.765 67.8848C111.765 67.8848 111.786 67.9058 111.786 67.9269C111.786 67.9269 111.786 67.9269 111.786 67.9479V68.0532C111.786 68.1374 111.827 68.2005 111.932 68.2005H112.414C112.498 68.2005 112.561 68.1795 112.561 68.1374C112.582 68.0742 112.54 68.0532 112.435 68.0532ZM111.094 68.2426C111.073 68.2426 111.073 68.2426 111.052 68.2426C111.115 68.2426 111.178 68.2215 111.241 68.2215C111.199 68.2215 111.157 68.2426 111.094 68.2426ZM111.555 68.0742C111.513 68.0953 111.492 68.1374 111.45 68.1584C111.492 68.1374 111.513 68.1163 111.555 68.0742Z" fill="white"/>
<path d="M114.07 68.0742H114.007C113.944 68.0742 113.902 68.0321 113.902 67.969V65.2118C113.902 65.1276 113.86 65.0645 113.755 65.0645H113.231C113.148 65.0645 113.106 65.0855 113.106 65.1276C113.106 65.1697 113.169 65.1907 113.252 65.1907C113.336 65.1907 113.378 65.2328 113.378 65.296V67.969C113.378 68.0321 113.336 68.0742 113.231 68.0742C113.127 68.0742 113.085 68.0953 113.085 68.1373C113.085 68.1794 113.127 68.2005 113.231 68.2005H114.049C114.132 68.2005 114.195 68.1794 114.195 68.1373C114.195 68.0742 114.153 68.0742 114.07 68.0742Z" fill="white"/>
<path d="M116.123 67.2746C116.081 67.2746 116.06 67.3167 116.06 67.4219C116.06 67.5692 116.039 67.6955 116.019 67.8007C115.977 67.9481 115.914 68.0323 115.809 68.0744C115.725 68.0954 115.641 68.0954 115.537 68.0323C115.474 67.9691 115.432 67.8639 115.432 67.7166V66.117C115.432 66.0538 115.474 66.0117 115.537 66.0117H115.872C115.956 66.0117 116.019 65.9907 116.019 65.9486C116.019 65.9065 115.977 65.8855 115.872 65.8855H115.537C115.474 65.8855 115.432 65.8434 115.432 65.7802V65.5487C115.432 65.4645 115.39 65.4014 115.285 65.4014H115.055C114.971 65.4014 114.908 65.4435 114.908 65.5487V65.7802C114.908 65.8434 114.866 65.8855 114.761 65.8855C114.656 65.8855 114.615 65.9065 114.615 65.9486C114.615 65.9907 114.656 66.0117 114.761 66.0117C114.866 66.0117 114.908 66.0538 114.908 66.117V67.5692C114.908 67.6955 114.929 67.8218 114.971 67.927C114.992 68.0323 115.055 68.1165 115.159 68.1796C115.306 68.2217 115.432 68.2427 115.537 68.2427C115.662 68.2427 115.788 68.2217 115.893 68.1585C116.019 68.0954 116.081 68.0112 116.102 67.906C116.165 67.7587 116.186 67.5903 116.165 67.4008C116.207 67.3167 116.165 67.2746 116.123 67.2746Z" fill="white"/>
<path d="M119.141 68.0532C119.057 68.0532 119.015 68.0111 119.015 67.9479V66.0116C119.015 65.9274 118.973 65.8643 118.868 65.8643H118.261C118.177 65.8643 118.114 65.8853 118.114 65.9274C118.114 65.9695 118.156 65.9905 118.261 65.9905H118.407C118.47 65.9905 118.512 66.0326 118.512 66.0958V67.3797C118.491 67.6112 118.428 67.8006 118.303 67.9479C118.261 67.969 118.24 67.99 118.198 68.0111C118.177 68.0111 118.177 68.0321 118.156 68.0321C118.114 68.0532 118.093 68.0532 118.051 68.0532C118.03 68.0532 117.988 68.0532 117.967 68.0532H117.946C117.758 68.0111 117.653 67.8848 117.632 67.6743V66.0116C117.632 65.9274 117.59 65.8643 117.485 65.8643H116.961C116.878 65.8643 116.836 65.8853 116.836 65.9274C116.836 65.9695 116.878 65.9905 116.982 65.9905C117.066 65.9905 117.108 66.0326 117.108 66.0958V67.4638C117.108 67.5901 117.129 67.6954 117.15 67.8006C117.234 68.0953 117.443 68.2426 117.737 68.2426C117.758 68.2426 117.779 68.2426 117.8 68.2426C117.904 68.2426 117.988 68.2215 118.093 68.1794C118.114 68.1794 118.135 68.1794 118.135 68.1794C118.261 68.1374 118.345 68.0532 118.449 67.9479C118.449 67.9269 118.47 67.9269 118.47 67.9058C118.491 67.8848 118.491 67.8637 118.512 67.8637C118.512 67.8637 118.533 67.8848 118.533 67.9058C118.533 67.9058 118.533 67.9058 118.533 67.9269V68.0321C118.533 68.1163 118.575 68.1794 118.68 68.1794H119.162C119.246 68.1794 119.308 68.1584 119.308 68.1163C119.288 68.0742 119.246 68.0532 119.141 68.0532ZM117.8 68.2426C117.779 68.2426 117.779 68.2426 117.758 68.2426C117.821 68.2426 117.884 68.2215 117.946 68.2215C117.904 68.2215 117.863 68.2426 117.8 68.2426ZM118.261 68.0742C118.219 68.0953 118.198 68.1374 118.156 68.1584C118.198 68.1374 118.219 68.1163 118.261 68.0742Z" fill="white"/>
<path d="M121.509 65.8428C121.299 65.8007 121.132 65.8007 120.985 65.8639C120.859 65.906 120.754 65.9901 120.671 66.1164C120.671 66.1164 120.671 66.1375 120.65 66.1375C120.629 66.1585 120.629 66.1585 120.608 66.1585C120.608 66.1585 120.608 66.1375 120.608 66.1164V66.0954V66.0112C120.608 65.927 120.566 65.8639 120.461 65.8639H119.958C119.874 65.8639 119.811 65.8849 119.811 65.927C119.811 65.9691 119.853 65.9901 119.958 65.9901C120.042 65.9901 120.105 66.0322 120.105 66.0954V67.9475C120.105 68.0107 120.063 68.0528 119.958 68.0528C119.853 68.0528 119.811 68.0738 119.811 68.1159C119.811 68.158 119.853 68.1791 119.958 68.1791H120.901C120.985 68.1791 121.048 68.158 121.048 68.1159C121.048 68.0738 121.006 68.0528 120.901 68.0528H120.733C120.671 68.0528 120.629 68.0107 120.629 67.9475V66.6637C120.65 66.4953 120.692 66.3479 120.733 66.2427C120.817 66.0743 120.943 65.9691 121.069 65.9691H121.09C121.153 65.9691 121.194 66.0112 121.257 66.0954C121.341 66.2217 121.404 66.39 121.446 66.5795C121.467 66.6637 121.509 66.7268 121.572 66.7268C121.635 66.7268 121.656 66.6847 121.656 66.5795V66.0112C121.656 65.9481 121.614 65.8849 121.509 65.8428Z" fill="white"/>
<path d="M123.102 67.9899C123.081 67.9689 123.06 67.9478 123.039 67.9268C123.06 67.9478 123.081 67.9899 123.102 67.9899Z" fill="white"/>
<path d="M123.27 68.0738C123.249 68.0738 123.228 68.0527 123.185 68.0527C123.206 68.0738 123.249 68.0738 123.27 68.0738Z" fill="white"/>
<path d="M124.631 68.0742H124.568C124.505 68.0742 124.463 68.0321 124.463 67.9689V66.5588L124.443 66.3062C124.422 66.1799 124.317 66.0536 124.17 65.9694C123.814 65.78 123.353 65.759 122.808 65.9484C122.724 65.9905 122.661 66.0536 122.661 66.1589V66.6009C122.661 66.685 122.682 66.7482 122.745 66.7482C122.787 66.7482 122.85 66.7061 122.871 66.6009C122.934 66.4325 122.997 66.3062 123.08 66.201C123.206 66.0115 123.353 65.9063 123.52 65.9484C123.688 65.9484 123.814 66.0115 123.877 66.1589C123.919 66.2851 123.94 66.4535 123.94 66.6219C123.94 66.685 123.898 66.7482 123.814 66.7903C123.667 66.8534 123.5 66.9166 123.29 66.9587C123.039 66.9797 122.787 67.0639 122.578 67.2112C122.452 67.3165 122.389 67.4427 122.389 67.569C122.347 67.8426 122.494 68.0531 122.808 68.2004C122.955 68.2425 123.08 68.2636 123.206 68.2636H123.227C123.269 68.2636 123.311 68.2425 123.374 68.2425C123.458 68.2215 123.52 68.2215 123.604 68.2004C123.709 68.1583 123.814 68.0742 123.919 67.9268C123.919 67.9268 123.919 67.9058 123.94 67.9058C123.961 67.8847 123.961 67.8847 123.982 67.8847C123.982 67.8847 123.982 67.9058 123.982 67.9268V67.9479V68.0742C123.982 68.1583 124.023 68.2215 124.128 68.2215H124.652C124.736 68.2215 124.799 68.2004 124.799 68.1583C124.757 68.0742 124.715 68.0742 124.631 68.0742ZM123.101 68.011C123.059 67.99 123.039 67.9479 122.997 67.9058C123.018 67.9268 123.018 67.9268 123.039 67.9479C123.018 67.9268 122.997 67.9058 122.976 67.8637C122.871 67.5901 122.934 67.3586 123.143 67.1691C123.227 67.127 123.332 67.0849 123.5 67.0428C123.604 67.0218 123.709 66.9797 123.814 66.9376C123.835 66.9166 123.856 66.9166 123.877 66.9166C123.877 66.9166 123.877 66.9166 123.856 66.9166C123.877 66.9166 123.877 66.9166 123.898 66.9166H123.877C123.898 66.9166 123.919 66.9166 123.919 66.9166C123.919 66.9166 123.919 66.9166 123.898 66.9166H123.919C123.94 66.9166 123.94 66.9376 123.94 66.9376C123.94 66.9376 123.94 66.9376 123.94 66.9587C123.961 67.2954 123.919 67.5901 123.814 67.8216C123.73 67.9689 123.625 68.0531 123.5 68.0952C123.416 68.1163 123.332 68.1163 123.248 68.0952C123.269 68.0952 123.29 68.1163 123.311 68.1163C123.248 68.1163 123.206 68.0952 123.164 68.0742H123.185C123.164 68.0321 123.122 68.011 123.101 68.011C123.101 67.99 123.101 68.011 123.101 68.011ZM123.29 65.9694C123.311 65.9694 123.311 65.9694 123.332 65.9484C123.311 65.9694 123.311 65.9694 123.29 65.9694Z" fill="white"/>
<path d="M126.182 68.0742H126.119C126.056 68.0742 126.014 68.0321 126.014 67.969V65.2118C126.014 65.1276 125.972 65.0645 125.867 65.0645H125.344C125.26 65.0645 125.218 65.0855 125.218 65.1276C125.218 65.1697 125.281 65.1907 125.365 65.1907C125.448 65.1907 125.49 65.2328 125.49 65.296V67.969C125.49 68.0321 125.448 68.0742 125.344 68.0742C125.239 68.0742 125.197 68.0953 125.197 68.1373C125.197 68.1794 125.239 68.2005 125.344 68.2005H126.161C126.245 68.2005 126.308 68.1794 126.308 68.1373C126.308 68.0742 126.266 68.0742 126.182 68.0742Z" fill="white"/>
<path d="M132.091 67.0219C132.028 67.0219 131.986 67.064 131.966 67.1693C131.966 67.1903 131.945 67.2114 131.945 67.2535C131.903 67.485 131.84 67.6955 131.756 67.8849C131.756 67.9059 131.735 67.927 131.735 67.948C131.651 68.0322 131.588 68.0743 131.504 68.0743H131.484H130.478C130.415 68.0743 130.373 68.0322 130.373 67.9691V66.7273C130.373 66.6641 130.415 66.6221 130.478 66.6221H130.771C130.918 66.6221 131.002 66.6852 131.043 66.7694C131.106 66.8746 131.127 66.9799 131.148 67.0851C131.169 67.1693 131.211 67.2324 131.274 67.2324C131.316 67.2324 131.358 67.1903 131.358 67.0851V66.0117C131.358 65.9275 131.337 65.8643 131.274 65.8643C131.232 65.8643 131.19 65.9064 131.169 66.0117L131.106 66.2853C131.043 66.4116 130.918 66.4747 130.771 66.4747H130.499C130.436 66.4747 130.394 66.4326 130.394 66.3695V65.254C130.394 65.1908 130.436 65.1487 130.499 65.1487H131.484C131.588 65.1487 131.672 65.2329 131.735 65.4013C131.819 65.6118 131.882 65.7591 131.903 65.8854C131.924 65.9696 131.966 66.0327 132.028 66.0327C132.091 66.0327 132.112 65.9906 132.112 65.8854V65.1698C132.112 65.0856 132.07 65.0225 131.966 65.0225H129.598C129.514 65.0225 129.472 65.0435 129.472 65.0856C129.472 65.1277 129.514 65.1487 129.618 65.1487H129.702C129.765 65.1487 129.807 65.1908 129.807 65.254V67.927C129.807 67.9901 129.765 68.0322 129.702 68.0322H129.618C129.535 68.0322 129.472 68.0533 129.472 68.0954C129.472 68.1374 129.514 68.1585 129.618 68.1585H132.07C132.154 68.1585 132.217 68.1164 132.217 68.0112V67.1272C132.175 67.064 132.154 67.0219 132.091 67.0219Z" fill="white"/>
<path d="M135.214 68.0737C135.13 68.0737 135.067 68.0316 135.025 67.9684L134.375 67.0003C134.313 66.9161 134.313 66.8108 134.396 66.7267L134.857 66.1373C134.941 66.0531 135.004 66.0111 135.067 66.0111C135.151 66.0111 135.172 65.99 135.172 65.9479C135.172 65.9058 135.13 65.8848 135.025 65.8848H134.564C134.48 65.8848 134.417 65.9058 134.417 65.9479C134.417 65.99 134.459 66.0111 134.564 66.0111H134.669C134.69 66.0111 134.711 66.011 134.711 66.0321C134.711 66.0531 134.711 66.0742 134.69 66.1163C134.543 66.2847 134.417 66.4741 134.292 66.6425C134.25 66.6846 134.229 66.7056 134.187 66.7056C134.166 66.7056 134.124 66.6846 134.103 66.6425L133.768 66.1584C133.726 66.1163 133.726 66.0742 133.726 66.0531L133.747 66.0321C133.747 66.0321 133.747 66.0321 133.768 66.0321H133.852C133.935 66.0321 133.998 66.011 133.998 65.969C133.998 65.9269 133.956 65.9058 133.852 65.9058H133.034C132.95 65.9058 132.909 65.9269 132.909 65.969C132.909 66.011 132.95 66.0321 133.034 66.0321C133.118 66.0321 133.181 66.0742 133.223 66.1373L133.768 66.9371C133.831 67.0213 133.81 67.1055 133.747 67.2107L133.16 67.9684C133.097 68.0526 133.013 68.0947 132.95 68.0947C132.867 68.0947 132.846 68.1158 132.846 68.1579C132.846 68.2 132.888 68.221 132.992 68.221H133.516C133.6 68.221 133.663 68.2 133.663 68.1579C133.663 68.1158 133.621 68.0947 133.516 68.0947H133.328H133.307C133.307 68.0947 133.286 68.0947 133.286 68.0737C133.286 68.0526 133.286 68.0316 133.328 67.9895L133.872 67.2739C133.914 67.2318 133.935 67.2107 133.956 67.2107C133.956 67.2107 133.956 67.2107 133.977 67.2107C133.998 67.2107 134.019 67.2318 134.04 67.2528L134.501 67.9684C134.543 68.0105 134.543 68.0526 134.543 68.0737L134.522 68.0947C134.522 68.0947 134.522 68.0947 134.501 68.0947H134.375C134.292 68.0947 134.229 68.1158 134.229 68.1579C134.229 68.2 134.271 68.221 134.375 68.221H135.256C135.339 68.221 135.402 68.2 135.402 68.1579C135.339 68.0737 135.297 68.0737 135.214 68.0737ZM133.789 66.0952C133.789 66.0742 133.768 66.0531 133.768 66.0321C133.768 66.0531 133.789 66.0742 133.789 66.0952ZM133.265 67.9895C133.265 68.0105 133.244 68.0316 133.244 68.0316C133.244 68.0316 133.265 68.0105 133.265 67.9895ZM134.48 67.9895C134.48 68.0105 134.501 68.0316 134.501 68.0526C134.501 68.0316 134.48 67.9895 134.48 67.9895Z" fill="white"/>
<path d="M138.126 67.3581C138.105 67.3371 138.105 67.316 138.105 67.316C138.064 67.316 138.043 67.3792 138.043 67.4844C137.938 67.8422 137.749 68.0316 137.435 68.0737C137.414 68.0737 137.414 68.0737 137.393 68.0737C137.372 68.0737 137.351 68.0737 137.309 68.0737C137.267 68.0737 137.204 68.0737 137.162 68.0527C137.142 68.0527 137.142 68.0316 137.121 68.0316C137.079 68.0106 137.037 67.9895 136.995 67.9685C136.995 67.9685 136.995 67.9685 136.974 67.9474C136.89 67.8632 136.827 67.758 136.764 67.6107C136.66 67.1266 136.68 66.7056 136.785 66.3478C136.932 65.99 137.162 65.8427 137.477 65.9269C137.603 66.0111 137.707 66.1374 137.77 66.3057C137.812 66.411 137.854 66.5162 137.875 66.6215C137.896 66.7056 137.938 66.7688 138.001 66.7688C138.043 66.7688 138.064 66.7267 138.064 66.6215V66.0953C138.064 66.0111 138.022 65.9269 137.917 65.8848C137.393 65.7164 136.932 65.7796 136.534 66.0953C136.282 66.3268 136.157 66.5794 136.136 66.853C136.094 67.1476 136.136 67.4212 136.282 67.6738C136.45 67.9474 136.68 68.1158 136.932 68.1789C137.037 68.2 137.121 68.221 137.204 68.221C137.246 68.221 137.288 68.2 137.33 68.2C137.351 68.2 137.372 68.2 137.393 68.2C137.519 68.1789 137.644 68.1369 137.749 68.0737C137.98 67.9053 138.105 67.6949 138.126 67.4423C138.126 67.4212 138.126 67.4212 138.126 67.4002C138.147 67.4002 138.126 67.3792 138.126 67.3581ZM138.126 67.3581C138.126 67.3581 138.105 67.3581 138.126 67.3581C138.105 67.3581 138.105 67.3581 138.126 67.3581ZM137.225 68.0948C137.204 68.0948 137.204 68.0948 137.183 68.0948C137.204 68.0948 137.225 68.0948 137.225 68.0948ZM137.037 68.0106C137.037 68.0106 137.016 68.0106 137.037 68.0106C137.016 68.0106 137.037 68.0106 137.037 68.0106ZM136.932 66.1584C136.932 66.1374 136.932 66.1374 136.932 66.1584C136.932 66.1374 136.932 66.1374 136.932 66.1584ZM137.246 65.9479C137.267 65.9479 137.267 65.9479 137.288 65.9479C137.267 65.9269 137.267 65.9479 137.246 65.9479ZM137.079 66.0111C137.079 66.0111 137.1 65.99 137.121 65.99C137.1 65.99 137.079 66.0111 137.079 66.0111Z" fill="white"/>
<path d="M140.285 65.8223C140.243 65.8223 140.222 65.8433 140.18 65.8433C140.243 65.8433 140.285 65.8223 140.327 65.8223C140.327 65.8223 140.306 65.8223 140.285 65.8223Z" fill="white"/>
<path d="M139.866 65.9483C139.887 65.9273 139.908 65.9273 139.929 65.9062C139.887 65.9273 139.887 65.9273 139.866 65.9483Z" fill="white"/>
<path d="M141.144 68.0738C141.06 68.0738 141.018 68.0317 141.018 67.9685V66.5794C141.018 66.4531 140.997 66.3479 140.976 66.2637C140.955 66.1164 140.872 65.9901 140.746 65.927C140.62 65.8638 140.515 65.8428 140.39 65.8428C140.369 65.8428 140.348 65.8428 140.348 65.8428H140.369C140.285 65.8428 140.222 65.8638 140.138 65.8638C140.159 65.8638 140.18 65.8638 140.18 65.8428C140.096 65.8638 139.991 65.8638 139.908 65.9059C139.845 65.927 139.782 65.9901 139.719 66.0532C139.761 66.0111 139.803 65.9901 139.845 65.948C139.761 65.9901 139.656 66.0532 139.593 66.1374C139.593 66.1585 139.572 66.1585 139.572 66.1585C139.551 66.1795 139.551 66.1795 139.53 66.1795C139.53 66.1795 139.53 66.1585 139.53 66.1374V66.1164V65.1903C139.53 65.1061 139.488 65.043 139.384 65.043H138.902C138.818 65.043 138.776 65.064 138.776 65.1061C138.776 65.1482 138.818 65.1693 138.923 65.1693C139.007 65.1693 139.069 65.2113 139.069 65.2745V67.9475C139.069 68.0106 139.027 68.0527 138.923 68.0527C138.818 68.0527 138.776 68.0738 138.776 68.1159C138.776 68.158 138.818 68.179 138.923 68.179H139.698C139.782 68.179 139.845 68.158 139.845 68.1159C139.845 68.0738 139.803 68.0527 139.698 68.0527C139.614 68.0527 139.572 68.0106 139.572 67.9475V66.6847C139.593 66.4952 139.635 66.3479 139.698 66.2216C139.74 66.1795 139.761 66.1374 139.803 66.1164C139.845 66.0743 139.866 66.0322 139.908 66.0111C139.949 65.9901 139.991 65.9901 140.054 65.969C140.096 65.948 140.159 65.927 140.201 65.948H140.222C140.369 65.948 140.452 66.0111 140.494 66.1374C140.515 66.2216 140.536 66.3479 140.557 66.4952V67.9475C140.557 68.0106 140.515 68.0527 140.411 68.0527C140.306 68.0527 140.264 68.0738 140.264 68.1159C140.264 68.158 140.306 68.179 140.411 68.179H141.186C141.27 68.179 141.333 68.158 141.333 68.1159C141.291 68.0738 141.249 68.0738 141.144 68.0738ZM139.908 66.0111C139.929 66.0111 139.95 66.0111 139.95 65.9901C139.95 66.0111 139.929 66.0111 139.908 66.0111Z" fill="white"/>
<path d="M142.737 68.0738C142.716 68.0738 142.674 68.0527 142.653 68.0527C142.674 68.0738 142.695 68.0738 142.737 68.0738Z" fill="white"/>
<path d="M142.549 67.9899C142.527 67.9689 142.506 67.9478 142.485 67.9268C142.527 67.9478 142.527 67.9899 142.549 67.9899Z" fill="white"/>
<path d="M144.078 68.0736H144.015C143.952 68.0736 143.91 68.0315 143.91 67.9684V66.5582L143.889 66.3267C143.868 66.2004 143.763 66.0741 143.617 65.9899C143.26 65.8005 142.799 65.7795 142.255 65.9689C142.171 66.011 142.108 66.0741 142.108 66.1794V66.6214C142.108 66.7056 142.129 66.7687 142.192 66.7687C142.234 66.7687 142.297 66.7266 142.317 66.6214C142.38 66.453 142.443 66.3267 142.527 66.2215C142.569 66.1583 142.611 66.1373 142.632 66.0952C142.653 66.0741 142.674 66.032 142.716 66.011C142.758 65.9899 142.799 65.9899 142.82 65.9689C142.862 65.9478 142.904 65.9479 142.946 65.9479C142.946 65.9479 142.946 65.9479 142.967 65.9479C143.135 65.9479 143.26 66.011 143.323 66.1583C143.365 66.2846 143.386 66.453 143.386 66.6214C143.386 66.6845 143.344 66.7476 143.26 66.7897C143.114 66.8529 142.946 66.916 142.737 66.9581C142.485 66.9792 142.234 67.0634 142.024 67.2107C141.898 67.3159 141.836 67.4422 141.836 67.5685C141.794 67.8421 141.94 68.0526 142.255 68.1999C142.401 68.242 142.527 68.2631 142.653 68.2631H142.674C142.716 68.2631 142.758 68.242 142.82 68.242C142.904 68.221 142.967 68.221 143.03 68.1999C143.135 68.1578 143.24 68.0736 143.344 67.9263C143.344 67.9263 143.344 67.9052 143.365 67.9052C143.386 67.8842 143.386 67.8632 143.407 67.8842C143.407 67.8842 143.407 67.9052 143.407 67.9263V67.9473V68.0736C143.407 68.1578 143.449 68.221 143.554 68.221H144.078C144.162 68.221 144.224 68.1999 144.224 68.1578C144.224 68.0736 144.183 68.0736 144.078 68.0736ZM142.569 68.0105C142.527 67.9894 142.506 67.9473 142.464 67.9052C142.485 67.9263 142.485 67.9263 142.506 67.9473C142.485 67.9263 142.464 67.9052 142.443 67.8632C142.338 67.5895 142.401 67.358 142.611 67.1686C142.695 67.1265 142.799 67.0844 142.967 67.0423C143.072 67.0213 143.177 66.9792 143.281 66.9371C143.302 66.916 143.323 66.916 143.344 66.916C143.344 66.916 143.344 66.916 143.323 66.916C143.344 66.916 143.344 66.916 143.365 66.916H143.344C143.365 66.916 143.386 66.916 143.386 66.916C143.386 66.916 143.386 66.916 143.365 66.916H143.386C143.407 66.916 143.407 66.9371 143.407 66.9371C143.407 66.9371 143.407 66.9371 143.407 66.9581C143.428 67.2949 143.386 67.5895 143.281 67.8211C143.198 67.9684 143.093 68.0526 142.967 68.0947C142.883 68.1157 142.799 68.1157 142.716 68.0947C142.737 68.0947 142.758 68.1157 142.779 68.1157C142.716 68.1157 142.674 68.0947 142.632 68.0736H142.653C142.611 68.0315 142.59 68.0105 142.569 68.0105C142.569 67.9894 142.569 68.0105 142.569 68.0105ZM142.758 65.9689C142.779 65.9689 142.779 65.9689 142.799 65.9479C142.779 65.9689 142.758 65.9689 142.758 65.9689Z" fill="white"/>
<path d="M147.053 68.0739C146.97 68.0739 146.928 68.0318 146.928 67.9686V66.5795C146.907 66.4111 146.886 66.2848 146.865 66.1586C146.802 65.9902 146.697 65.906 146.571 65.885C146.152 65.7587 145.817 65.8429 145.524 66.1375C145.524 66.1586 145.503 66.1586 145.503 66.1586C145.503 66.1796 145.482 66.1796 145.482 66.1796C145.482 66.1796 145.482 66.1586 145.482 66.1375V66.1165V66.0323C145.482 65.9481 145.44 65.885 145.335 65.885H144.853C144.769 65.885 144.706 65.906 144.706 65.9481C144.706 65.9902 144.748 66.0112 144.853 66.0112C144.937 66.0112 145 66.0533 145 66.1165V67.9686C145 68.0318 144.958 68.0739 144.853 68.0739C144.748 68.0739 144.706 68.0949 144.706 68.137C144.706 68.1791 144.748 68.2001 144.853 68.2001H145.628C145.712 68.2001 145.775 68.1791 145.775 68.137C145.775 68.0949 145.733 68.0739 145.628 68.0739C145.545 68.0739 145.503 68.0318 145.503 67.9686V66.7058C145.524 66.5164 145.566 66.369 145.628 66.2428C145.67 66.2007 145.691 66.1796 145.733 66.1375C145.775 66.0954 145.796 66.0533 145.838 66.0323C145.88 66.0112 145.922 66.0112 145.985 65.9902C146.027 65.9691 146.089 65.9481 146.131 65.9691H146.152C146.299 65.9691 146.383 66.0323 146.425 66.1586C146.446 66.2428 146.467 66.369 146.488 66.5164V67.9686C146.488 68.0318 146.446 68.0739 146.341 68.0739C146.236 68.0739 146.194 68.0949 146.194 68.137C146.194 68.1791 146.236 68.2001 146.341 68.2001H147.116C147.2 68.2001 147.263 68.1791 147.263 68.137C147.2 68.0739 147.137 68.0739 147.053 68.0739ZM145.796 66.0112C145.817 66.0112 145.838 66.0112 145.838 65.9902C145.838 66.0112 145.817 66.0112 145.796 66.0112Z" fill="white"/>
<path d="M149.778 66.0746C149.778 66.0746 149.778 66.0536 149.778 66.0746C149.778 66.0536 149.778 66.0536 149.778 66.0746C149.778 66.0536 149.778 66.0536 149.778 66.0746C149.778 66.0536 149.778 66.0325 149.799 66.0325C149.799 66.0325 149.799 66.0325 149.819 66.0325H149.945C150.029 66.0325 150.092 66.0115 150.092 65.9483C150.092 65.9062 150.05 65.8852 149.945 65.8852H149.463C149.358 65.8431 149.254 65.822 149.17 65.822C148.96 65.801 148.751 65.822 148.583 65.9062C148.101 66.1378 147.954 66.4745 148.143 66.9165C148.164 66.9586 148.185 67.0007 148.164 67.0217C148.164 67.0428 148.122 67.0849 148.08 67.1059C147.85 67.2112 147.724 67.3585 147.703 67.569C147.661 67.8005 147.787 67.9689 148.038 68.0741C148.059 68.0741 148.059 68.0741 148.08 68.0951C148.101 68.0951 148.101 68.1162 148.122 68.1162H148.143C148.143 68.1162 148.143 68.1162 148.122 68.1162C148.122 68.1162 148.122 68.1162 148.122 68.1372C148.122 68.1372 148.122 68.1372 148.101 68.1583C148.101 68.1793 148.08 68.1793 148.059 68.2004C147.913 68.2846 147.85 68.3688 147.829 68.495C147.808 68.7055 147.934 68.8528 148.206 68.9581C148.353 69.0002 148.478 69.0212 148.604 69.0423H148.625C148.688 69.0423 148.772 69.0633 148.835 69.0633C148.877 69.0633 148.897 69.0423 148.918 69.0423C149.002 69.0423 149.065 69.0212 149.149 69.0212C149.212 69.0002 149.296 69.0002 149.358 68.9791C149.442 68.9581 149.505 68.916 149.589 68.8739C149.652 68.8528 149.715 68.8318 149.778 68.8108C149.924 68.7055 150.008 68.6003 150.029 68.474C150.071 68.1793 149.945 67.9899 149.61 67.9057C149.526 67.8847 149.4 67.8636 149.254 67.8636C148.772 67.8636 148.415 67.8215 148.164 67.7373C148.038 67.6742 147.975 67.6111 147.975 67.5269C147.954 67.4006 148.038 67.3164 148.164 67.2322C148.248 67.2112 148.332 67.2112 148.395 67.2533C148.856 67.4637 149.254 67.4427 149.61 67.2322C149.757 67.127 149.861 67.0217 149.882 66.9165C149.966 66.685 149.945 66.4535 149.778 66.2219C149.757 66.2009 149.757 66.2009 149.736 66.1798C149.799 66.0957 149.778 66.0746 149.778 66.0746ZM148.185 68.4319C148.206 68.3477 148.248 68.2635 148.353 68.2004C148.415 68.1583 148.499 68.1372 148.541 68.1372C148.814 68.1372 149.086 68.1583 149.338 68.2004C149.463 68.2214 149.568 68.2425 149.652 68.3056C149.715 68.3477 149.736 68.3898 149.736 68.4319C149.736 68.6003 149.631 68.7266 149.442 68.7897C149.17 68.8949 148.897 68.937 148.625 68.8739C148.332 68.8318 148.185 68.6845 148.185 68.4319ZM149.065 68.8949C149.044 68.8949 149.044 68.8949 149.023 68.8949C149.023 68.8949 149.044 68.8949 149.065 68.8949ZM148.772 67.1691C148.667 67.1059 148.604 66.9586 148.583 66.7692C148.562 66.5587 148.583 66.3903 148.604 66.264C148.646 66.0746 148.772 65.9694 148.939 65.9483C148.96 65.9483 148.96 65.9483 148.981 65.9483C149.002 65.9483 149.023 65.9483 149.044 65.9483C149.086 65.9483 149.128 65.9483 149.17 65.9694C149.191 65.9694 149.191 65.9904 149.212 65.9904C149.254 66.0115 149.296 66.0325 149.317 66.0536C149.317 66.0536 149.317 66.0536 149.317 66.0746C149.379 66.1588 149.421 66.264 149.442 66.4114C149.484 66.685 149.442 66.9165 149.338 67.1059C149.275 67.1691 149.212 67.2112 149.17 67.2322C149.086 67.2533 149.023 67.2533 148.939 67.2533C148.897 67.2533 148.856 67.2322 148.814 67.2112C148.835 67.2112 148.856 67.2112 148.877 67.2322C148.856 67.1901 148.814 67.1901 148.772 67.1691ZM149.296 66.0115C149.296 66.0115 149.317 66.0115 149.296 66.0115C149.317 66.0115 149.296 66.0115 149.296 66.0115ZM149.128 65.9273H149.149C149.149 65.9273 149.149 65.9273 149.128 65.9273Z" fill="white"/>
<path d="M148.961 67.232C148.94 67.232 148.919 67.2109 148.897 67.2109C148.919 67.2109 148.94 67.232 148.961 67.232Z" fill="white"/>
<path d="M153.13 67.3165C153.13 67.3165 153.13 67.2954 153.13 67.3165C153.11 67.2954 153.089 67.2744 153.089 67.2744C153.047 67.2744 153.026 67.3165 153.005 67.4217C152.942 67.7795 152.732 67.99 152.376 68.0742C152.083 68.1373 151.831 68.0531 151.643 67.7795C151.517 67.548 151.454 67.2533 151.475 66.9376C151.475 66.8745 151.517 66.8324 151.58 66.8324H153.005C153.089 66.8324 153.151 66.7692 153.151 66.6851C153.13 66.3904 153.005 66.1589 152.753 65.9694C152.397 65.78 152.041 65.759 151.664 65.8853C151.224 66.0957 150.972 66.4114 150.93 66.8324C150.867 67.4007 151.077 67.8427 151.58 68.1163C151.768 68.1794 151.957 68.2215 152.146 68.2215C152.167 68.2215 152.167 68.2215 152.187 68.2215C152.208 68.2215 152.229 68.2215 152.271 68.2215C152.439 68.2005 152.607 68.1584 152.753 68.0742C152.984 67.9058 153.13 67.6743 153.172 67.4217C153.172 67.4007 153.172 67.3796 153.151 67.3586C153.13 67.3375 153.13 67.3165 153.13 67.3165ZM153.11 67.3165C153.11 67.3165 153.089 67.3165 153.089 67.2954C153.11 67.2954 153.11 67.2954 153.11 67.3165C153.11 67.2954 153.11 67.3165 153.11 67.3165ZM152.083 65.9274C152.167 65.9274 152.25 65.9484 152.334 65.9905C152.544 66.1378 152.628 66.3693 152.565 66.643C152.565 66.7061 152.523 66.7482 152.46 66.7482H151.58C151.517 66.7482 151.475 66.7061 151.475 66.643C151.496 66.5377 151.517 66.4325 151.559 66.3273C151.622 66.201 151.706 66.1168 151.768 66.0536C151.789 66.0536 151.789 66.0326 151.81 66.0326C151.894 65.9694 151.978 65.9274 152.083 65.9274Z" fill="white"/>
<path d="M157.196 65.1693H157.28C157.364 65.1693 157.426 65.1482 157.426 65.1061C157.426 65.064 157.384 65.043 157.28 65.043H156.337C156.253 65.043 156.211 65.064 156.211 65.1061C156.211 65.1482 156.253 65.1693 156.358 65.1693H156.441C156.504 65.1693 156.546 65.2113 156.546 65.2745V67.9475C156.546 68.0106 156.504 68.0527 156.441 68.0527H156.358C156.274 68.0527 156.211 68.0738 156.211 68.1159C156.211 68.158 156.253 68.179 156.358 68.179H157.301C157.384 68.179 157.447 68.158 157.447 68.1159C157.447 68.0738 157.405 68.0527 157.301 68.0527H157.217C157.154 68.0527 157.112 68.0106 157.112 67.9475V65.2745C157.091 65.2113 157.112 65.1693 157.196 65.1693Z" fill="white"/>
<path d="M160.528 68.0739C160.444 68.0739 160.402 68.0318 160.402 67.9686V66.5795C160.381 66.4111 160.36 66.2848 160.339 66.1586C160.276 65.9902 160.171 65.906 160.046 65.885C159.627 65.7587 159.291 65.8429 158.998 66.1375C158.998 66.1586 158.977 66.1586 158.977 66.1586C158.977 66.1796 158.956 66.1796 158.956 66.1796C158.956 66.1796 158.956 66.1586 158.956 66.1375V66.1165V66.0323C158.956 65.9481 158.914 65.885 158.809 65.885H158.327C158.244 65.885 158.181 65.906 158.181 65.9481C158.181 65.9902 158.223 66.0112 158.327 66.0112C158.411 66.0112 158.474 66.0533 158.474 66.1165V67.9686C158.474 68.0318 158.432 68.0739 158.327 68.0739C158.223 68.0739 158.181 68.0949 158.181 68.137C158.181 68.1791 158.223 68.2001 158.327 68.2001H159.103C159.187 68.2001 159.249 68.1791 159.249 68.137C159.249 68.0949 159.208 68.0739 159.103 68.0739C159.019 68.0739 158.977 68.0318 158.977 67.9686V66.7058C158.998 66.5164 159.04 66.369 159.103 66.2428C159.145 66.2007 159.166 66.1796 159.208 66.1375C159.249 66.0954 159.27 66.0533 159.312 66.0323C159.354 66.0112 159.396 66.0112 159.459 65.9902C159.501 65.9691 159.564 65.9481 159.606 65.9691H159.627C159.773 65.9691 159.857 66.0323 159.899 66.1586C159.92 66.2428 159.941 66.369 159.962 66.5164V67.9686C159.962 68.0318 159.92 68.0739 159.815 68.0739C159.71 68.0739 159.669 68.0949 159.669 68.137C159.669 68.1791 159.71 68.2001 159.815 68.2001H160.591C160.674 68.2001 160.737 68.1791 160.737 68.137C160.674 68.0739 160.633 68.0739 160.528 68.0739ZM159.291 66.0112C159.312 66.0112 159.333 66.0112 159.333 65.9902C159.333 66.0112 159.312 66.0112 159.291 66.0112Z" fill="white"/>
<path d="M162.644 67.2746C162.602 67.2746 162.581 67.3167 162.581 67.4219C162.581 67.5692 162.56 67.6955 162.539 67.8007C162.498 67.9481 162.435 68.0323 162.33 68.0744C162.246 68.0954 162.162 68.0954 162.057 68.0323C161.995 67.9691 161.953 67.8639 161.953 67.7166V66.117C161.953 66.0538 161.995 66.0117 162.057 66.0117H162.393C162.477 66.0117 162.539 65.9907 162.539 65.9486C162.539 65.9065 162.497 65.8855 162.393 65.8855H162.057C161.995 65.8855 161.953 65.8434 161.953 65.7802V65.5487C161.953 65.4645 161.911 65.4014 161.806 65.4014H161.575C161.492 65.4014 161.429 65.4435 161.429 65.5487V65.7802C161.429 65.8434 161.387 65.8855 161.282 65.8855C161.177 65.8855 161.135 65.9065 161.135 65.9486C161.135 65.9907 161.177 66.0117 161.282 66.0117C161.387 66.0117 161.429 66.0538 161.429 66.117V67.5692C161.429 67.6955 161.45 67.8007 161.492 67.927C161.513 68.0323 161.575 68.1165 161.701 68.1796C161.848 68.2217 161.974 68.2427 162.078 68.2427C162.204 68.2427 162.33 68.2217 162.435 68.1585C162.56 68.0954 162.623 68.0112 162.644 67.906C162.707 67.7587 162.728 67.5903 162.707 67.4008C162.707 67.3167 162.686 67.2746 162.644 67.2746Z" fill="white"/>
<path d="M165.683 67.3165C165.683 67.3165 165.683 67.2954 165.683 67.3165C165.662 67.2954 165.641 67.2744 165.641 67.2744C165.599 67.2744 165.578 67.3165 165.557 67.4217C165.494 67.7795 165.285 67.99 164.928 68.0742C164.635 68.1373 164.384 68.0531 164.195 67.7795C164.069 67.548 164.006 67.2533 164.027 66.9376C164.027 66.8745 164.069 66.8324 164.132 66.8324H165.557C165.641 66.8324 165.704 66.7692 165.704 66.6851C165.683 66.3904 165.557 66.1589 165.306 65.9694C164.949 65.78 164.593 65.759 164.216 65.8853C163.776 66.0957 163.524 66.4114 163.482 66.8324C163.42 67.4007 163.629 67.8427 164.132 68.1163C164.321 68.1794 164.509 68.2215 164.698 68.2215C164.719 68.2215 164.719 68.2215 164.74 68.2215C164.761 68.2215 164.782 68.2215 164.824 68.2215C164.991 68.2005 165.159 68.1584 165.306 68.0742C165.536 67.9058 165.683 67.6743 165.725 67.4217C165.725 67.4007 165.725 67.3796 165.704 67.3586C165.683 67.3375 165.683 67.3165 165.683 67.3165ZM165.662 67.3165C165.662 67.3165 165.641 67.3165 165.641 67.2954C165.641 67.2954 165.662 67.2954 165.662 67.3165C165.662 67.2954 165.662 67.3165 165.662 67.3165ZM164.635 65.9274C164.719 65.9274 164.803 65.9484 164.886 65.9905C165.096 66.1378 165.18 66.3693 165.117 66.643C165.117 66.7061 165.075 66.7482 165.012 66.7482H164.132C164.069 66.7482 164.027 66.7061 164.027 66.643C164.048 66.5377 164.069 66.4325 164.111 66.3273C164.174 66.201 164.258 66.1168 164.321 66.0536C164.342 66.0536 164.342 66.0326 164.363 66.0326C164.446 65.9694 164.53 65.9274 164.635 65.9274Z" fill="white"/>
<path d="M167.778 65.8428C167.569 65.8007 167.401 65.8007 167.254 65.8639C167.129 65.906 167.024 65.9901 166.94 66.1164C166.94 66.1375 166.919 66.1375 166.919 66.1375C166.919 66.1585 166.898 66.1585 166.898 66.1585C166.898 66.1585 166.898 66.1375 166.898 66.1164V66.0954V66.0112C166.898 65.927 166.856 65.8639 166.751 65.8639H166.249C166.165 65.8639 166.102 65.8849 166.102 65.927C166.102 65.9691 166.144 65.9901 166.249 65.9901C166.332 65.9901 166.395 66.0322 166.395 66.0954V67.9475C166.395 68.0107 166.353 68.0528 166.249 68.0528C166.144 68.0528 166.102 68.0738 166.102 68.1159C166.102 68.158 166.144 68.1791 166.249 68.1791H167.192C167.275 68.1791 167.338 68.158 167.338 68.1159C167.338 68.0738 167.296 68.0528 167.192 68.0528H167.024C166.961 68.0528 166.919 68.0107 166.919 67.9475V66.6637C166.94 66.4953 166.982 66.3479 167.024 66.2427C167.108 66.0743 167.233 65.9691 167.359 65.9691H167.38C167.443 65.9691 167.485 66.0112 167.548 66.0954C167.632 66.2217 167.694 66.39 167.736 66.5795C167.757 66.6637 167.799 66.7268 167.862 66.7268C167.925 66.7268 167.946 66.6847 167.946 66.5795V66.0112C167.925 65.9481 167.883 65.8849 167.778 65.8428Z" fill="white"/>
<path d="M170.943 68.0739C170.859 68.0739 170.817 68.0318 170.817 67.9686V66.5795C170.796 66.4111 170.775 66.2848 170.754 66.1586C170.691 65.9902 170.586 65.906 170.461 65.885C170.041 65.7587 169.706 65.8429 169.413 66.1375C169.413 66.1586 169.392 66.1586 169.392 66.1586C169.371 66.1796 169.371 66.1796 169.35 66.1796C169.35 66.1796 169.35 66.1586 169.35 66.1375V66.1165V66.0323C169.35 65.9481 169.308 65.885 169.203 65.885H168.721C168.637 65.885 168.575 65.906 168.575 65.9481C168.575 65.9902 168.616 66.0112 168.721 66.0112C168.805 66.0112 168.868 66.0533 168.868 66.1165V67.9686C168.868 68.0318 168.826 68.0739 168.721 68.0739C168.616 68.0739 168.575 68.0949 168.575 68.137C168.575 68.1791 168.616 68.2001 168.721 68.2001H169.497C169.58 68.2001 169.643 68.1791 169.643 68.137C169.643 68.0949 169.601 68.0739 169.497 68.0739C169.413 68.0739 169.371 68.0318 169.371 67.9686V66.7058C169.392 66.5164 169.434 66.369 169.497 66.2428C169.539 66.2007 169.56 66.1796 169.601 66.1375C169.643 66.0954 169.664 66.0533 169.706 66.0323C169.748 66.0112 169.79 66.0112 169.853 65.9902C169.895 65.9691 169.958 65.9481 170 65.9691H170.021C170.167 65.9691 170.251 66.0323 170.293 66.1586C170.314 66.2428 170.335 66.369 170.356 66.5164V67.9686C170.356 68.0318 170.314 68.0739 170.209 68.0739C170.104 68.0739 170.062 68.0949 170.062 68.137C170.062 68.1791 170.104 68.2001 170.209 68.2001H170.984C171.068 68.2001 171.131 68.1791 171.131 68.137C171.089 68.0739 171.047 68.0739 170.943 68.0739ZM169.706 66.0112C169.727 66.0112 169.748 66.0112 169.748 65.9902C169.748 66.0112 169.727 66.0112 169.706 66.0112Z" fill="white"/>
<path d="M172.389 67.9899C172.368 67.9689 172.347 67.9478 172.326 67.9268C172.368 67.9689 172.368 67.9899 172.389 67.9899Z" fill="white"/>
<path d="M173.918 68.0736H173.855C173.792 68.0736 173.751 68.0315 173.751 67.9684V66.5582L173.73 66.3267C173.709 66.2004 173.604 66.0741 173.457 65.9899C173.101 65.8005 172.64 65.7795 172.095 65.9689C172.011 66.011 171.948 66.0741 171.948 66.1794V66.6214C171.948 66.7056 171.969 66.7687 172.032 66.7687C172.074 66.7687 172.137 66.7266 172.158 66.6214C172.221 66.453 172.284 66.3267 172.367 66.2215C172.493 66.032 172.64 65.9268 172.808 65.9689C172.975 65.9689 173.101 66.032 173.164 66.1794C173.206 66.3057 173.227 66.474 173.227 66.6424C173.227 66.7056 173.185 66.7687 173.101 66.8108C172.954 66.8739 172.787 66.9371 172.577 66.9792C172.326 67.0002 172.074 67.0844 171.865 67.2317C171.739 67.337 171.676 67.4633 171.676 67.5895C171.634 67.8631 171.781 68.0736 172.095 68.221C172.242 68.263 172.367 68.2841 172.493 68.2841H172.514C172.556 68.2841 172.598 68.263 172.661 68.263C172.745 68.242 172.808 68.242 172.891 68.221C172.996 68.1789 173.101 68.0947 173.206 67.9473C173.206 67.9473 173.206 67.9263 173.227 67.9263C173.248 67.9052 173.248 67.8842 173.269 67.9052C173.269 67.9052 173.269 67.9263 173.269 67.9473V67.9684V68.0947C173.269 68.1789 173.31 68.242 173.415 68.242H173.939C174.023 68.242 174.086 68.221 174.086 68.1789C174.065 68.0736 174.023 68.0736 173.918 68.0736ZM172.409 68.0105C172.367 67.9894 172.347 67.9473 172.305 67.9052C172.326 67.9263 172.326 67.9263 172.347 67.9473C172.326 67.9263 172.305 67.9052 172.284 67.8631C172.179 67.5895 172.242 67.358 172.451 67.1686C172.535 67.1265 172.64 67.0844 172.808 67.0423C172.912 67.0213 173.017 66.9792 173.122 66.9371C173.143 66.916 173.164 66.916 173.185 66.916C173.185 66.916 173.185 66.916 173.164 66.916C173.185 66.916 173.185 66.916 173.206 66.916H173.185C173.206 66.916 173.227 66.916 173.227 66.916C173.227 66.916 173.227 66.916 173.206 66.916H173.227C173.248 66.916 173.248 66.9371 173.248 66.9371C173.248 66.9371 173.248 66.9371 173.248 66.9581C173.269 67.2949 173.227 67.5895 173.122 67.8211C173.038 67.9684 172.933 68.0526 172.808 68.0947C172.724 68.1157 172.64 68.1157 172.556 68.0947C172.577 68.0947 172.598 68.1157 172.619 68.1157C172.556 68.1157 172.514 68.0947 172.472 68.0736H172.493C172.451 68.0315 172.43 68.0105 172.409 68.0105C172.409 67.9894 172.409 68.0105 172.409 68.0105ZM172.598 65.9689C172.619 65.9689 172.619 65.9689 172.64 65.9479C172.619 65.9689 172.598 65.9689 172.598 65.9689Z" fill="white"/>
<path d="M172.557 68.0738C172.536 68.0738 172.515 68.0527 172.472 68.0527C172.515 68.0738 172.536 68.0738 172.557 68.0738Z" fill="white"/>
<path d="M175.951 67.2746C175.909 67.2746 175.888 67.3167 175.888 67.4219C175.888 67.5692 175.888 67.6955 175.846 67.8007C175.804 67.9481 175.741 68.0323 175.637 68.0744C175.553 68.0954 175.469 68.0954 175.364 68.0323C175.301 67.9691 175.259 67.8639 175.259 67.7166V66.117C175.259 66.0538 175.301 66.0117 175.364 66.0117H175.699C175.783 66.0117 175.846 65.9907 175.846 65.9486C175.846 65.9065 175.804 65.8855 175.699 65.8855H175.364C175.301 65.8855 175.259 65.8434 175.259 65.7802V65.5487C175.259 65.4645 175.217 65.4014 175.113 65.4014H174.882C174.798 65.4014 174.735 65.4435 174.735 65.5487V65.7802C174.735 65.8434 174.694 65.8855 174.589 65.8855C174.484 65.8855 174.442 65.9065 174.442 65.9486C174.442 65.9907 174.484 66.0117 174.589 66.0117C174.694 66.0117 174.735 66.0538 174.735 66.117V67.5692C174.735 67.6955 174.756 67.8218 174.798 67.927C174.819 68.0323 174.882 68.1165 175.008 68.1796C175.155 68.2217 175.28 68.2427 175.385 68.2427C175.385 68.2427 175.385 68.2427 175.406 68.2427C175.532 68.2427 175.637 68.2217 175.741 68.1585C175.867 68.0954 175.93 68.0112 175.951 67.906C176.014 67.7587 176.035 67.5903 176.014 67.4008C176.014 67.3167 175.993 67.2746 175.951 67.2746Z" fill="white"/>
<path d="M177.187 65.5698C177.229 65.5698 177.25 65.5487 177.271 65.5487C177.292 65.5487 177.292 65.5487 177.313 65.5487C177.376 65.5277 177.418 65.4856 177.46 65.4014C177.502 65.2962 177.46 65.212 177.376 65.1278C177.187 65.0226 177.041 65.0647 176.894 65.212C176.873 65.2962 176.873 65.3593 176.894 65.4225C176.915 65.4856 176.978 65.5277 177.083 65.5698C177.103 65.5698 177.145 65.5698 177.187 65.5698Z" fill="white"/>
<path d="M177.585 68.0737C177.502 68.0737 177.439 68.0316 177.439 67.9684V66.0321C177.439 65.9479 177.397 65.8848 177.292 65.8848H176.768C176.684 65.8848 176.642 65.9058 176.642 65.9479C176.642 65.99 176.684 66.0111 176.789 66.0111C176.873 66.0111 176.915 66.0531 176.915 66.1163V67.9684C176.915 68.0316 176.873 68.0737 176.768 68.0737C176.663 68.0737 176.621 68.0947 176.621 68.1368C176.621 68.1789 176.663 68.2 176.768 68.2H177.564C177.648 68.2 177.711 68.1789 177.711 68.1368C177.753 68.0737 177.69 68.0737 177.585 68.0737Z" fill="white"/>
<path d="M180.31 66.0113C180.079 65.8639 179.807 65.8008 179.513 65.8429C179.094 65.906 178.801 66.1586 178.612 66.5795C178.424 67.1688 178.57 67.674 179.052 68.0739C179.157 68.137 179.283 68.1791 179.409 68.2212C179.429 68.2212 179.45 68.2212 179.45 68.2212C179.534 68.2423 179.597 68.2423 179.681 68.2423C179.723 68.2423 179.765 68.2423 179.807 68.2423C180.079 68.2212 180.331 68.0949 180.561 67.8424C180.834 67.4846 180.917 67.0847 180.792 66.6637C180.729 66.4112 180.561 66.2007 180.31 66.0113ZM179.953 68.0528C179.891 68.0949 179.807 68.116 179.723 68.137C179.723 68.137 179.723 68.137 179.744 68.137C179.681 68.137 179.639 68.137 179.555 68.137C179.346 68.0949 179.22 67.9476 179.157 67.7161C179.073 67.3583 179.052 66.9584 179.115 66.4953C179.157 66.1796 179.304 65.9902 179.597 65.9271C179.618 65.9271 179.618 65.9271 179.639 65.9271C179.66 65.9271 179.681 65.9271 179.723 65.9271C179.765 65.9271 179.828 65.9271 179.87 65.9481C179.891 65.9481 179.891 65.9692 179.911 65.9692C179.953 65.9902 179.995 66.0113 180.037 66.0534C180.037 66.0534 180.037 66.0533 180.058 66.0744C180.142 66.1586 180.205 66.2849 180.247 66.4322C180.331 66.9584 180.31 67.4004 180.205 67.7582C180.184 67.7792 180.184 67.8003 180.163 67.8424C180.163 67.8213 180.184 67.8213 180.184 67.8003C180.142 67.8845 180.079 67.9686 180.037 68.0107C180.037 68.0107 180.037 67.9897 180.058 67.9897C179.995 68.0107 179.974 68.0528 179.953 68.0528C179.932 68.0739 179.932 68.0739 179.953 68.0528Z" fill="white"/>
<path d="M180.142 67.8428C180.1 67.9059 180.079 67.948 180.037 68.0112C180.058 67.948 180.1 67.9059 180.142 67.8428Z" fill="white"/>
<path d="M179.932 68.0742C179.87 68.1163 179.807 68.1374 179.723 68.1374C179.807 68.1374 179.87 68.1163 179.932 68.0742Z" fill="white"/>
<path d="M183.558 68.0739C183.474 68.0739 183.432 68.0318 183.432 67.9686V66.5795C183.411 66.4111 183.39 66.2848 183.369 66.1586C183.306 65.9902 183.201 65.906 183.076 65.885C182.657 65.7587 182.321 65.8429 182.028 66.1375C182.028 66.1586 182.007 66.1586 182.007 66.1586C182.007 66.1796 181.986 66.1796 181.986 66.1796C181.986 66.1796 181.986 66.1586 181.986 66.1375V66.1165V66.0323C181.986 65.9481 181.944 65.885 181.839 65.885H181.357C181.274 65.885 181.211 65.906 181.211 65.9481C181.211 65.9902 181.253 66.0112 181.357 66.0112C181.441 66.0112 181.504 66.0533 181.504 66.1165V67.9686C181.504 68.0318 181.462 68.0739 181.357 68.0739C181.253 68.0739 181.211 68.0949 181.211 68.137C181.211 68.1791 181.253 68.2001 181.357 68.2001H182.133C182.217 68.2001 182.279 68.1791 182.279 68.137C182.279 68.0949 182.238 68.0739 182.133 68.0739C182.049 68.0739 182.007 68.0318 182.007 67.9686V66.7058C182.028 66.5164 182.07 66.369 182.133 66.2428C182.175 66.2007 182.196 66.1586 182.238 66.1375C182.279 66.0954 182.3 66.0533 182.342 66.0323C182.384 66.0112 182.426 66.0112 182.489 65.9902C182.531 65.9691 182.594 65.9481 182.636 65.9691H182.657C182.803 65.9691 182.887 66.0323 182.929 66.1586C182.95 66.2428 182.971 66.369 182.992 66.5164V67.9686C182.992 68.0318 182.95 68.0739 182.845 68.0739C182.74 68.0739 182.699 68.0949 182.699 68.137C182.699 68.1791 182.74 68.2001 182.845 68.2001H183.621C183.704 68.2001 183.767 68.1791 183.767 68.137C183.704 68.0739 183.662 68.0739 183.558 68.0739ZM182.321 66.0112C182.342 66.0112 182.363 66.0112 182.363 65.9902C182.342 66.0112 182.342 66.0112 182.321 66.0112Z" fill="white"/>
<path d="M185.172 68.0738C185.151 68.0738 185.13 68.0527 185.087 68.0527C185.13 68.0738 185.151 68.0738 185.172 68.0738Z" fill="white"/>
<path d="M185.004 67.9899C184.983 67.9689 184.962 67.9478 184.941 67.9268C184.962 67.9478 184.983 67.9689 185.004 67.9899Z" fill="white"/>
<path d="M186.533 68.0736H186.47C186.408 68.0736 186.366 68.0315 186.366 67.9684V66.5582L186.345 66.3267C186.324 66.2004 186.219 66.0741 186.072 65.9899C185.716 65.8005 185.255 65.7795 184.71 65.9689C184.626 66.011 184.564 66.0741 184.564 66.1794V66.6214C184.564 66.7056 184.585 66.7687 184.647 66.7687C184.689 66.7687 184.752 66.7266 184.773 66.6214C184.836 66.453 184.899 66.3267 184.983 66.2215C185.025 66.1583 185.066 66.1373 185.087 66.0952C185.108 66.0741 185.15 66.032 185.171 66.011C185.213 65.9899 185.255 65.9899 185.276 65.9689C185.318 65.9478 185.36 65.9479 185.402 65.9479C185.402 65.9479 185.402 65.9479 185.423 65.9479C185.59 65.9479 185.695 66.011 185.779 66.1583C185.821 66.2846 185.842 66.453 185.842 66.6214C185.842 66.6845 185.8 66.7476 185.716 66.7897C185.569 66.8529 185.402 66.916 185.192 66.9581C184.941 66.9792 184.689 67.0634 184.48 67.2107C184.354 67.3159 184.291 67.4422 184.291 67.5685C184.249 67.8421 184.396 68.0526 184.71 68.1999C184.857 68.242 184.983 68.2631 185.108 68.2631H185.129C185.171 68.2631 185.213 68.242 185.276 68.242C185.36 68.221 185.423 68.221 185.507 68.1999C185.611 68.1578 185.716 68.0736 185.821 67.9263C185.821 67.9263 185.821 67.9052 185.842 67.9052C185.863 67.8842 185.863 67.8842 185.884 67.8842C185.884 67.8842 185.884 67.9052 185.884 67.9263V67.9473V68.0736C185.884 68.1578 185.926 68.221 186.03 68.221H186.554C186.638 68.221 186.701 68.1999 186.701 68.1578C186.68 68.0736 186.617 68.0736 186.533 68.0736ZM185.025 68.0105C184.983 67.9894 184.962 67.9473 184.92 67.9052C184.941 67.9263 184.941 67.9263 184.962 67.9473C184.941 67.9263 184.92 67.9052 184.899 67.8632C184.794 67.5895 184.857 67.358 185.066 67.1686C185.15 67.1265 185.255 67.0844 185.423 67.0423C185.527 67.0213 185.632 66.9792 185.737 66.9371C185.758 66.916 185.779 66.916 185.8 66.916C185.8 66.916 185.8 66.916 185.779 66.916C185.8 66.916 185.8 66.916 185.821 66.916H185.8C185.821 66.916 185.842 66.916 185.842 66.916C185.842 66.916 185.842 66.916 185.821 66.916H185.842C185.863 66.916 185.863 66.9371 185.863 66.9371C185.863 66.9371 185.863 66.9371 185.863 66.9581C185.884 67.2949 185.842 67.5895 185.737 67.8211C185.653 67.9684 185.548 68.0526 185.423 68.0947C185.339 68.1157 185.255 68.1157 185.171 68.0947C185.192 68.0947 185.213 68.1157 185.234 68.1157C185.171 68.1157 185.129 68.0947 185.087 68.0736H185.108C185.066 68.0315 185.046 68.0105 185.025 68.0105C185.004 67.9894 185.025 68.0105 185.025 68.0105ZM185.213 65.9689C185.234 65.9689 185.234 65.9689 185.255 65.9479C185.234 65.9689 185.213 65.9689 185.213 65.9689Z" fill="white"/>
<path d="M188.084 68.0742H188.021C187.958 68.0742 187.916 68.0321 187.916 67.969V65.2118C187.916 65.1276 187.875 65.0645 187.77 65.0645H187.246C187.162 65.0645 187.12 65.0855 187.12 65.1276C187.12 65.1697 187.183 65.1907 187.267 65.1907C187.351 65.1907 187.393 65.2328 187.393 65.296V67.969C187.393 68.0321 187.351 68.0742 187.246 68.0742C187.141 68.0742 187.099 68.0953 187.099 68.1373C187.099 68.1794 187.141 68.2005 187.246 68.2005H188.063C188.147 68.2005 188.21 68.1794 188.21 68.1373C188.231 68.0742 188.168 68.0742 188.084 68.0742Z" fill="white"/>
<path d="M194.119 67.0637C194.056 67.0637 194.014 67.1058 193.973 67.2111C193.889 67.4426 193.784 67.6531 193.658 67.8425C193.574 67.9898 193.449 68.074 193.323 68.1371C193.155 68.1792 193.03 68.1582 192.925 68.1371C192.652 68.095 192.443 67.9267 192.296 67.632C192.191 67.4005 192.149 67.169 192.128 66.9164C192.108 66.4955 192.149 66.1377 192.254 65.8219C192.359 65.5483 192.548 65.3379 192.82 65.2116C193.03 65.1484 193.218 65.1274 193.386 65.1484C193.616 65.2747 193.805 65.5273 193.91 65.9272C193.952 66.0114 193.993 66.0745 194.056 66.0745C194.119 66.0745 194.14 66.0324 194.14 65.9272V65.3589C194.14 65.2747 194.098 65.1905 194.014 65.1484C193.449 64.938 192.883 64.9801 192.359 65.2326C192.087 65.38 191.877 65.5904 191.73 65.843C191.542 66.2218 191.479 66.6428 191.563 67.0637C191.688 67.5478 192.003 67.9056 192.506 68.1161C192.778 68.2003 193.03 68.2424 193.26 68.2424C193.281 68.2424 193.281 68.2424 193.302 68.2424C193.323 68.2424 193.344 68.2424 193.365 68.2424C193.595 68.2213 193.847 68.1792 194.056 68.095C194.14 68.0529 194.182 67.9688 194.182 67.8846V67.2111C194.203 67.1058 194.182 67.0637 194.119 67.0637Z" fill="white"/>
<path d="M196.801 66.0113C196.571 65.8639 196.299 65.8008 196.005 65.8429C195.586 65.906 195.293 66.1586 195.104 66.5795C194.916 67.1688 195.062 67.674 195.544 68.0739C195.649 68.137 195.775 68.1791 195.9 68.2212C195.921 68.2212 195.942 68.2212 195.942 68.2212C196.026 68.2423 196.089 68.2423 196.173 68.2423C196.215 68.2423 196.257 68.2423 196.299 68.2423C196.571 68.2212 196.822 68.0949 197.053 67.8424C197.325 67.4846 197.409 67.0847 197.283 66.6637C197.221 66.4112 197.053 66.2007 196.801 66.0113ZM196.466 68.0528C196.382 68.116 196.299 68.137 196.194 68.137C196.173 68.137 196.152 68.137 196.131 68.137C196.11 68.137 196.089 68.137 196.068 68.137C195.858 68.0949 195.733 67.9476 195.67 67.7161C195.586 67.3583 195.565 66.9584 195.628 66.4953C195.67 66.1796 195.817 65.9902 196.11 65.9271C196.131 65.9271 196.131 65.9271 196.152 65.9271C196.173 65.9271 196.194 65.9271 196.236 65.9271C196.278 65.9271 196.34 65.9271 196.382 65.9481C196.403 65.9481 196.403 65.9692 196.424 65.9692C196.466 65.9902 196.508 66.0113 196.55 66.0534C196.55 66.0534 196.55 66.0533 196.55 66.0744C196.634 66.1586 196.697 66.2849 196.739 66.4322C196.822 66.9584 196.801 67.4004 196.697 67.7582C196.613 67.8845 196.55 67.9686 196.466 68.0528C196.466 68.0318 196.466 68.0528 196.466 68.0528ZM196.445 68.0528C196.382 68.0949 196.299 68.116 196.215 68.137C196.299 68.137 196.382 68.116 196.445 68.0528ZM196.655 67.8003C196.613 67.8845 196.55 67.9686 196.508 68.0107C196.571 67.9476 196.613 67.8845 196.655 67.8003Z" fill="white"/>
<path d="M198.206 67.7788C198.122 67.8419 198.08 67.9051 198.059 67.9682V67.9893C198.059 68.0314 198.08 68.0735 198.122 68.1156V68.1366C198.122 68.1366 198.143 68.1366 198.143 68.1576C198.206 68.1997 198.268 68.2208 198.31 68.2208C198.331 68.2208 198.331 68.2418 198.352 68.2418H198.373C198.394 68.2418 198.394 68.2418 198.415 68.2418C198.478 68.2208 198.562 68.1787 198.625 68.1156C198.687 67.9682 198.646 67.863 198.499 67.7788C198.394 67.7157 198.289 67.7157 198.206 67.7788Z" fill="white"/>
<path d="M199.819 67.8004C199.714 67.9057 199.693 68.0109 199.756 68.1161C199.84 68.2214 199.945 68.2635 200.029 68.2424C200.071 68.2424 200.091 68.2424 200.112 68.2635C200.133 68.2845 200.112 68.3056 200.112 68.3266C200.091 68.3898 200.029 68.4529 199.903 68.5371C199.819 68.5792 199.777 68.6002 199.777 68.6213V68.6423C199.777 68.6634 199.798 68.6634 199.819 68.6634C199.84 68.6634 199.882 68.6423 199.945 68.6213C200.071 68.5581 200.175 68.4739 200.238 68.3687C200.385 68.1161 200.364 67.9267 200.217 67.7794C200.133 67.7162 199.987 67.7162 199.819 67.8004ZM199.798 68.6213V68.6423C199.798 68.6213 199.798 68.6213 199.798 68.6213Z" fill="white"/>
<path d="M206.106 66.9372C206.064 66.9372 206.022 66.9793 206.001 67.0846C205.938 67.4213 205.854 67.716 205.728 67.9475C205.666 68.0317 205.582 68.0527 205.498 68.0527C205.498 68.0527 205.498 68.0527 205.477 68.0527H204.702C204.639 68.0527 204.597 68.0106 204.597 67.9475V65.2745C204.597 65.2113 204.639 65.1693 204.702 65.1693H204.911C204.995 65.1693 205.058 65.1482 205.058 65.1061C205.058 65.064 205.016 65.043 204.911 65.043H203.863C203.78 65.043 203.738 65.064 203.738 65.1061C203.738 65.1482 203.78 65.1693 203.884 65.1693H203.968C204.031 65.1693 204.073 65.2113 204.073 65.2745V67.9475C204.073 68.0106 204.031 68.0527 203.968 68.0527H203.863C203.78 68.0527 203.717 68.0738 203.717 68.1159C203.717 68.158 203.759 68.179 203.863 68.179H206.043C206.127 68.179 206.189 68.1369 206.189 68.0317V67.0635C206.189 66.9793 206.169 66.9372 206.106 66.9372Z" fill="white"/>
<path d="M208.264 67.2746C208.222 67.2746 208.201 67.3167 208.201 67.4219C208.201 67.5692 208.18 67.6955 208.159 67.8007C208.117 67.9481 208.055 68.0323 207.95 68.0744C207.866 68.0954 207.782 68.0954 207.677 68.0323C207.614 67.9691 207.573 67.8639 207.573 67.7166V66.117C207.573 66.0538 207.614 66.0117 207.677 66.0117H208.013C208.096 66.0117 208.159 65.9907 208.159 65.9486C208.159 65.9065 208.117 65.8855 208.013 65.8855H207.677C207.614 65.8855 207.573 65.8434 207.573 65.7802V65.5487C207.573 65.4645 207.531 65.4014 207.426 65.4014H207.216C207.132 65.4014 207.07 65.4435 207.07 65.5487V65.7802C207.07 65.8434 207.028 65.8855 206.923 65.8855C206.818 65.8855 206.776 65.9065 206.776 65.9486C206.776 65.9907 206.818 66.0117 206.923 66.0117C207.028 66.0117 207.07 66.0538 207.07 66.117V67.5692C207.07 67.6955 207.091 67.8007 207.132 67.927C207.153 68.0323 207.216 68.1165 207.342 68.1796C207.489 68.2217 207.614 68.2427 207.719 68.2427C207.845 68.2427 207.971 68.2217 208.075 68.1585C208.201 68.0954 208.264 68.0112 208.285 67.906C208.348 67.7587 208.369 67.5903 208.348 67.4008C208.327 67.3167 208.306 67.2746 208.264 67.2746Z" fill="white"/>
<path d="M211.47 68.0527H211.407C211.345 68.0527 211.303 68.0106 211.303 67.9475V65.1903C211.303 65.1061 211.261 65.043 211.156 65.043H210.611C210.527 65.043 210.485 65.064 210.485 65.1061C210.485 65.1482 210.527 65.1693 210.632 65.1693H210.716C210.779 65.1693 210.821 65.2113 210.821 65.2745V66.1164C210.821 66.1374 210.821 66.1374 210.821 66.1374C210.821 66.1585 210.821 66.1795 210.821 66.1795L210.8 66.1585L210.779 66.1374C210.674 65.9901 210.548 65.8849 210.36 65.8428C210.318 65.8428 210.297 65.8428 210.276 65.8428C210.297 65.8428 210.297 65.8428 210.318 65.8428C210.234 65.8428 210.15 65.8428 210.066 65.8428H210.087C210.024 65.8428 209.941 65.8638 209.878 65.8638C209.878 65.8638 209.878 65.8638 209.899 65.8638C209.836 65.8849 209.752 65.9059 209.689 65.948C209.71 65.927 209.731 65.927 209.752 65.9059C209.689 65.927 209.626 65.948 209.584 65.969C209.333 66.1585 209.186 66.39 209.123 66.6636C209.06 66.9793 209.06 67.2529 209.165 67.5055C209.354 67.9475 209.668 68.179 210.066 68.2211C210.108 68.2211 210.15 68.2211 210.171 68.2211C210.192 68.2211 210.192 68.2001 210.213 68.2001C210.318 68.2001 210.422 68.179 210.506 68.1369C210.527 68.1159 210.548 68.1159 210.569 68.0948C210.653 68.0527 210.716 67.9896 210.779 67.8843C210.779 67.8633 210.8 67.8633 210.8 67.8633C210.821 67.8422 210.821 67.8212 210.821 67.8212L210.842 67.8002C210.842 67.8002 210.842 67.8212 210.842 67.8422V67.8633V68.0317C210.842 68.1159 210.883 68.179 210.988 68.179H211.491C211.575 68.179 211.638 68.158 211.638 68.1159C211.617 68.0738 211.575 68.0527 211.47 68.0527ZM210.36 68.0948C210.339 68.0948 210.318 68.0948 210.318 68.0948H210.339C210.276 68.1159 210.192 68.0948 210.108 68.0948C209.982 68.0738 209.878 67.9896 209.794 67.8422C209.71 67.6949 209.668 67.5055 209.647 67.3161C209.626 67.0004 209.647 66.6847 209.731 66.39C209.773 66.2637 209.857 66.1585 209.94 66.0953C209.94 66.0953 209.94 66.0953 209.961 66.0743C210.045 66.0111 210.15 65.9901 210.255 65.969C210.276 65.969 210.297 65.969 210.318 65.969C210.339 65.969 210.381 65.969 210.402 65.969C210.527 65.9901 210.632 66.0743 210.716 66.2216C210.779 66.3269 210.8 66.4531 210.821 66.5794C210.863 66.9793 210.842 67.3161 210.8 67.5265C210.758 67.737 210.674 67.9054 210.569 67.9896C210.569 67.9896 210.569 67.9896 210.59 67.9896C210.569 68.0106 210.569 68.0106 210.548 68.0106C210.548 68.0106 210.569 68.0106 210.569 67.9896C210.464 68.0527 210.402 68.0738 210.36 68.0948C210.339 68.0948 210.339 68.0948 210.36 68.0948ZM210.674 67.8212C210.674 67.8212 210.674 67.8422 210.674 67.8212C210.674 67.8422 210.674 67.8212 210.674 67.8212ZM210.15 68.2421C210.129 68.2421 210.129 68.2421 210.108 68.2421C210.129 68.2421 210.129 68.2421 210.15 68.2421Z" fill="white"/>
<path d="M210.15 65.8428C210.129 65.8428 210.087 65.8428 210.066 65.8638C210.129 65.8638 210.171 65.8638 210.234 65.8638C210.213 65.8428 210.171 65.8428 210.15 65.8428Z" fill="white"/>
<path d="M209.752 65.9269C209.794 65.9058 209.836 65.8848 209.878 65.8848C209.815 65.8848 209.773 65.9058 209.752 65.9269Z" fill="white"/>
<path d="M212.853 67.7579C212.728 67.7158 212.623 67.7158 212.539 67.7789C212.455 67.842 212.413 67.9052 212.392 67.9683V67.9894C212.392 68.0315 212.413 68.0736 212.455 68.1157V68.1367C212.455 68.1367 212.476 68.1367 212.476 68.1577C212.539 68.1998 212.602 68.2209 212.644 68.2209C212.665 68.2209 212.665 68.2419 212.686 68.2419H212.707C212.728 68.2419 212.728 68.2419 212.749 68.2419C212.811 68.2209 212.895 68.1788 212.958 68.1157C213.042 67.9473 213 67.842 212.853 67.7579Z" fill="white"/>
<path d="M112.666 42.4804C112.666 42.4804 113.86 43.3223 115.432 43.4486C115.516 43.4486 115.537 43.4486 115.474 43.4065C115.39 43.3644 115.096 43.217 114.908 43.1118C114.845 43.0697 114.782 43.0487 114.74 43.0066C114.719 43.0066 114.719 42.9855 114.698 42.9855C114.112 42.6277 113.881 42.3541 113.797 42.1857C113.755 42.1226 113.734 42.0594 113.734 41.9753C113.734 41.7648 113.902 41.6385 114.07 41.5333C114.594 41.2176 114.95 40.6703 114.95 40.0389C114.95 39.0707 114.132 38.292 113.106 38.292C112.351 38.292 111.723 38.7129 111.429 39.3233C111.429 39.3233 111.429 39.3444 111.408 39.3444C111.408 39.3654 111.408 39.3654 111.387 39.3864C111.366 39.4285 111.345 39.4706 111.345 39.5338C111.304 39.7022 111.262 39.8705 111.262 40.0389C111.262 40.06 111.262 40.06 111.262 40.081C111.262 40.7124 111.471 41.6385 112.666 42.4804Z" fill="white"/>
<path d="M51.5388 28C37.9806 28 27 39.0287 27 52.6463C27 58.6237 29.1165 64.117 32.637 68.3686L70.3777 68.4317C73.9401 64.1591 76.0775 58.6448 76.0775 52.6463C76.0775 39.0287 65.0969 28 51.5388 28ZM51.1196 35.3034C51.9369 36.2295 56.2328 41.2598 56.2328 44.9009C56.2328 48.5631 52.7542 50.0154 52.1255 56.9399C52.0836 57.9081 52.1465 58.9605 51.874 60.2233C51.6016 61.5072 50.0509 62.4333 49.1708 62.8542L49.1079 62.77C49.6528 62.4122 49.9881 61.9281 49.9881 61.9281C51.0777 60.4338 50.5539 56.2664 50.3653 54.9194C49.3175 49.3629 45.9856 48.3106 45.9856 44.9009C45.9856 41.2598 50.3024 36.2295 51.1196 35.3034ZM47.7458 63.9697C47.18 64.4117 46.4676 64.6853 45.6712 64.6853C44.0158 64.6853 42.6537 63.5067 42.3603 61.9281C42.9051 62.4122 43.6386 62.7069 44.4139 62.7069C46.1323 62.7069 47.5363 61.2967 47.5363 59.5708C47.5363 59.1499 47.4525 58.729 47.2848 58.3501C46.5304 56.5611 45.2312 55.0457 43.5757 54.0775C43.5548 54.0565 43.5338 54.0565 43.5128 54.0354C43.1147 53.7618 42.6327 53.5934 42.1088 53.5934C40.7677 53.5934 39.6571 54.6879 39.6571 56.056C39.6571 57.1925 40.4114 58.1396 41.4383 58.4132C40.8725 58.7079 40.2228 58.8763 39.5523 58.8763C37.9806 58.8763 36.5976 57.9713 35.948 56.6242C35.6755 56.077 35.5288 55.4666 35.5288 54.8142C35.5288 52.9199 36.8071 51.3414 38.5464 50.8994C38.6093 50.8783 38.6722 50.8783 38.735 50.8573C38.8817 50.8152 39.0493 50.7941 39.217 50.7941C39.5523 50.7521 39.9085 50.731 40.2438 50.731C45.1893 50.731 49.2127 54.751 49.2127 59.7392C49.2127 60.5601 49.1079 61.3599 48.8984 62.1386V62.1596C48.8984 62.1807 48.8774 62.2228 48.8774 62.2438C48.8774 62.2649 48.8565 62.2859 48.8565 62.307C48.6888 62.9805 48.2697 63.5488 47.7458 63.9697ZM52.7123 66.769C52.6284 67.0426 52.4818 67.2952 52.3141 67.5056C52.1465 67.7161 51.916 67.8845 51.6645 68.0318C51.413 68.1581 51.1196 68.2423 50.7844 68.2633C50.491 68.2844 50.2186 68.2423 49.9671 68.116C49.6947 68.0108 49.4642 67.8634 49.2546 67.653C49.0451 67.4425 48.8774 67.211 48.7517 66.9374C48.626 66.6638 48.5421 66.3691 48.5421 66.0744C48.5212 65.6956 48.5631 65.3378 48.6679 64.98C48.7726 64.6222 48.9193 64.3065 49.1289 63.9908C49.3175 63.675 49.548 63.3804 49.8204 63.0857C50.0928 62.8121 50.3653 62.5595 50.6586 62.328C50.952 62.0965 51.2663 61.9071 51.5597 61.7387C51.874 61.5703 52.1674 61.444 52.4608 61.3388L52.5446 61.444C52.3141 61.5703 52.0626 61.7177 51.8321 61.886C51.6016 62.0544 51.3711 62.2649 51.1406 62.4964C50.9101 62.7279 50.7005 62.9805 50.5119 63.2541C50.3233 63.5277 50.1557 63.8434 49.9881 64.1802C50.0928 64.1381 50.1976 64.117 50.2814 64.096C50.3862 64.0749 50.491 64.0539 50.6377 64.0539C50.952 64.0329 51.2244 64.0749 51.4968 64.1591C51.7483 64.2433 51.9788 64.3696 52.1674 64.559C52.356 64.7274 52.5027 64.9379 52.6284 65.1694C52.7332 65.4009 52.7961 65.6535 52.817 65.9271C52.838 66.2218 52.7961 66.4954 52.7123 66.769ZM65.9142 56.8137C65.2436 58.1396 63.8815 59.0657 62.3098 59.0657C61.6183 59.0657 60.9896 58.8973 60.4238 58.6027C61.4507 58.308 62.2051 57.3609 62.2051 56.2454C62.2051 54.8984 61.1154 53.7829 59.7533 53.7829C59.2294 53.7829 58.7474 53.9512 58.3493 54.2248C58.3283 54.2459 58.3073 54.2459 58.2864 54.2669C56.6309 55.2562 55.3317 56.7505 54.5773 58.5395C54.4306 58.9184 54.3258 59.3183 54.3258 59.7603C54.3258 61.4861 55.7298 62.8963 57.4482 62.8963C58.2445 62.8963 58.957 62.6016 59.5018 62.1176C59.2084 63.6961 57.8463 64.8747 56.1909 64.8747C55.4155 64.8747 54.703 64.6011 54.1163 64.1591C53.5924 63.7382 53.1733 63.1699 52.9637 62.5175C52.9637 62.4964 52.9428 62.4754 52.9428 62.4543C52.9428 62.4333 52.9218 62.3912 52.9218 62.3701V62.3491C52.7123 61.5914 52.6075 60.7916 52.6075 59.9497C52.6075 54.9825 56.61 50.9415 61.5764 50.9415C61.9326 50.9415 62.2679 50.9625 62.6032 51.0046C62.7708 51.0257 62.9175 51.0467 63.0852 51.0678C63.148 51.0888 63.2109 51.0888 63.2738 51.1099C65.0131 51.5518 66.2914 53.1514 66.2914 55.0246C66.3333 55.6561 66.1866 56.2664 65.9142 56.8137Z" fill="white"/>
</g>
<defs>
<clipPath id="clip0_84_867">
<rect width="186" height="41" fill="white" transform="translate(27 28)"/>
</clipPath>
</defs>
</svg>
