<svg width="160" height="59" viewBox="0 0 160 59" fill="none" xmlns="http://www.w3.org/2000/svg">
<g clip-path="url(#clip0_48_507)">
<path d="M0 0.253868C0.711111 0.288001 1.64267 0.322135 2.79467 0.356268C3.94667 0.390401 5.08444 0.407468 6.208 0.407468C7.79947 0.407468 9.32409 0.390401 10.7819 0.356268C12.2396 0.322135 13.2679 0.305068 13.8667 0.305068C16.6116 0.305068 18.8907 0.694757 20.704 1.47413C22.5173 2.25351 23.8756 3.31236 24.7787 4.65067C25.6722 5.9789 26.1416 7.54702 26.1248 9.14773C26.1079 10.259 25.9016 11.3592 25.5147 12.4011C25.0598 13.6278 24.3393 14.7387 23.4048 15.6544C22.4092 16.6699 21.0453 17.5083 19.3131 18.1696C17.5808 18.8309 15.3956 19.1616 12.7573 19.1616H7.8784V18.144H12.2496C14.6532 18.144 16.4914 17.7628 17.7643 17.0005C18.9624 16.3238 19.8811 15.2434 20.3563 13.952C20.8283 12.5871 21.06 11.1507 21.0411 9.70667C21.0411 7.03147 20.406 4.95644 19.136 3.4816C17.866 2.00676 15.6892 1.27289 12.6059 1.28C11.0414 1.28 10.0245 1.568 9.5552 2.144C9.08587 2.72 8.84836 3.88551 8.84267 5.64053V30.8523C8.84267 32.0697 8.94507 32.9842 9.14987 33.5957C9.23427 33.8808 9.38703 34.141 9.59486 34.3537C9.80268 34.5664 10.0593 34.7251 10.3424 34.816C11.1942 35.0618 12.0738 35.1988 12.96 35.2235V36.2389C12.182 36.1721 11.2078 36.1301 10.0373 36.1131C8.86684 36.096 7.68996 36.0875 6.50667 36.0875C5.184 36.0875 3.94667 36.096 2.79467 36.1131C1.64267 36.1301 0.711111 36.1721 0 36.2389V35.2235C0.886243 35.1988 1.76578 35.0618 2.6176 34.816C2.90101 34.7252 3.15797 34.5666 3.36616 34.3539C3.57436 34.1413 3.72749 33.881 3.81227 33.5957C4.01564 32.9856 4.11733 32.0711 4.11733 30.8523V5.64053C4.11733 4.38756 4.01564 3.46311 3.81227 2.8672C3.72182 2.58487 3.56672 2.32755 3.35932 2.11571C3.15192 1.90387 2.89795 1.74335 2.6176 1.64693C2.02453 1.43076 1.152 1.30845 0 1.28V0.253868ZM8.08107 18.2976C9.91147 18.3659 11.3515 18.442 12.4011 18.5259C13.4507 18.6112 14.3083 18.688 14.9611 18.7541C15.6139 18.8203 16.2581 18.9077 16.8683 19.008C19.1438 19.382 20.7794 20.0683 21.7749 21.0667C22.7705 22.0651 23.5072 23.6153 23.9851 25.7173L25.2651 30.9013C25.605 32.3947 25.952 33.4706 26.3061 34.1291C26.4523 34.4362 26.6892 34.6912 26.9849 34.8594C27.2805 35.0277 27.6207 35.1011 27.9595 35.0699C28.4917 35.0533 29.0026 34.8562 29.408 34.5109C29.8673 34.0963 30.2839 33.6368 30.6517 33.1392L31.4155 33.6981C30.8197 34.6222 30.0717 35.4387 29.2032 36.1131C28.4423 36.672 27.3671 36.9515 25.9776 36.9515C24.7795 36.9735 23.6106 36.5809 22.6688 35.84C21.7202 35.0933 21.0091 33.6363 20.5355 31.4688L19.4133 26.3787C19.1557 25.0935 18.8078 23.8282 18.3723 22.592C18.0512 21.6299 17.492 20.7646 16.7467 20.0768C16.054 19.4667 15.0293 19.1616 13.6725 19.1616H8.18347L8.08107 18.2976Z" fill="#E9BA55"/>
<path d="M44.6251 9.35253C47.6118 9.35253 49.9414 10.2585 51.6139 12.0704C53.2865 13.8823 54.1249 16.7033 54.1291 20.5333H36.1878L36.1366 19.5669H49.2502C49.3309 18.0228 49.1974 16.475 48.8534 14.9675C48.5135 13.5623 47.9795 12.4359 47.2513 11.5883C46.9084 11.1757 46.4766 10.8462 45.9881 10.6245C45.4996 10.4028 44.9673 10.2947 44.431 10.3083C42.8666 10.3083 41.4856 11.0905 40.2881 12.6549C39.0906 14.2194 38.3674 16.6933 38.1185 20.0768L38.2721 20.2901C38.2038 20.7979 38.1526 21.3568 38.1185 21.9669C38.0843 22.5771 38.068 23.1872 38.0694 23.7973C38.0694 26.1013 38.442 28.0839 39.1873 29.7451C39.9325 31.4062 40.9067 32.6677 42.1099 33.5296C43.3117 34.3957 44.5569 34.8281 45.8454 34.8267C46.8315 34.832 47.8113 34.669 48.7425 34.3445C49.6948 33.9995 50.5615 33.453 51.2833 32.7424C52.1431 31.8797 52.8327 30.8629 53.3163 29.7451L54.3339 30.1504C53.9234 31.3356 53.3034 32.4376 52.5035 33.4037C51.6289 34.4728 50.5385 35.3451 49.3035 35.9637C47.9115 36.6493 46.3749 36.9895 44.8235 36.9557C42.3844 36.9557 40.2923 36.3961 38.5473 35.2768C36.7891 34.1455 35.3949 32.5306 34.5323 30.6261C33.6008 28.645 33.135 26.3694 33.135 23.7995C33.135 20.8128 33.6093 18.2457 34.5579 16.0981C35.5066 13.9506 36.8449 12.2908 38.5729 11.1189C40.3009 9.94986 42.3169 9.36533 44.6209 9.36533" fill="#E9BA55"/>
<path d="M75.0699 9.35253C76.1665 9.32138 77.2594 9.49352 78.2933 9.86027C79.1103 10.1685 79.8485 10.6545 80.4544 11.2832C81.1187 12.0008 81.5906 12.8749 81.8261 13.824C82.0978 14.8409 82.2336 16.2133 82.2336 17.9413V31.5115C82.2336 32.9344 82.528 33.9008 83.1232 34.4085C83.7184 34.9163 84.7061 35.1723 86.0949 35.1723V36.2389C85.5189 36.2048 84.6379 36.1621 83.4517 36.1109C82.2656 36.0597 81.1136 36.0348 79.9957 36.0363C78.8779 36.0363 77.7849 36.0612 76.7168 36.1109C75.6487 36.1607 74.8445 36.2034 74.304 36.2389V35.1723C75.5243 35.1723 76.3861 34.9184 76.896 34.4085C77.4059 33.8987 77.6576 32.9344 77.6576 31.5115V16.8235C77.6643 15.8519 77.5793 14.882 77.4037 13.9264C77.267 13.1091 76.8652 12.3594 76.2603 11.7931C75.6672 11.2512 74.7605 10.9803 73.5403 10.9803C72.1934 10.9559 70.8776 11.3858 69.8048 12.2005C68.6946 13.0695 67.8353 14.2181 67.3152 15.5285C66.707 17.0175 66.4044 18.6136 66.4256 20.2219V31.5051C66.4256 32.9273 66.6795 33.893 67.1872 34.4021C67.6971 34.912 68.5589 35.1659 69.7792 35.1659V36.2325C69.2373 36.1984 68.4331 36.1557 67.3664 36.1045C66.2997 36.0533 65.2068 36.0284 64.0875 36.0299C62.9696 36.0299 61.8176 36.0548 60.6315 36.1045C59.4453 36.1543 58.5643 36.197 57.9883 36.2325V35.1659C59.3778 35.1659 60.3691 34.9113 60.9621 34.4021C61.5531 33.8944 61.8517 32.928 61.8517 31.5051V15.6032C61.8517 14.0772 61.5801 12.9508 61.0368 12.224C60.4935 11.4972 59.4773 11.1332 57.9883 11.1317V10.0651C59.072 10.1675 60.1223 10.2187 61.1392 10.2187C62.0822 10.2212 63.0244 10.1614 63.9595 10.0395C64.7958 9.93585 65.6212 9.75736 66.4256 9.50613V15.5008C67.306 13.1982 68.5341 11.5975 70.1099 10.6987C71.614 9.8204 73.3238 9.35596 75.0656 9.35253" fill="#E9BA55"/>
<path d="M103.279 0L115.68 31.9701C116.188 33.2587 116.764 34.112 117.408 34.5301C117.931 34.9095 118.544 35.1463 119.187 35.2171V36.2325C118.509 36.1643 117.678 36.1223 116.695 36.1067C115.713 36.091 114.731 36.0825 113.749 36.0811C112.427 36.0811 111.189 36.0896 110.037 36.1067C108.885 36.1237 107.954 36.1657 107.243 36.2325V35.2171C108.971 35.1488 110.072 34.8523 110.547 34.3275C111.022 33.8027 110.92 32.6756 110.242 30.9461L100.787 5.69173L101.6 5.03253L92.7572 28.0043C92.2864 29.1013 91.9615 30.2553 91.7908 31.4368C91.6912 32.3684 91.7844 33.1051 92.0703 33.6469C92.3893 34.2149 92.9187 34.6348 93.5444 34.816C94.3926 35.078 95.2743 35.2152 96.162 35.2235V36.2389C95.2134 36.1707 94.2228 36.1287 93.1903 36.1131C92.1577 36.0974 91.1999 36.0889 90.3167 36.0875C89.4633 36.0875 88.7487 36.0875 88.1577 36.1131C87.6048 36.1264 87.053 36.1684 86.5044 36.2389V35.2235C87.2844 34.9969 87.9989 34.5873 88.5887 34.0288C89.2998 33.4016 89.944 32.3257 90.5215 30.8011L102.464 0H103.279ZM109.478 21.6V22.6133H94.3316L94.8393 21.5957L109.478 21.6Z" fill="#E9BA55"/>
<path d="M136.162 9.35253C137.001 9.33431 137.831 9.52646 138.577 9.91146C139.232 10.2501 139.791 10.7483 140.203 11.36C140.593 11.9559 140.797 12.655 140.787 13.3675C140.799 14.1825 140.52 14.9751 140 15.6032C139.748 15.9175 139.426 16.1686 139.06 16.3364C138.693 16.5042 138.293 16.584 137.89 16.5696C137.201 16.5778 136.532 16.3335 136.011 15.8827C135.467 15.4261 135.198 14.7733 135.198 13.9264C135.182 13.3312 135.37 12.7484 135.731 12.2752C136.06 11.8417 136.464 11.471 136.924 11.1808C136.804 11.0128 136.643 10.8781 136.456 10.7892C136.269 10.7004 136.063 10.6605 135.857 10.6731C134.816 10.6702 133.801 10.9998 132.96 11.6139C132.061 12.2609 131.3 13.0822 130.724 14.0288C130.116 15.0044 129.638 16.055 129.301 17.1541C128.979 18.1477 128.807 19.1839 128.792 20.2283V31.0037C128.792 32.6649 129.275 33.7749 130.242 34.3339C131.209 34.8928 132.524 35.1723 134.187 35.1723V36.2389C133.406 36.2048 132.304 36.1621 130.882 36.1109C129.46 36.0597 127.952 36.0348 126.36 36.0363C125.208 36.0363 124.064 36.0612 122.929 36.1109C121.794 36.1607 120.941 36.2034 120.369 36.2389V35.1723C121.757 35.1723 122.748 34.9177 123.341 34.4085C123.934 33.8994 124.23 32.9337 124.23 31.5115V15.6032C124.23 14.0772 123.96 12.9508 123.418 12.224C122.876 11.4972 121.86 11.1332 120.369 11.1317V10.0651C121.453 10.1675 122.503 10.2187 123.52 10.2187C124.463 10.2211 125.405 10.1613 126.34 10.0395C127.176 9.93611 128.001 9.75761 128.804 9.50613V15.8571C129.215 14.8043 129.753 13.8056 130.406 12.8832C131.082 11.901 131.929 11.0489 132.907 10.368C133.86 9.70075 134.997 9.34592 136.16 9.35253" fill="#E9BA55"/>
<path d="M151.155 1.6256V10.1141H158.679V11.1317H151.155V30.8011C151.155 32.394 151.444 33.5118 152.021 34.1547C152.595 34.7947 153.393 35.1211 154.409 35.1211C154.914 35.1204 155.412 35.0084 155.869 34.793C156.326 34.5777 156.73 34.2643 157.052 33.8752C157.797 33.046 158.441 31.6487 158.982 29.6832L160 29.9371C159.662 31.9012 158.992 33.5616 157.993 34.9184C156.993 36.2752 155.457 36.9529 153.387 36.9515C152.42 36.9829 151.456 36.8383 150.541 36.5248C149.804 36.2438 149.13 35.8204 148.557 35.2789C147.809 34.4957 147.276 33.5333 147.008 32.4843C146.724 31.4005 146.581 29.9605 146.581 28.1643V11.1317H141.702V10.1141H146.581V2.34667C147.435 2.31253 148.248 2.24142 149.022 2.13333C149.75 2.04402 150.465 1.87299 151.155 1.62347" fill="#E9BA55"/>
<path d="M23.3279 49.1691C23.2938 49.4933 23.2703 49.8091 23.2575 50.112C23.2447 50.4149 23.2383 50.6496 23.2383 50.8117C23.2383 51.0251 23.2383 51.2107 23.2511 51.3899C23.2639 51.5691 23.2682 51.7269 23.2767 51.8635H22.9823C22.9443 51.3847 22.8622 50.9106 22.737 50.4469C22.6617 50.1365 22.469 49.8674 22.1994 49.696C21.8278 49.517 21.4163 49.4369 21.0047 49.4635H20.3114V56.768C20.3004 57.0283 20.3329 57.2885 20.4074 57.5381C20.4388 57.6217 20.4896 57.6966 20.5556 57.7567C20.6216 57.8168 20.701 57.8603 20.7871 57.8837C21.0552 57.9555 21.331 57.9942 21.6085 57.9989V58.2571C21.3951 58.24 21.1029 58.2293 20.7551 58.2251C20.4074 58.2208 20.0661 58.2251 19.7141 58.2251C19.3621 58.2251 18.9695 58.2251 18.6303 58.2251C18.2911 58.2251 18.0202 58.24 17.8154 58.2571V57.9989C18.0929 57.9941 18.3687 57.9554 18.6367 57.8837C18.7229 57.8603 18.8023 57.8168 18.8683 57.7567C18.9343 57.6966 18.9851 57.6217 19.0165 57.5381C19.091 57.2885 19.1234 57.0283 19.1125 56.768V49.4635H18.4255C18.0152 49.4417 17.6061 49.5254 17.2373 49.7067C16.9648 49.8763 16.7696 50.1459 16.6933 50.4576C16.5681 50.9212 16.486 51.3954 16.4479 51.8741H16.1535C16.1706 51.7319 16.1813 51.574 16.1855 51.4005C16.1855 51.2213 16.1855 51.0272 16.1855 50.8224C16.1855 50.6603 16.1855 50.4277 16.1663 50.1227C16.1471 49.8176 16.1301 49.504 16.0959 49.1797L17.2693 49.2053C17.6959 49.2053 18.1226 49.2181 18.5493 49.2181H20.8831C21.3098 49.2181 21.7365 49.2139 22.1631 49.2053L23.3301 49.1797" fill="#E9BA55"/>
<path d="M26.0095 48.2133V53.0133C26.168 52.5134 26.4982 52.0856 26.9418 51.8059C27.3226 51.5885 27.7534 51.4738 28.1919 51.4731C28.4692 51.465 28.7455 51.5084 29.0069 51.6011C29.2269 51.6806 29.4237 51.8137 29.5794 51.9884C29.7351 52.1631 29.8448 52.3739 29.8986 52.6016C29.9758 52.943 30.0102 53.2927 30.001 53.6427V57.0688C30.001 57.4293 30.0778 57.6725 30.2271 57.8005C30.4478 57.9492 30.7131 58.017 30.9781 57.9925V58.2635L30.3103 58.2315C30.0095 58.2165 29.7194 58.2123 29.4378 58.2123C29.1562 58.2123 28.8789 58.2123 28.6101 58.2315L27.9999 58.2635V57.9925C28.2349 58.0158 28.4697 57.947 28.6549 57.8005C28.7829 57.6725 28.8469 57.4293 28.8469 57.0688V53.3525C28.8487 53.1079 28.8272 52.8636 28.7829 52.6229C28.7492 52.4161 28.6479 52.2263 28.4949 52.0832C28.3004 51.9292 28.0555 51.8532 27.8079 51.8699C27.4741 51.8642 27.1476 51.9675 26.8778 52.1643C26.5937 52.3747 26.3725 52.6587 26.2378 52.9856C26.0764 53.3666 25.9972 53.7773 26.0053 54.1909V57.0539C26.0053 57.4144 26.0693 57.6576 26.1994 57.7856C26.3837 57.9321 26.6179 58.001 26.8522 57.9776V58.2485L26.2442 58.2165C25.9733 58.2016 25.6981 58.1973 25.4165 58.1973C25.1349 58.1973 24.8426 58.1973 24.5418 58.2165L23.8762 58.2485V57.9776C24.1411 58.0014 24.4062 57.9336 24.6271 57.7856C24.7765 57.6576 24.8511 57.4144 24.8511 57.0539V49.7472C24.8714 49.4474 24.7967 49.1489 24.6378 48.8939C24.4991 48.7083 24.2431 48.6165 23.8677 48.6165V48.3477C24.1407 48.3733 24.4053 48.3861 24.6634 48.3861C24.9016 48.3867 25.1397 48.3717 25.3759 48.3413C25.5864 48.3149 25.7942 48.2699 25.9967 48.2069" fill="#E9BA55"/>
<path d="M34.6602 51.4667C35.4126 51.4667 36.0014 51.6957 36.4266 52.1536C36.8519 52.6116 37.0652 53.3227 37.0666 54.2869H32.5311L32.5183 54.0416H35.84C35.8596 53.6519 35.8252 53.2613 35.7376 52.8811C35.6734 52.5681 35.5343 52.2753 35.3322 52.0278C35.2457 51.924 35.1369 51.8411 35.0139 51.7853C34.8909 51.7295 34.7569 51.7023 34.6218 51.7056C34.4128 51.7135 34.2086 51.7712 34.0264 51.874C33.8442 51.9768 33.6892 52.1217 33.5743 52.2965C33.2714 52.6912 33.0879 53.3141 33.0282 54.1696L33.0666 54.2229C33.0495 54.3509 33.0367 54.4932 33.0282 54.6496C33.0282 54.8032 33.0154 54.9568 33.0154 55.1125C33.0045 55.6247 33.1012 56.1334 33.2991 56.6059C33.4558 56.9844 33.7106 57.3143 34.0373 57.5616C34.3085 57.7685 34.6391 57.8829 34.9802 57.888C35.2293 57.8893 35.4767 57.8481 35.712 57.7664C35.9514 57.6787 36.1695 57.5413 36.352 57.3632C36.5681 57.1447 36.7417 56.8879 36.864 56.6059L37.1221 56.7083C37.0181 57.0075 36.8613 57.2857 36.6592 57.5296C36.4369 57.7966 36.1615 58.0145 35.8506 58.1696C35.4998 58.3419 35.1128 58.4275 34.7221 58.4192C34.1634 58.4349 33.6123 58.2865 33.137 57.9925C32.6927 57.7073 32.3401 57.2999 32.1215 56.8192C31.8784 56.2769 31.7582 55.6875 31.7695 55.0933C31.753 54.427 31.8751 53.7645 32.1279 53.1477C32.3389 52.6402 32.6914 52.204 33.1434 51.8912C33.5944 51.5905 34.1268 51.4356 34.6687 51.4475" fill="#E9BA55"/>
<path d="M41.3994 49.1691L42.1055 49.1947C42.3957 49.1947 42.6837 49.2075 42.9589 49.2075C43.3621 49.2075 43.7461 49.2075 44.1151 49.1947C44.4842 49.1819 44.7423 49.1819 44.8959 49.1819C45.4858 49.1634 46.0735 49.2635 46.624 49.4763C47.0364 49.6388 47.3928 49.9174 47.6501 50.2784C47.8789 50.6126 48.0009 51.0083 48 51.4133C47.9956 51.6938 47.9437 51.9716 47.8464 52.2347C47.732 52.5442 47.5506 52.8247 47.3151 53.056C47.0194 53.3401 46.6667 53.5582 46.2805 53.696C45.7481 53.8777 45.1873 53.9623 44.625 53.9456H43.3941V53.6896H44.497C44.9789 53.7181 45.4597 53.618 45.8901 53.3995C46.1925 53.2281 46.4245 52.9553 46.545 52.6293C46.6638 52.2864 46.7222 51.9255 46.7178 51.5627C46.7178 50.8871 46.5571 50.363 46.2357 49.9904C45.9143 49.6178 45.3646 49.4293 44.5866 49.4251C44.1941 49.4251 43.9466 49.4976 43.8165 49.6384C43.6863 49.7792 43.6373 50.08 43.6373 50.5259V56.896C43.6282 57.1297 43.6541 57.3633 43.7141 57.5893C43.7355 57.6611 43.774 57.7266 43.8265 57.7802C43.8789 57.8337 43.9436 57.8736 44.0149 57.8965C44.2301 57.9585 44.4523 57.9929 44.6762 57.9989V58.2571C44.4799 58.24 44.2346 58.2293 43.9381 58.2251C43.6416 58.2208 43.345 58.2251 43.0463 58.2251C42.7135 58.2251 42.4063 58.2251 42.1098 58.2251C41.8133 58.2251 41.5829 58.24 41.4037 58.2571V57.9989C41.6276 57.9929 41.8498 57.9585 42.065 57.8965C42.1363 57.8736 42.201 57.8337 42.2534 57.7802C42.3059 57.7266 42.3444 57.6611 42.3658 57.5893C42.4258 57.3633 42.4517 57.1297 42.4426 56.896V50.5301C42.4526 50.2943 42.4267 50.0584 42.3658 49.8304C42.3431 49.759 42.3042 49.6939 42.252 49.6402C42.1997 49.5865 42.1357 49.5457 42.065 49.5211C41.8508 49.4555 41.6277 49.4232 41.4037 49.4251L41.3994 49.1691ZM43.441 53.7259C43.9018 53.7429 44.2666 53.7621 44.5312 53.7835C44.7957 53.8048 45.0133 53.824 45.1712 53.8411C45.329 53.8581 45.4976 53.8795 45.6533 53.9051C46.225 53.9989 46.6389 54.1717 46.8906 54.4256C47.1824 54.7571 47.376 55.1635 47.4496 55.5989L47.7696 56.9088C47.8233 57.1902 47.9114 57.4639 48.032 57.7237C48.0703 57.8021 48.1318 57.8668 48.2081 57.9092C48.2844 57.9515 48.3718 57.9694 48.4586 57.9605C48.5932 57.9558 48.7224 57.9063 48.8256 57.8197C48.9417 57.7149 49.0468 57.5984 49.1392 57.472L49.3312 57.6149C49.1808 57.8479 48.9926 58.0541 48.7744 58.2251C48.5319 58.3802 48.2467 58.4548 47.9594 58.4384C47.6562 58.4435 47.3607 58.3432 47.1232 58.1547C46.8842 57.9669 46.705 57.5993 46.5855 57.0517L46.3018 55.7717C46.2367 55.4474 46.149 55.1281 46.0394 54.816C45.9592 54.5715 45.8183 54.3512 45.6298 54.176C45.4067 54.0074 45.13 53.9255 44.8512 53.9456H43.4666L43.441 53.7259Z" fill="#E9BA55"/>
<path d="M52.6677 51.4667C53.4215 51.4667 54.0096 51.6957 54.432 52.1536C54.8544 52.6116 55.0677 53.3227 55.072 54.2869H50.5386L50.5258 54.0416H53.8368C53.8565 53.6519 53.822 53.2613 53.7344 52.8811C53.6702 52.5681 53.5311 52.2753 53.329 52.0278C53.2423 51.9237 53.1332 51.8406 53.0098 51.7849C52.8863 51.7291 52.7519 51.702 52.6165 51.7056C52.4078 51.7138 52.2041 51.7717 52.0223 51.8745C51.8404 51.9773 51.6858 52.122 51.5712 52.2965C51.2682 52.6912 51.0848 53.3141 51.025 54.1696L51.0634 54.2229C51.0464 54.3509 51.0336 54.4932 51.025 54.6496C51.025 54.8032 51.0122 54.9568 51.0122 55.1125C51.0003 55.6248 51.097 56.1337 51.296 56.6059C51.4526 56.9838 51.7065 57.3136 52.032 57.5616C52.3042 57.7683 52.6353 57.8826 52.977 57.888C53.2261 57.8891 53.4735 57.848 53.7088 57.7664C53.9482 57.6787 54.1663 57.5413 54.3488 57.3632C54.5649 57.1447 54.7385 56.8879 54.8608 56.6059L55.1168 56.7083C55.0135 57.0074 54.8575 57.2856 54.656 57.5296C54.4337 57.7966 54.1584 58.0145 53.8474 58.1696C53.4959 58.3419 53.1082 58.4275 52.7168 58.4192C52.1588 58.4346 51.6085 58.2862 51.1338 57.9925C50.6889 57.7079 50.3362 57.3003 50.1184 56.8192C49.8752 56.2769 49.755 55.6875 49.7664 55.0933C49.7499 54.427 49.8719 53.7645 50.1248 53.1477C50.3351 52.6398 50.6877 52.2034 51.1402 51.8912C51.5912 51.5905 52.1237 51.4356 52.6656 51.4475" fill="#E9BA55"/>
<path d="M60.3563 51.4667C60.6335 51.4588 60.9098 51.5022 61.1712 51.5947C61.3784 51.6715 61.5653 51.7949 61.7174 51.9552C61.8848 52.1362 62.0044 52.3562 62.0651 52.5952C62.1404 52.9369 62.174 53.2865 62.1654 53.6363V57.0624C62.1654 57.4229 62.2422 57.6661 62.3915 57.7941C62.6122 57.9428 62.8775 58.0106 63.1424 57.9861V58.2571L62.4747 58.2251C62.1739 58.2123 61.8838 58.2059 61.6022 58.2059C61.3206 58.2059 61.0432 58.2059 60.7744 58.2251L60.1643 58.2571V57.9861C60.3992 58.0094 60.6341 57.9406 60.8192 57.7941C60.9472 57.6661 61.0112 57.4229 61.0112 57.0624V53.3525C61.013 53.1079 60.9916 52.8636 60.9472 52.6229C60.9136 52.4161 60.8123 52.2263 60.6592 52.0832C60.4647 51.9292 60.2198 51.8532 59.9723 51.8699C59.6318 51.8636 59.299 51.9718 59.0272 52.1771C58.7476 52.3969 58.5312 52.6869 58.4 53.0176C58.2444 53.3941 58.1674 53.7985 58.1739 54.2059V57.0539C58.1739 57.4144 58.24 57.6576 58.368 57.7856C58.5524 57.9321 58.7865 58.001 59.0208 57.9776V58.2485L58.4128 58.2165C58.1419 58.2037 57.8667 58.1973 57.5851 58.1973C57.3035 58.1973 57.0112 58.1973 56.7126 58.2165L56.0448 58.2485V57.9776C56.3098 58.0017 56.5749 57.9339 56.7958 57.7856C56.9451 57.6576 57.0091 57.4144 57.0091 57.0539V53.0453C57.0293 52.7455 56.9547 52.447 56.7958 52.192C56.6592 52.0085 56.4011 51.9168 56.0256 51.9168V51.6459C56.2987 51.6715 56.5632 51.6843 56.8214 51.6843C57.0596 51.6848 57.2976 51.6699 57.5339 51.6395C57.7444 51.613 57.9521 51.568 58.1547 51.5051V53.0197C58.3144 52.5188 58.6442 52.0894 59.087 51.8059C59.4665 51.5846 59.8978 51.4676 60.3371 51.4667" fill="#E9BA55"/>
<path d="M65.5296 58.3467C65.2134 58.3549 64.9001 58.2861 64.6165 58.1461C64.3706 58.0236 64.1676 57.8295 64.0341 57.5893C63.8981 57.3327 63.8298 57.0456 63.8357 56.7552C63.8213 56.4271 63.9133 56.103 64.0981 55.8315C64.2745 55.5887 64.5054 55.3907 64.7722 55.2533C65.0495 55.1056 65.3394 54.9828 65.6384 54.8864L66.5045 54.6048C66.7425 54.5316 66.9693 54.426 67.1786 54.2912C67.2595 54.2411 67.3261 54.171 67.3721 54.0877C67.418 54.0043 67.4418 53.9106 67.441 53.8155V53.0197C67.4573 52.7369 67.4023 52.4545 67.281 52.1984C67.1898 52.0241 67.0381 51.8891 66.8544 51.8187C66.6602 51.7521 66.4559 51.7197 66.2506 51.7227C66.0196 51.7249 65.7897 51.755 65.5658 51.8123C65.3334 51.8647 65.1267 51.9968 64.9813 52.1856C65.158 52.2241 65.3155 52.3238 65.4259 52.467C65.5363 52.6102 65.5927 52.7878 65.585 52.9685C65.5885 53.0636 65.5712 53.1582 65.5343 53.2459C65.4975 53.3336 65.442 53.4122 65.3717 53.4763C65.2259 53.6026 65.0376 53.669 64.8448 53.6619C64.7414 53.6696 64.6376 53.6521 64.5425 53.6108C64.4474 53.5696 64.3637 53.5058 64.2986 53.4251C64.1851 53.2706 64.1244 53.0835 64.1258 52.8917C64.1167 52.6979 64.1755 52.507 64.2922 52.352C64.4155 52.2044 64.5591 52.0751 64.7189 51.968C64.9537 51.8113 65.2113 51.6919 65.4826 51.6139C65.8285 51.5103 66.1883 51.4606 66.5493 51.4667C66.8532 51.4601 67.1562 51.5011 67.4474 51.5883C67.6771 51.6582 67.8878 51.7793 68.064 51.9424C68.2793 52.1426 68.4282 52.4039 68.4906 52.6912C68.5666 53.0415 68.6017 53.3995 68.5952 53.7579V57.3248C68.5829 57.4851 68.6162 57.6456 68.6912 57.7877C68.725 57.835 68.7705 57.8728 68.8232 57.8975C68.8758 57.9221 68.934 57.9328 68.992 57.9285C69.0854 57.9287 69.1775 57.9067 69.2608 57.8645C69.371 57.8043 69.4747 57.7328 69.5701 57.6512L69.7109 57.8645C69.548 57.9899 69.3761 58.1033 69.1968 58.2037C68.9966 58.2909 68.7805 58.336 68.5621 58.336C68.3437 58.336 68.1277 58.2909 67.9274 58.2037C67.7671 58.1204 67.6383 57.9871 67.5605 57.824C67.4719 57.6227 67.4303 57.4038 67.4389 57.184C67.2396 57.5339 66.9548 57.8275 66.6112 58.0373C66.2825 58.2289 65.9078 58.3271 65.5274 58.3211L65.5296 58.3467ZM65.9882 57.8069C66.2647 57.8174 66.538 57.7454 66.7733 57.6C67.0451 57.4079 67.271 57.158 67.4346 56.8683V54.3424C67.3176 54.4998 67.1628 54.6253 66.9845 54.7072C66.7882 54.8053 66.5749 54.9035 66.3445 55.0016C66.1153 55.1 65.8941 55.2162 65.6832 55.3493C65.4735 55.4815 65.2957 55.6586 65.1626 55.8677C65.0131 56.1204 64.939 56.4106 64.9493 56.704C64.9346 57.0026 65.0329 57.2958 65.2245 57.5253C65.3197 57.6281 65.4363 57.7089 65.566 57.762C65.6957 57.815 65.8354 57.8391 65.9754 57.8325" fill="#E9BA55"/>
<path d="M72.2282 51.5051V57.0624C72.2282 57.4229 72.3028 57.6661 72.4543 57.7941C72.6743 57.9425 72.9388 58.0103 73.2031 57.9861V58.2571L72.5439 58.2251C72.2474 58.2101 71.9508 58.2059 71.65 58.2059C71.3492 58.2059 71.0655 58.2059 70.7647 58.2251L70.097 58.2571V57.9861C70.3619 58.0106 70.6272 57.9428 70.8479 57.7941C70.9972 57.6661 71.074 57.4229 71.074 57.0624V53.0453C71.0953 52.7455 71.0206 52.4466 70.8607 52.192C70.7242 52.0085 70.4682 51.9168 70.0906 51.9168V51.6459C70.3658 51.6715 70.6303 51.6843 70.8863 51.6843C71.1245 51.685 71.3626 51.67 71.5988 51.6395C71.8101 51.6132 72.0185 51.5683 72.2218 51.5051H72.2282ZM71.554 48.4373C71.7476 48.4344 71.9362 48.4988 72.0874 48.6196C72.2387 48.7405 72.3432 48.9101 72.3831 49.0996C72.423 49.289 72.3957 49.4864 72.306 49.658C72.2162 49.8295 72.0696 49.9645 71.8913 50.0398C71.713 50.1151 71.514 50.126 71.3284 50.0707C71.1429 50.0154 70.9824 49.8972 70.8745 49.7366C70.7665 49.5759 70.7178 49.3826 70.7367 49.19C70.7556 48.9973 70.8409 48.8172 70.978 48.6805C71.0524 48.6029 71.1419 48.5413 71.2409 48.4995C71.34 48.4577 71.4465 48.4365 71.554 48.4373Z" fill="#E9BA55"/>
<path d="M76.16 51.4667C76.4594 51.4581 76.7572 51.5148 77.0325 51.6331C77.2211 51.7124 77.3983 51.8164 77.5594 51.9424C77.841 52.1728 78.0138 52.0192 78.0736 51.4795H78.368C78.3509 51.7184 78.3381 52.0043 78.3296 52.3328C78.321 52.6613 78.3168 53.1051 78.3168 53.6619H78.0224C77.9695 53.3449 77.8808 53.035 77.7578 52.7381C77.6428 52.4495 77.4555 52.1953 77.2138 52C76.9444 51.7967 76.6123 51.6941 76.2752 51.7099C76.0027 51.7007 75.7361 51.7901 75.5242 51.9616C75.4212 52.0532 75.3405 52.1671 75.2884 52.2947C75.2363 52.4223 75.214 52.5601 75.2234 52.6976C75.2179 52.9393 75.2997 53.1748 75.4538 53.3611C75.6284 53.5609 75.8319 53.7335 76.0576 53.8731C76.3064 54.0309 76.576 54.2045 76.8661 54.3936C77.1741 54.5885 77.4698 54.8022 77.7514 55.0336C78.0039 55.2295 78.2204 55.4677 78.3914 55.7376C78.5546 56.0137 78.6366 56.3301 78.6282 56.6507C78.6405 57.0052 78.5322 57.3534 78.321 57.6384C78.1109 57.9061 77.8343 58.1143 77.5189 58.2421C77.1753 58.3843 76.807 58.4568 76.4352 58.4555C76.2564 58.4564 76.0779 58.4414 75.9018 58.4107C75.7372 58.3815 75.5757 58.3365 75.4197 58.2763C75.3291 58.2298 75.2415 58.1778 75.1573 58.1205C75.0666 58.0611 74.979 57.997 74.8949 57.9285C74.8805 57.9118 74.8626 57.8984 74.8426 57.8893C74.8225 57.8801 74.8007 57.8753 74.7786 57.8753C74.7566 57.8753 74.7348 57.8801 74.7147 57.8893C74.6946 57.8984 74.6768 57.9118 74.6624 57.9285C74.5736 58.0543 74.5205 58.2017 74.5088 58.3552H74.2144C74.2314 58.08 74.2442 57.7472 74.2528 57.3525C74.2613 56.9579 74.2656 56.4373 74.2656 55.7867H74.56C74.6081 56.2131 74.6945 56.6344 74.8181 57.0453C74.9071 57.3708 75.0896 57.663 75.3429 57.8859C75.6302 58.1016 75.9848 58.2082 76.3434 58.1867C76.5232 58.1861 76.7007 58.1469 76.864 58.0715C77.046 57.9892 77.2001 57.8558 77.3077 57.6875C77.437 57.4707 77.4993 57.2206 77.4869 56.9685C77.4918 56.7936 77.4573 56.6197 77.3861 56.4598C77.3148 56.3 77.2086 56.1581 77.0752 56.0448C76.7489 55.7659 76.4016 55.5127 76.0362 55.2875C75.729 55.0912 75.4389 54.8928 75.1701 54.6965C74.914 54.5144 74.6923 54.2883 74.5152 54.0288C74.3496 53.7498 74.2634 53.4309 74.2656 53.1065C74.2679 52.7821 74.3586 52.4644 74.528 52.1877C74.7038 51.9437 74.947 51.7561 75.2277 51.648C75.526 51.5314 75.8439 51.4727 76.1642 51.4752" fill="#E9BA55"/>
<path d="M81.8943 51.4667C82.1955 51.4555 82.4954 51.5101 82.7733 51.6267C82.961 51.7064 83.1374 51.8104 83.2981 51.936C83.5825 52.1664 83.7539 52.0121 83.8122 51.4731H84.1066C84.0895 51.712 84.0767 51.9979 84.0682 52.3264C84.0597 52.6549 84.0554 53.0987 84.0554 53.6555H83.7546C83.7035 53.3384 83.6154 53.0283 83.4922 52.7317C83.3757 52.4434 83.1877 52.1894 82.9461 51.9936C82.6774 51.7903 82.346 51.6877 82.0095 51.7035C81.737 51.6935 81.4701 51.783 81.2586 51.9552C81.1548 52.0462 81.0735 52.1601 81.0209 52.2877C80.9684 52.4154 80.946 52.5535 80.9557 52.6912C80.95 52.9333 81.0326 53.1691 81.1882 53.3547C81.3617 53.5556 81.5654 53.7283 81.7919 53.8667L82.6005 54.3872C82.9078 54.5831 83.2034 54.7968 83.4858 55.0272C83.7379 55.2235 83.9543 55.4616 84.1258 55.7312C84.2903 56.0068 84.3732 56.3234 84.3647 56.6443C84.3772 56.9991 84.2681 57.3476 84.0554 57.632C83.8456 57.9002 83.569 58.1084 83.2533 58.2357C82.9098 58.3781 82.5414 58.4506 82.1695 58.4491C81.9908 58.4498 81.8123 58.4348 81.6362 58.4043C81.4722 58.3751 81.3115 58.3301 81.1562 58.2699C81.0647 58.2239 80.9763 58.1719 80.8917 58.1141C80.801 58.0547 80.7134 57.9906 80.6293 57.9221C80.615 57.9055 80.5974 57.8921 80.5775 57.8829C80.5576 57.8737 80.536 57.869 80.5141 57.869C80.4922 57.869 80.4705 57.8737 80.4506 57.8829C80.4307 57.8921 80.4131 57.9055 80.3989 57.9221C80.3094 58.0477 80.2555 58.1951 80.2431 58.3488H79.9487C79.9658 58.0736 79.9786 57.7408 79.9871 57.3461C79.9957 56.9515 79.9999 56.4309 79.9999 55.7803H80.2965C80.345 56.2065 80.4307 56.6276 80.5525 57.0389C80.6389 57.3623 80.8175 57.6536 81.0666 57.8773C81.3547 58.0931 81.71 58.1996 82.0693 58.1781C82.2483 58.1774 82.4251 58.1381 82.5877 58.0629C82.7701 57.9813 82.9244 57.8477 83.0314 57.6789C83.1607 57.4622 83.223 57.2121 83.2106 56.96C83.2154 56.7852 83.1812 56.6116 83.1103 56.4518C83.0395 56.292 82.9338 56.15 82.801 56.0363C82.4736 55.7579 82.1256 55.5047 81.7599 55.2789C81.4527 55.0827 81.1647 54.8843 80.8938 54.688C80.6383 54.5053 80.4166 54.2793 80.2389 54.0203C80.073 53.7413 79.9867 53.4222 79.9893 53.0977C79.9919 52.7731 80.0834 52.4555 80.2538 52.1792C80.4288 51.9352 80.6713 51.7476 80.9514 51.6395C81.2505 51.5228 81.569 51.4642 81.8901 51.4667" fill="#E9BA55"/>
<path d="M87.1553 58.3467C86.8399 58.3549 86.5272 58.2861 86.2444 58.1461C85.9979 58.0236 85.7942 57.8295 85.6598 57.5894C85.5238 57.3327 85.4555 57.0456 85.4614 56.7552C85.447 56.4271 85.539 56.103 85.7238 55.8315C85.9021 55.5896 86.1335 55.3919 86.4001 55.2533C86.6777 55.1064 86.9675 54.9836 87.2662 54.8864L88.1324 54.6048C88.3707 54.5324 88.5976 54.4269 88.8065 54.2912C88.8879 54.2415 88.955 54.1715 89.0014 54.0882C89.0478 54.0048 89.0717 53.9109 89.071 53.8155V53.0197C89.0873 52.7369 89.0323 52.4545 88.911 52.1984C88.8187 52.025 88.6673 51.8903 88.4844 51.8187C88.2901 51.7523 88.0859 51.7199 87.8806 51.7227C87.6489 51.7251 87.4183 51.7551 87.1937 51.8123C86.9621 51.8652 86.7561 51.9972 86.6113 52.1856C86.7782 52.2208 86.9284 52.3109 87.038 52.4416C87.1609 52.589 87.2248 52.7768 87.2172 52.9685C87.2206 53.0636 87.2033 53.1582 87.1665 53.2459C87.1296 53.3336 87.0741 53.4122 87.0038 53.4763C86.8585 53.6034 86.6698 53.6699 86.4769 53.6619C86.3737 53.6704 86.27 53.6532 86.1751 53.6119C86.0802 53.5705 85.997 53.5064 85.9329 53.4251C85.8179 53.2712 85.7564 53.0839 85.758 52.8917C85.7494 52.6977 85.809 52.5067 85.9265 52.352C86.0501 52.2047 86.1937 52.0755 86.3532 51.968C86.5882 51.8118 86.8458 51.6924 87.1169 51.6139C87.4628 51.5107 87.8226 51.461 88.1836 51.4667C88.4874 51.4603 88.7905 51.5013 89.0817 51.5883C89.3111 51.6587 89.5218 51.7797 89.6982 51.9424C89.9136 52.1426 90.0624 52.4039 90.1249 52.6912C90.199 53.0418 90.2333 53.3996 90.2273 53.7579V57.3248C90.2151 57.4851 90.2483 57.6456 90.3233 57.7877C90.3573 57.8354 90.4031 57.8733 90.4562 57.898C90.5093 57.9227 90.5679 57.9332 90.6262 57.9286C90.7196 57.9287 90.8117 57.9067 90.895 57.8645C91.0042 57.8037 91.1071 57.7323 91.2022 57.6512L91.3452 57.8645C91.1819 57.9894 91.0101 58.1028 90.831 58.2037C90.6293 58.2922 90.4113 58.3379 90.191 58.3379C89.9707 58.3379 89.7528 58.2922 89.551 58.2037C89.3913 58.1203 89.2632 57.9869 89.1862 57.824C89.0976 57.6227 89.056 57.4038 89.0646 57.184C88.8647 57.5334 88.5801 57.8269 88.2369 58.0373C87.9075 58.229 87.5321 58.3271 87.151 58.3211L87.1553 58.3467ZM87.614 57.8069C87.8955 57.8071 88.1706 57.7224 88.4033 57.5637C88.6741 57.3705 88.8997 57.1209 89.0646 56.832V54.3424C88.947 54.4993 88.7924 54.6247 88.6145 54.7072C88.4182 54.8053 88.2049 54.9035 87.9745 55.0016C87.7457 55.1009 87.5246 55.2171 87.3132 55.3493C87.1041 55.4816 86.927 55.6587 86.7948 55.8677C86.6443 56.12 86.5702 56.4105 86.5814 56.704C86.5659 57.0028 86.6643 57.2963 86.8566 57.5253C86.9516 57.6285 87.0681 57.7095 87.1979 57.7626C87.3277 57.8157 87.4675 57.8396 87.6076 57.8325" fill="#E9BA55"/>
<path d="M96.0362 51.4667C96.3134 51.4586 96.5897 51.502 96.8511 51.5947C97.0583 51.6715 97.2451 51.7949 97.3972 51.9552C97.5647 52.1362 97.6842 52.3562 97.7449 52.5952C97.8221 52.9366 97.8565 53.2863 97.8474 53.6363V57.0624C97.8474 57.4229 97.922 57.6661 98.0607 57.7941C98.2814 57.9428 98.5467 58.0106 98.8116 57.9861V58.2571L98.1439 58.2251C97.8452 58.2123 97.5529 58.2059 97.2713 58.2059C96.9897 58.2059 96.7124 58.2059 96.4436 58.2251L95.8335 58.2571V57.9861C96.0685 58.0099 96.3034 57.941 96.4884 57.7941C96.6164 57.6661 96.6804 57.4229 96.6804 57.0624V53.3525C96.6822 53.1079 96.6608 52.8636 96.6164 52.6229C96.5828 52.4161 96.4815 52.2263 96.3284 52.0832C96.1341 51.9288 95.8891 51.8527 95.6415 51.8699C95.3016 51.8632 94.9693 51.9715 94.6986 52.1771C94.4176 52.3962 94.2004 52.6863 94.0692 53.0176C93.9156 53.3946 93.8394 53.7988 93.8452 54.2059V57.0539C93.8452 57.4144 93.9092 57.6576 94.0372 57.7856C94.2222 57.9324 94.4572 58.0013 94.6922 57.9776V58.2485L94.082 58.2165C93.8132 58.2037 93.5359 58.1973 93.2543 58.1973C92.9727 58.1973 92.6804 58.1973 92.3818 58.2165L91.714 58.2485V57.9776C91.979 58.0017 92.2441 57.9339 92.465 57.7856C92.6143 57.6576 92.6783 57.4144 92.6783 57.0539V53.0453C92.6985 52.7455 92.6239 52.447 92.465 52.192C92.3284 52.0085 92.0703 51.9168 91.6948 51.9168V51.6459C91.9679 51.6715 92.2346 51.6843 92.4906 51.6843C92.7288 51.6848 92.9668 51.6699 93.2031 51.6395C93.4142 51.6128 93.6227 51.5678 93.826 51.5051V53.0197C93.9842 52.5186 94.3134 52.089 94.7562 51.8059C95.1357 51.5846 95.567 51.4675 96.0063 51.4667" fill="#E9BA55"/>
<path d="M102.596 51.4667C102.865 51.466 103.132 51.5004 103.392 51.5691C103.639 51.633 103.873 51.7375 104.085 51.8784C104.266 51.9905 104.419 52.1414 104.533 52.32C104.635 52.484 104.688 52.6733 104.687 52.8661C104.693 52.9631 104.68 53.0604 104.647 53.1518C104.614 53.2433 104.562 53.3268 104.495 53.3973C104.431 53.46 104.354 53.509 104.27 53.5412C104.186 53.5735 104.096 53.5884 104.006 53.5851C103.828 53.5883 103.654 53.5294 103.514 53.4187C103.443 53.3618 103.387 53.2891 103.35 53.2064C103.313 53.1237 103.296 53.0334 103.3 52.9429C103.292 52.7699 103.349 52.6002 103.46 52.4672C103.559 52.3526 103.691 52.272 103.838 52.2368C103.731 52.0641 103.572 51.9297 103.384 51.8528C103.165 51.7486 102.926 51.6953 102.684 51.6971C102.461 51.6992 102.242 51.7525 102.044 51.8528C101.81 51.9722 101.607 52.1455 101.453 52.3584C101.251 52.6493 101.107 52.9758 101.026 53.3205C100.904 53.818 100.848 54.3295 100.86 54.8416C100.838 55.4515 100.925 56.0604 101.116 56.64C101.236 57.0197 101.468 57.3543 101.781 57.6C102.05 57.7893 102.37 57.89 102.699 57.888C103.197 57.8846 103.675 57.6899 104.034 57.344C104.258 57.122 104.437 56.8582 104.559 56.5675L104.804 56.6571C104.705 56.953 104.561 57.2321 104.378 57.4848C104.174 57.7674 103.911 58.0019 103.608 58.1717C103.248 58.3607 102.846 58.4534 102.441 58.4405C101.931 58.4473 101.431 58.3041 101.003 58.0288C100.561 57.7397 100.208 57.3335 99.983 56.8555C99.718 56.2878 99.5887 55.6663 99.6054 55.04C99.5922 54.4015 99.722 53.7681 99.9852 53.1861C100.218 52.6763 100.587 52.2407 101.052 51.9275C101.512 51.6223 102.053 51.4639 102.605 51.4731" fill="#E9BA55"/>
<path d="M108.745 51.4667C109.498 51.4667 110.084 51.6949 110.509 52.1536C110.933 52.6123 111.149 53.3227 111.149 54.2869H106.613L106.601 54.0416H109.911C109.931 53.6519 109.897 53.2613 109.809 52.8811C109.745 52.5685 109.606 52.276 109.406 52.0277C109.319 51.924 109.21 51.8412 109.086 51.7855C108.963 51.7297 108.829 51.7024 108.693 51.7056C108.484 51.7138 108.28 51.7717 108.098 51.8744C107.916 51.9772 107.761 52.1219 107.646 52.2965C107.343 52.6912 107.162 53.3141 107.102 54.1696L107.14 54.2229C107.123 54.3509 107.11 54.4932 107.102 54.6496C107.102 54.8032 107.089 54.9568 107.089 55.1125C107.078 55.6245 107.174 56.1332 107.371 56.6059C107.527 56.9844 107.782 57.3143 108.109 57.5616C108.38 57.7683 108.711 57.8826 109.052 57.888C109.301 57.8893 109.548 57.8481 109.783 57.7664C110.023 57.6792 110.241 57.5418 110.423 57.3632C110.64 57.1442 110.814 56.8876 110.938 56.6059L111.194 56.7083C111.09 57.0079 110.934 57.2862 110.731 57.5296C110.509 57.7971 110.233 58.0151 109.922 58.1696C109.571 58.3419 109.184 58.4275 108.794 58.4192C108.235 58.4349 107.684 58.2865 107.209 57.9925C106.764 57.7078 106.412 57.3002 106.195 56.8192C105.95 56.2774 105.829 55.6878 105.841 55.0933C105.825 54.427 105.947 53.7645 106.199 53.1477C106.41 52.6401 106.763 52.204 107.215 51.8912C107.667 51.5902 108.2 51.4353 108.742 51.4475" fill="#E9BA55"/>
<path d="M119.706 48.9899C120.182 48.9733 120.656 49.0584 121.097 49.2395C121.442 49.3948 121.767 49.5911 122.065 49.824C122.238 49.952 122.368 49.9669 122.458 49.8688C122.582 49.6566 122.646 49.4148 122.643 49.1691H122.94C122.921 49.4869 122.91 49.8709 122.901 50.3232C122.893 50.7755 122.886 51.3771 122.886 52.1216H122.592C122.532 51.7547 122.477 51.4603 122.426 51.2427C122.384 51.0504 122.321 50.863 122.24 50.6837C122.159 50.52 122.062 50.3649 121.95 50.2208C121.694 49.8778 121.348 49.6133 120.949 49.4571C120.542 49.2977 120.107 49.2173 119.669 49.2203C119.269 49.2148 118.875 49.3244 118.534 49.536C118.176 49.7645 117.877 50.0744 117.662 50.4405C117.399 50.8816 117.208 51.362 117.097 51.8635C116.958 52.4787 116.891 53.108 116.898 53.7387C116.888 54.3802 116.959 55.0204 117.112 55.6437C117.232 56.1401 117.439 56.6115 117.722 57.0368C117.957 57.3907 118.274 57.6832 118.645 57.8901C118.998 58.0812 119.392 58.1802 119.793 58.1781C120.206 58.173 120.615 58.095 121.001 57.9477C121.4 57.8099 121.746 57.5493 121.988 57.2032C122.174 56.9639 122.308 56.6885 122.381 56.3947C122.472 55.9931 122.538 55.5863 122.579 55.1765H122.88C122.88 55.9552 122.88 56.5803 122.895 57.056C122.91 57.5317 122.914 57.9306 122.933 58.257H122.637C122.639 58.0151 122.579 57.7765 122.464 57.5637C122.383 57.4698 122.251 57.4827 122.059 57.6021C121.741 57.8254 121.404 58.0203 121.052 58.1845C120.62 58.3676 120.153 58.4536 119.684 58.4362C118.936 58.4526 118.197 58.2614 117.551 57.8837C116.929 57.506 116.433 56.9521 116.126 56.2923C115.788 55.4986 115.615 54.6442 115.618 53.7815C115.622 52.9187 115.801 52.0657 116.145 51.2747C116.463 50.5925 116.963 50.0109 117.589 49.5936C118.217 49.1856 118.953 48.9753 119.701 48.9899" fill="#E9BA55"/>
<path d="M126.187 48.1941V57.0624C126.187 57.4229 126.261 57.6661 126.4 57.7941C126.621 57.9428 126.886 58.0106 127.151 57.9861V58.2571L126.49 58.2251C126.195 58.2123 125.897 58.2059 125.598 58.2059C125.299 58.2059 125.011 58.2059 124.713 58.2251L124.045 58.2571V57.9861C124.31 58.0106 124.575 57.9428 124.796 57.7941C124.945 57.6661 125.02 57.4229 125.02 57.0624V49.7344C125.04 49.4346 124.965 49.1361 124.807 48.8811C124.67 48.6955 124.414 48.6037 124.036 48.6037V48.3349C124.309 48.3605 124.576 48.3733 124.832 48.3733C125.07 48.374 125.308 48.359 125.545 48.3285C125.756 48.3019 125.964 48.2569 126.168 48.1941" fill="#E9BA55"/>
<path d="M133.643 51.5051V56.8704C133.621 57.1704 133.695 57.4695 133.856 57.7237C133.999 57.9072 134.253 57.9989 134.62 57.9989V58.2699C134.355 58.2432 134.09 58.2304 133.824 58.2315C133.586 58.2299 133.348 58.2427 133.112 58.2699C132.9 58.2922 132.691 58.3394 132.491 58.4107V56.896C132.349 57.3433 132.069 57.7338 131.69 58.0108C131.311 58.2878 130.854 58.4368 130.385 58.4363C130.119 58.4418 129.853 58.3984 129.602 58.3083C129.393 58.2308 129.205 58.1076 129.05 57.9477C128.879 57.7604 128.764 57.5292 128.717 57.28C128.651 56.9463 128.621 56.6067 128.627 56.2667V53.0453C128.647 52.7456 128.573 52.447 128.414 52.192C128.275 52.0085 128.019 51.9168 127.644 51.9168V51.6459C127.917 51.6715 128.181 51.6843 128.44 51.6843C128.678 51.6848 128.916 51.6699 129.152 51.6395C129.363 51.613 129.57 51.5681 129.773 51.5051V56.5483C129.771 56.7931 129.788 57.0377 129.824 57.28C129.848 57.4835 129.939 57.6733 130.082 57.8197C130.268 57.9764 130.508 58.0532 130.75 58.0331C131.074 58.0361 131.388 57.9276 131.642 57.7259C131.914 57.5044 132.125 57.2174 132.256 56.8917C132.411 56.5144 132.487 56.1093 132.48 55.7013V53.0453C132.501 52.7455 132.427 52.4466 132.267 52.192C132.13 52.0085 131.874 51.9168 131.497 51.9168V51.6459C131.772 51.6715 132.036 51.6843 132.292 51.6843C132.531 51.685 132.769 51.67 133.005 51.6395C133.216 51.6132 133.425 51.5683 133.628 51.5051" fill="#E9BA55"/>
<path d="M137.084 48.2133V57.6L136.747 57.8773L136.407 58.1675L136.055 58.4533L135.842 58.3637C135.876 58.2437 135.9 58.1209 135.913 57.9968C135.925 57.8713 135.932 57.7453 135.932 57.6192V49.7472C135.952 49.4474 135.877 49.1489 135.718 48.8939C135.582 48.7083 135.324 48.6165 134.948 48.6165V48.3477C135.221 48.3733 135.488 48.3861 135.744 48.3861C135.982 48.3868 136.22 48.3718 136.457 48.3413C136.668 48.3147 136.876 48.2697 137.079 48.2069L137.084 48.2133ZM139.093 51.4667C139.432 51.4621 139.767 51.5383 140.071 51.6889C140.374 51.8395 140.637 52.0602 140.838 52.3328C141.301 52.9102 141.532 53.7849 141.532 54.9568C141.554 55.6227 141.42 56.2845 141.141 56.8896C140.921 57.3578 140.57 57.7527 140.132 58.027C139.693 58.3012 139.184 58.4433 138.667 58.4363C138.227 58.4333 137.797 58.3061 137.427 58.0693C137.02 57.8148 136.707 57.4343 136.535 56.9856L136.791 57.1264C136.975 57.4334 137.234 57.6881 137.544 57.866C137.854 58.0438 138.205 58.1389 138.562 58.1419C138.827 58.148 139.089 58.0781 139.316 57.9405C139.542 57.8029 139.725 57.6033 139.842 57.3653C140.127 56.8476 140.269 56.0448 140.269 54.9568C140.28 54.3749 140.224 53.7937 140.102 53.2245C140.029 52.8397 139.851 52.4824 139.588 52.192C139.471 52.079 139.332 51.9907 139.18 51.9324C139.028 51.8741 138.866 51.847 138.703 51.8528C138.493 51.8598 138.287 51.9107 138.097 52.0021C137.908 52.0936 137.74 52.2237 137.604 52.384C137.233 52.8222 137.015 53.3698 136.983 53.9435L136.828 53.7643C136.88 53.1286 137.15 52.5304 137.591 52.0704C137.787 51.8744 138.02 51.7198 138.276 51.6161C138.533 51.5123 138.808 51.4615 139.085 51.4667" fill="#E9BA55"/>
</g>
<defs>
<clipPath id="clip0_48_507">
<rect width="160" height="58.4619" fill="white"/>
</clipPath>
</defs>
</svg>
