<svg width="24" height="24" viewBox="0 0 24 24" fill="none" xmlns="http://www.w3.org/2000/svg">
<rect width="0.857143" height="24" transform="matrix(3.12224e-08 1 1 -6.11959e-08 0 11)" fill="url(#paint0_linear_48_536)"/>
<rect width="0.857143" height="24" transform="matrix(1 0 0 -1 12 24)" fill="url(#paint1_linear_48_536)"/>
<rect width="0.857143" height="24" transform="matrix(-0.5 0.866025 0.866025 0.5 1 5)" fill="url(#paint2_linear_48_536)"/>
<rect width="0.857143" height="24" transform="matrix(-0.866025 0.5 0.5 0.866025 7 1)" fill="url(#paint3_linear_48_536)"/>
<rect x="18" y="1" width="0.857143" height="24" transform="rotate(30 18 1)" fill="url(#paint4_linear_48_536)"/>
<rect width="0.857143" height="24" transform="matrix(0.500003 0.866024 -0.866027 0.499997 22 6)" fill="url(#paint5_linear_48_536)"/>
<defs>
<linearGradient id="paint0_linear_48_536" x1="0.428571" y1="0" x2="0.428571" y2="24" gradientUnits="userSpaceOnUse">
<stop stop-color="#D9C79A" stop-opacity="0"/>
<stop offset="0.505208" stop-color="#D9C79A"/>
<stop offset="1" stop-color="#D9C79A" stop-opacity="0"/>
</linearGradient>
<linearGradient id="paint1_linear_48_536" x1="0.428571" y1="0" x2="0.428571" y2="24" gradientUnits="userSpaceOnUse">
<stop stop-color="#D9C79A" stop-opacity="0"/>
<stop offset="0.505208" stop-color="#D9C79A"/>
<stop offset="1" stop-color="#D9C79A" stop-opacity="0"/>
</linearGradient>
<linearGradient id="paint2_linear_48_536" x1="0.428571" y1="0" x2="0.428571" y2="24" gradientUnits="userSpaceOnUse">
<stop stop-color="#D9C79A" stop-opacity="0"/>
<stop offset="0.505208" stop-color="#D9C79A"/>
<stop offset="1" stop-color="#D9C79A" stop-opacity="0"/>
</linearGradient>
<linearGradient id="paint3_linear_48_536" x1="0.428571" y1="0" x2="0.428571" y2="24" gradientUnits="userSpaceOnUse">
<stop stop-color="#D9C79A" stop-opacity="0"/>
<stop offset="0.505208" stop-color="#D9C79A"/>
<stop offset="1" stop-color="#D9C79A" stop-opacity="0"/>
</linearGradient>
<linearGradient id="paint4_linear_48_536" x1="18.4286" y1="1" x2="18.4286" y2="25" gradientUnits="userSpaceOnUse">
<stop stop-color="#D9C79A" stop-opacity="0"/>
<stop offset="0.505208" stop-color="#D9C79A"/>
<stop offset="1" stop-color="#D9C79A" stop-opacity="0"/>
</linearGradient>
<linearGradient id="paint5_linear_48_536" x1="0.428571" y1="0" x2="0.428571" y2="24" gradientUnits="userSpaceOnUse">
<stop stop-color="#D9C79A" stop-opacity="0"/>
<stop offset="0.505208" stop-color="#D9C79A"/>
<stop offset="1" stop-color="#D9C79A" stop-opacity="0"/>
</linearGradient>
</defs>
</svg>
